<?xml version="1.0" encoding="utf-8"?><svg fill="none" viewBox="0 0 1000 1000" xmlns="http://www.w3.org/2000/svg"><defs /><g transform="matrix(0.91,0,0,0.91,504,572)" opacity="0" id="Null 1" /><g transform="matrix(0.91,0,0,0.91,504,572)" id="Null 1"><g transform="matrix(2.19,0,0,2.19,37.267,0)" id="Skill Desktop"><g id="line all" transform="matrix(1,0,0,1,0,0)" opacity="0.15"><g><g id="line" transform="translate(0,188)"><animateTransform repeatCount="indefinite" type="translate" attributeName="transform" dur="9.96s" begin="9.96s" calcMode="spline" values="0 188; 0 0; 0 -122" keyTimes="0; 0.502; 1" keySplines="0.167 0 0.833 1; 0.167 0 0.833 1" fill="freeze" /><g id="Group 6" opacity="0"><animate repeatCount="indefinite" attributeName="opacity" dur="5.12s" begin="14.24s" calcMode="spline" values="0; 1; 1; 0" keyTimes="0; 0.07; 0.93; 1" keySplines="0.333 0 0.667 1; 0.167 0 0.667 1; 0.333 0 0.667 1" fill="freeze" /><path fill="#6188ff" fill-opacity="1" d="M1.241,-50.944L-134.958,-129.442L-134.958,-134.073L1.241,-55.575L1.241,-50.944Z" /></g><g id="Group 2" opacity="0"><animate repeatCount="indefinite" attributeName="opacity" dur="4.8s" begin="13.6s" calcMode="spline" values="0; 1; 1; 0" keyTimes="0; 0.075; 0.925; 1" keySplines="0.333 0 0.667 1; 0.167 0 0.667 1; 0.333 0 0.667 1" fill="freeze" /><path fill="#6188ff" fill-opacity="1" d="M-101.06,-140.79L-143.152,-165.098L-143.152,-169.729L-101.06,-145.421L-101.06,-140.79Z" /></g><g id="Group 7" opacity="0"><animate repeatCount="indefinite" attributeName="opacity" dur="5.32s" begin="12.88s" calcMode="spline" values="0; 1; 1; 0" keyTimes="0; 0.068; 0.932; 1" keySplines="0.333 0 0.667 1; 0.167 0 0.667 1; 0.333 0 0.667 1" fill="freeze" /><path fill="#6188ff" fill-opacity="1" d="M146.962,-31.06L10.763,-109.558L10.763,-114.189L146.962,-35.691L146.962,-31.06Z" /></g><g id="Group 3" opacity="0"><animate repeatCount="indefinite" attributeName="opacity" dur="5.32s" begin="12.08s" calcMode="spline" values="0; 1; 1; 0" keyTimes="0; 0.068; 0.932; 1" keySplines="0.333 0 0.667 1; 0.167 0 0.667 1; 0.333 0 0.667 1" fill="freeze" /><path fill="#6188ff" fill-opacity="1" d="M-21.13,-137.964L-73.078,-167.924L-73.078,-172.555L-21.13,-142.595L-21.13,-137.964Z" /></g><g id="Group 1" opacity="0"><animate repeatCount="indefinite" attributeName="opacity" dur="5.32s" begin="11.28s" calcMode="spline" values="0; 1; 1; 0" keyTimes="0; 0.068; 0.932; 1" keySplines="0.333 0 0.667 1; 0.167 0 0.667 1; 0.333 0 0.667 1" fill="freeze" /><path fill="#6188ff" fill-opacity="1" d="M120.564,-74.834L-49.712,-173.143L-49.712,-177.774L120.564,-79.465L120.564,-74.834Z" /></g><g id="Group 4" opacity="0"><animate repeatCount="indefinite" attributeName="opacity" dur="5.32s" begin="10.6s" calcMode="spline" values="0; 1; 1; 0" keyTimes="0; 0.068; 0.932; 1" keySplines="0.333 0 0.667 1; 0.167 0 0.667 1; 0.333 0 0.667 1" fill="freeze" /><path fill="#6188ff" fill-opacity="1" d="M100.572,-146.753L48.625,-176.714L48.625,-181.345L100.572,-151.385L100.572,-146.753Z" /></g><g id="Group 5" opacity="0"><animate repeatCount="indefinite" attributeName="opacity" dur="5.32s" begin="10s" calcMode="spline" values="0; 1; 1; 0" keyTimes="0; 0.068; 0.932; 1" keySplines="0.333 0 0.667 1; 0.167 0 0.667 1; 0.333 0 0.667 1" fill="freeze" /><path fill="#6188ff" fill-opacity="1" d="M194.588,-102.156L48.625,-186.361L48.625,-190.992L194.588,-106.787L194.588,-102.156Z" /></g></g></g><g><g id="line 3" transform="translate(0,0)"><animateTransform repeatCount="indefinite" type="translate" attributeName="transform" dur="9.96s" begin="0s" calcMode="spline" values="0 188; 0 0; 0 -122" keyTimes="0; 0.502; 1" keySplines="0.167 0 0.833 1; 0.167 0 0.833 1" fill="freeze" /><g id="Group 6" opacity="1"><animate repeatCount="indefinite" attributeName="opacity" dur="5.12s" begin="4.28s" calcMode="spline" values="0; 1; 1; 0" keyTimes="0; 0.07; 0.93; 1" keySplines="0.333 0 0.667 1; 0.167 0 0.667 1; 0.333 0 0.667 1" fill="freeze" /><path fill="#6188ff" fill-opacity="1" d="M1.241,-50.944L-134.958,-129.442L-134.958,-134.073L1.241,-55.575L1.241,-50.944Z" /></g><g id="Group 2" opacity="1"><animate repeatCount="indefinite" attributeName="opacity" dur="4.8s" begin="3.64s" calcMode="spline" values="0; 1; 1; 0" keyTimes="0; 0.075; 0.925; 1" keySplines="0.333 0 0.667 1; 0.167 0 0.667 1; 0.333 0 0.667 1" fill="freeze" /><path fill="#6188ff" fill-opacity="1" d="M-101.06,-140.79L-143.152,-165.098L-143.152,-169.729L-101.06,-145.421L-101.06,-140.79Z" /></g><g id="Group 7" opacity="1"><animate repeatCount="indefinite" attributeName="opacity" dur="5.32s" begin="2.92s" calcMode="spline" values="0; 1; 1; 0" keyTimes="0; 0.068; 0.932; 1" keySplines="0.333 0 0.667 1; 0.167 0 0.667 1; 0.333 0 0.667 1" fill="freeze" /><path fill="#6188ff" fill-opacity="1" d="M146.962,-31.06L10.763,-109.558L10.763,-114.189L146.962,-35.691L146.962,-31.06Z" /></g><g id="Group 3" opacity="1"><animate repeatCount="indefinite" attributeName="opacity" dur="5.32s" begin="2.12s" calcMode="spline" values="0; 1; 1; 0" keyTimes="0; 0.068; 0.932; 1" keySplines="0.333 0 0.667 1; 0.167 0 0.667 1; 0.333 0 0.667 1" fill="freeze" /><path fill="#6188ff" fill-opacity="1" d="M-21.13,-137.964L-73.078,-167.924L-73.078,-172.555L-21.13,-142.595L-21.13,-137.964Z" /></g><g id="Group 1" opacity="1"><animate repeatCount="indefinite" attributeName="opacity" dur="5.32s" begin="1.32s" calcMode="spline" values="0; 1; 1; 0" keyTimes="0; 0.068; 0.932; 1" keySplines="0.333 0 0.667 1; 0.167 0 0.667 1; 0.333 0 0.667 1" fill="freeze" /><path fill="#6188ff" fill-opacity="1" d="M120.564,-74.834L-49.712,-173.143L-49.712,-177.774L120.564,-79.465L120.564,-74.834Z" /></g><g id="Group 4" opacity="1"><animate repeatCount="indefinite" attributeName="opacity" dur="5.32s" begin="0.64s" calcMode="spline" values="0; 1; 1; 0" keyTimes="0; 0.068; 0.932; 1" keySplines="0.333 0 0.667 1; 0.167 0 0.667 1; 0.333 0 0.667 1" fill="freeze" /><path fill="#6188ff" fill-opacity="1" d="M100.572,-146.753L48.625,-176.714L48.625,-181.345L100.572,-151.385L100.572,-146.753Z" /></g><g id="Group 5" opacity="1"><animate repeatCount="indefinite" attributeName="opacity" dur="5.32s" begin="0.04s" calcMode="spline" values="0; 1; 1; 0" keyTimes="0; 0.068; 0.932; 1" keySplines="0.333 0 0.667 1; 0.167 0 0.667 1; 0.333 0 0.667 1" fill="freeze" /><path fill="#6188ff" fill-opacity="1" d="M194.588,-102.156L48.625,-186.361L48.625,-190.992L194.588,-106.787L194.588,-102.156Z" /></g></g></g><g><g id="line 2" transform="translate(0,188)"><animateTransform repeatCount="indefinite" type="translate" attributeName="transform" dur="9.96s" begin="5s" calcMode="spline" values="0 188; 0 0; 0 -122" keyTimes="0; 0.502; 1" keySplines="0.167 0 0.833 1; 0.167 0 0.833 1" fill="freeze" /><g id="Group 6" opacity="0"><animate repeatCount="indefinite" attributeName="opacity" dur="5.12s" begin="9.28s" calcMode="spline" values="0; 1; 1; 0" keyTimes="0; 0.07; 0.93; 1" keySplines="0.333 0 0.667 1; 0.167 0 0.667 1; 0.333 0 0.667 1" fill="freeze" /><path fill="#6188ff" fill-opacity="1" d="M1.241,-50.944L-134.958,-129.442L-134.958,-134.073L1.241,-55.575L1.241,-50.944Z" /></g><g id="Group 2" opacity="0"><animate repeatCount="indefinite" attributeName="opacity" dur="4.8s" begin="8.64s" calcMode="spline" values="0; 1; 1; 0" keyTimes="0; 0.075; 0.925; 1" keySplines="0.333 0 0.667 1; 0.167 0 0.667 1; 0.333 0 0.667 1" fill="freeze" /><path fill="#6188ff" fill-opacity="1" d="M-101.06,-140.79L-143.152,-165.098L-143.152,-169.729L-101.06,-145.421L-101.06,-140.79Z" /></g><g id="Group 7" opacity="0"><animate repeatCount="indefinite" attributeName="opacity" dur="5.32s" begin="7.92s" calcMode="spline" values="0; 1; 1; 0" keyTimes="0; 0.068; 0.932; 1" keySplines="0.333 0 0.667 1; 0.167 0 0.667 1; 0.333 0 0.667 1" fill="freeze" /><path fill="#6188ff" fill-opacity="1" d="M146.962,-31.06L10.763,-109.558L10.763,-114.189L146.962,-35.691L146.962,-31.06Z" /></g><g id="Group 3" opacity="0"><animate repeatCount="indefinite" attributeName="opacity" dur="5.32s" begin="7.12s" calcMode="spline" values="0; 1; 1; 0" keyTimes="0; 0.068; 0.932; 1" keySplines="0.333 0 0.667 1; 0.167 0 0.667 1; 0.333 0 0.667 1" fill="freeze" /><path fill="#6188ff" fill-opacity="1" d="M-21.13,-137.964L-73.078,-167.924L-73.078,-172.555L-21.13,-142.595L-21.13,-137.964Z" /></g><g id="Group 1" opacity="0"><animate repeatCount="indefinite" attributeName="opacity" dur="5.32s" begin="6.32s" calcMode="spline" values="0; 1; 1; 0" keyTimes="0; 0.068; 0.932; 1" keySplines="0.333 0 0.667 1; 0.167 0 0.667 1; 0.333 0 0.667 1" fill="freeze" /><path fill="#6188ff" fill-opacity="1" d="M120.564,-74.834L-49.712,-173.143L-49.712,-177.774L120.564,-79.465L120.564,-74.834Z" /></g><g id="Group 4" opacity="0"><animate repeatCount="indefinite" attributeName="opacity" dur="5.32s" begin="5.64s" calcMode="spline" values="0; 1; 1; 0" keyTimes="0; 0.068; 0.932; 1" keySplines="0.333 0 0.667 1; 0.167 0 0.667 1; 0.333 0 0.667 1" fill="freeze" /><path fill="#6188ff" fill-opacity="1" d="M100.572,-146.753L48.625,-176.714L48.625,-181.345L100.572,-151.385L100.572,-146.753Z" /></g><g id="Group 5" opacity="0"><animate repeatCount="indefinite" attributeName="opacity" dur="5.32s" begin="5.04s" calcMode="spline" values="0; 1; 1; 0" keyTimes="0; 0.068; 0.932; 1" keySplines="0.333 0 0.667 1; 0.167 0 0.667 1; 0.333 0 0.667 1" fill="freeze" /><path fill="#6188ff" fill-opacity="1" d="M194.588,-102.156L48.625,-186.361L48.625,-190.992L194.588,-106.787L194.588,-102.156Z" /></g></g></g></g><g id="Group 10"><g id="Group 2"><g id="Group 2"><path fill="#36e7f7" fill-opacity="1" d="M40.88,57.075L45.911,157.905C45.95,158.682,46.362,159.391,47.018,159.809L47.018,159.809C48.608,160.823,50.692,159.691,50.708,157.806L51.568,57.711C51.578,56.492,50.674,55.46,49.465,55.309L43.574,54.574C42.094,54.389,40.806,55.585,40.88,57.075Z" /></g><g id="Group 1"><path fill="#88f7ff" fill-opacity="1" d="M50.671,55.316L48.528,158.847C48.528,160.909,53.01,160.437,54.678,159.224L55.013,158.98C55.63,158.532,56.01,157.828,56.049,157.067L61.144,56.723C61.206,55.506,60.389,54.419,59.203,54.14L53.773,52.86C52.189,52.487,50.671,53.688,50.671,55.316Z" /></g></g><g id="Group 1"><g id="Group 3"><path fill="#0b246e" fill-opacity="1" d="M102.457,28.191L106.147,29.592L106.147,34.018L102.457,34.018L102.457,28.191Z" /></g><g id="Group 2"><path fill="#0b246e" fill-opacity="1" d="M-4.812,84.292L-169.303,-11.182L-74.323,-61.432C-67.873,-64.844,-60.12,-64.692,-53.809,-61.029L104.036,30.588C106.93,32.268,106.847,36.474,103.89,38.039L15.702,84.695C9.252,88.107,1.499,87.955,-4.812,84.292Z" /></g><g id="Group 1"><path fill="#88f7ff" fill-opacity="1" d="M-4.822,79.347L-169.313,-16.127L-74.333,-66.377C-67.883,-69.789,-60.13,-69.637,-53.819,-65.974L104.026,25.642C106.92,27.322,106.838,31.528,103.88,33.093L15.692,79.75C9.242,83.162,1.489,83.01,-4.822,79.347Z" /></g></g></g><g id="Group 9" transform="matrix(1,0,0,1,-10,0)"><g id="Group 4"><path fill="#d7ecfa" fill-opacity="1" d="M4.433,16.413L4.426,18.529L-23.759,34.908L-23.752,32.792L4.433,16.413Z" /></g><g id="Group 3"><path fill="#d7ecfa" fill-opacity="1" d="M-23.752,32.792L-23.759,34.908L-86.143,-1.109L-86.136,-3.225L-23.752,32.792Z" /></g><g id="Group 2"><path fill="#eef8fc" fill-opacity="1" d="M4.433,16.413L-23.752,32.792L-86.136,-3.225L-57.951,-19.604L4.433,16.413Z" /></g><g id="Group 1"><g id="Group 48"><g id="Group 3"><g id="Group 1"><path fill="#d7ecfa" fill-opacity="1" d="M-54.141,-15.482L-54.144,-14.242L-58.044,-11.975L-58.04,-13.216L-54.141,-15.482Z" /></g></g><g id="Group 2"><g id="Group 1"><path fill="#d7ecfa" fill-opacity="1" d="M-58.04,-13.216L-58.044,-11.975L-61.891,-14.197L-61.888,-15.437L-58.04,-13.216Z" /></g></g><g id="Group 1"><g id="Group 1"><path fill="#ffffff" fill-opacity="1" d="M-54.141,-15.482L-58.04,-13.216L-61.888,-15.437L-57.989,-17.703L-54.141,-15.482Z" /></g></g></g><g id="Group 47"><g id="Group 3"><g id="Group 1"><path fill="#d7ecfa" fill-opacity="1" d="M-49.205,-12.632L-49.209,-11.392L-53.109,-9.126L-53.105,-10.366L-49.205,-12.632Z" /></g></g><g id="Group 2"><g id="Group 1"><path fill="#d7ecfa" fill-opacity="1" d="M-53.105,-10.366L-53.109,-9.126L-56.956,-11.347L-56.952,-12.587L-53.105,-10.366Z" /></g></g><g id="Group 1"><g id="Group 1"><path fill="#ffffff" fill-opacity="1" d="M-49.205,-12.632L-53.105,-10.366L-56.952,-12.587L-53.053,-14.854L-49.205,-12.632Z" /></g></g></g><g id="Group 46"><g id="Group 3"><g id="Group 1"><path fill="#d7ecfa" fill-opacity="1" d="M-44.28,-9.788L-44.283,-8.548L-48.183,-6.282L-48.179,-7.522L-44.28,-9.788Z" /></g></g><g id="Group 2"><g id="Group 1"><path fill="#d7ecfa" fill-opacity="1" d="M-48.179,-7.522L-48.183,-6.282L-52.03,-8.503L-52.027,-9.743L-48.179,-7.522Z" /></g></g><g id="Group 1"><g id="Group 1"><path fill="#ffffff" fill-opacity="1" d="M-44.28,-9.788L-48.179,-7.522L-52.027,-9.743L-48.127,-12.01L-44.28,-9.788Z" /></g></g></g><g id="Group 45"><g id="Group 3"><g id="Group 1"><path fill="#d7ecfa" fill-opacity="1" d="M-39.354,-6.945L-39.357,-5.704L-43.257,-3.438L-43.254,-4.678L-39.354,-6.945Z" /></g></g><g id="Group 2"><g id="Group 1"><path fill="#d7ecfa" fill-opacity="1" d="M-43.254,-4.678L-43.257,-3.438L-47.104,-5.659L-47.101,-6.9L-43.254,-4.678Z" /></g></g><g id="Group 1"><g id="Group 1"><path fill="#ffffff" fill-opacity="1" d="M-39.354,-6.945L-43.254,-4.678L-47.101,-6.9L-43.201,-9.166L-39.354,-6.945Z" /></g></g></g><g id="Group 44"><g id="Group 3"><g id="Group 1"><path fill="#d7ecfa" fill-opacity="1" d="M-34.419,-4.095L-34.422,-2.855L-38.321,-0.588L-38.318,-1.829L-34.419,-4.095Z" /></g></g><g id="Group 2"><g id="Group 1"><path fill="#d7ecfa" fill-opacity="1" d="M-38.318,-1.829L-38.321,-0.588L-42.169,-2.81L-42.165,-4.05L-38.318,-1.829Z" /></g></g><g id="Group 1"><g id="Group 1"><path fill="#ffffff" fill-opacity="1" d="M-34.419,-4.095L-38.318,-1.829L-42.165,-4.05L-38.266,-6.316L-34.419,-4.095Z" /></g></g></g><g id="Group 43"><g id="Group 3"><g id="Group 1"><path fill="#d7ecfa" fill-opacity="1" d="M-29.492,-1.251L-29.496,-0.011L-33.396,2.255L-33.392,1.015L-29.492,-1.251Z" /></g></g><g id="Group 2"><g id="Group 1"><path fill="#d7ecfa" fill-opacity="1" d="M-33.392,1.015L-33.396,2.255L-37.243,0.034L-37.239,-1.206L-33.392,1.015Z" /></g></g><g id="Group 1"><g id="Group 1"><path fill="#ffffff" fill-opacity="1" d="M-29.492,-1.251L-33.392,1.015L-37.239,-1.206L-33.34,-3.473L-29.492,-1.251Z" /></g></g></g><g id="Group 42"><g id="Group 3"><g id="Group 1"><path fill="#d7ecfa" fill-opacity="1" d="M-24.567,1.593L-24.57,2.833L-28.47,5.1L-28.466,3.859L-24.567,1.593Z" /></g></g><g id="Group 2"><g id="Group 1"><path fill="#d7ecfa" fill-opacity="1" d="M-28.466,3.859L-28.47,5.1L-32.317,2.878L-32.314,1.638L-28.466,3.859Z" /></g></g><g id="Group 1"><g id="Group 1"><path fill="#ffffff" fill-opacity="1" d="M-24.567,1.593L-28.466,3.859L-32.314,1.638L-28.414,-0.628L-24.567,1.593Z" /></g></g></g><g id="Group 41"><g id="Group 3"><g id="Group 1"><path fill="#d7ecfa" fill-opacity="1" d="M-19.631,4.442L-19.635,5.683L-23.534,7.949L-23.531,6.708L-19.631,4.442Z" /></g></g><g id="Group 2"><g id="Group 1"><path fill="#d7ecfa" fill-opacity="1" d="M-23.531,6.708L-23.534,7.949L-27.391,5.722L-27.388,4.482L-23.531,6.708Z" /></g></g><g id="Group 1"><g id="Group 1"><path fill="#ffffff" fill-opacity="1" d="M-19.631,4.442L-23.531,6.708L-27.388,4.482L-23.488,2.215L-19.631,4.442Z" /></g></g></g><g id="Group 40"><g id="Group 3"><g id="Group 1"><path fill="#d7ecfa" fill-opacity="1" d="M-14.705,7.286L-14.709,8.527L-18.609,10.793L-18.605,9.552L-14.705,7.286Z" /></g></g><g id="Group 2"><g id="Group 1"><path fill="#d7ecfa" fill-opacity="1" d="M-18.605,9.552L-18.609,10.793L-22.456,8.572L-22.452,7.331L-18.605,9.552Z" /></g></g><g id="Group 1"><g id="Group 1"><path fill="#ffffff" fill-opacity="1" d="M-14.705,7.286L-18.605,9.552L-22.452,7.331L-18.553,5.065L-14.705,7.286Z" /></g></g></g><g id="Group 39"><g id="Group 3"><g id="Group 1"><path fill="#d7ecfa" fill-opacity="1" d="M-9.78,10.13L-9.783,11.371L-13.683,13.637L-13.679,12.396L-9.78,10.13Z" /></g></g><g id="Group 2"><g id="Group 1"><path fill="#d7ecfa" fill-opacity="1" d="M-13.679,12.396L-13.683,13.637L-17.53,11.415L-17.527,10.175L-13.679,12.396Z" /></g></g><g id="Group 1"><g id="Group 1"><path fill="#ffffff" fill-opacity="1" d="M-9.78,10.13L-13.679,12.396L-17.527,10.175L-13.627,7.909L-9.78,10.13Z" /></g></g></g><g id="Group 38"><g id="Group 3"><g id="Group 1"><path fill="#d7ecfa" fill-opacity="1" d="M0.082,15.824L0.078,17.064L-3.822,19.33L-3.818,18.09L0.082,15.824Z" /></g></g><g id="Group 2"><g id="Group 1"><path fill="#d7ecfa" fill-opacity="1" d="M-3.818,18.09L-3.822,19.33L-12.604,14.26L-12.601,13.019L-3.818,18.09Z" /></g></g><g id="Group 1"><g id="Group 1"><path fill="#ffffff" fill-opacity="1" d="M0.082,15.824L-3.818,18.09L-12.601,13.019L-8.701,10.753L0.082,15.824Z" /></g></g></g><g id="Group 37"><g id="Group 3"><g id="Group 1"><path fill="#d7ecfa" fill-opacity="1" d="M-54.176,-9.743L-54.18,-8.503L-58.079,-6.237L-58.076,-7.477L-54.176,-9.743Z" /></g></g><g id="Group 2"><g id="Group 1"><path fill="#d7ecfa" fill-opacity="1" d="M-58.076,-7.477L-58.079,-6.237L-66.862,-11.308L-66.859,-12.548L-58.076,-7.477Z" /></g></g><g id="Group 1"><g id="Group 1"><path fill="#ffffff" fill-opacity="1" d="M-54.176,-9.743L-58.076,-7.477L-66.859,-12.548L-62.959,-14.814L-54.176,-9.743Z" /></g></g></g><g id="Group 36"><g id="Group 3"><g id="Group 1"><path fill="#d7ecfa" fill-opacity="1" d="M-49.251,-6.9L-49.254,-5.659L-53.154,-3.393L-53.15,-4.633L-49.251,-6.9Z" /></g></g><g id="Group 2"><g id="Group 1"><path fill="#d7ecfa" fill-opacity="1" d="M-53.15,-4.633L-53.154,-3.393L-57.001,-5.614L-56.997,-6.855L-53.15,-4.633Z" /></g></g><g id="Group 1"><g id="Group 1"><path fill="#ffffff" fill-opacity="1" d="M-49.251,-6.9L-53.15,-4.633L-56.997,-6.855L-53.098,-9.121L-49.251,-6.9Z" /></g></g></g><g id="Group 35"><g id="Group 3"><g id="Group 1"><path fill="#d7ecfa" fill-opacity="1" d="M-44.325,-4.056L-44.328,-2.815L-48.228,-0.549L-48.224,-1.79L-44.325,-4.056Z" /></g></g><g id="Group 2"><g id="Group 1"><path fill="#d7ecfa" fill-opacity="1" d="M-48.224,-1.79L-48.228,-0.549L-52.075,-2.77L-52.072,-4.011L-48.224,-1.79Z" /></g></g><g id="Group 1"><g id="Group 1"><path fill="#ffffff" fill-opacity="1" d="M-44.325,-4.056L-48.224,-1.79L-52.072,-4.011L-48.172,-6.277L-44.325,-4.056Z" /></g></g></g><g id="Group 34"><g id="Group 3"><g id="Group 1"><path fill="#d7ecfa" fill-opacity="1" d="M-39.389,-1.206L-39.393,0.034L-43.292,2.301L-43.289,1.06L-39.389,-1.206Z" /></g></g><g id="Group 2"><g id="Group 1"><path fill="#d7ecfa" fill-opacity="1" d="M-43.289,1.06L-43.292,2.301L-47.14,0.079L-47.136,-1.161L-43.289,1.06Z" /></g></g><g id="Group 1"><g id="Group 1"><path fill="#ffffff" fill-opacity="1" d="M-39.389,-1.206L-43.289,1.06L-47.136,-1.161L-43.237,-3.428L-39.389,-1.206Z" /></g></g></g><g id="Group 33"><g id="Group 3"><g id="Group 1"><path fill="#d7ecfa" fill-opacity="1" d="M-34.464,1.638L-34.467,2.878L-38.367,5.144L-38.363,3.904L-34.464,1.638Z" /></g></g><g id="Group 2"><g id="Group 1"><path fill="#d7ecfa" fill-opacity="1" d="M-38.363,3.904L-38.367,5.144L-42.214,2.923L-42.211,1.683L-38.363,3.904Z" /></g></g><g id="Group 1"><g id="Group 1"><path fill="#ffffff" fill-opacity="1" d="M-34.464,1.638L-38.363,3.904L-42.211,1.683L-38.311,-0.583L-34.464,1.638Z" /></g></g></g><g id="Group 32"><g id="Group 3"><g id="Group 1"><path fill="#d7ecfa" fill-opacity="1" d="M-29.538,4.482L-29.541,5.722L-33.441,7.988L-33.437,6.748L-29.538,4.482Z" /></g></g><g id="Group 2"><g id="Group 1"><path fill="#d7ecfa" fill-opacity="1" d="M-33.437,6.748L-33.441,7.988L-37.288,5.767L-37.285,4.527L-33.437,6.748Z" /></g></g><g id="Group 1"><g id="Group 1"><path fill="#ffffff" fill-opacity="1" d="M-29.538,4.482L-33.437,6.748L-37.285,4.527L-33.385,2.26L-29.538,4.482Z" /></g></g></g><g id="Group 31"><g id="Group 3"><g id="Group 1"><path fill="#d7ecfa" fill-opacity="1" d="M-24.602,7.331L-24.606,8.572L-28.505,10.838L-28.502,9.597L-24.602,7.331Z" /></g></g><g id="Group 2"><g id="Group 1"><path fill="#d7ecfa" fill-opacity="1" d="M-28.502,9.597L-28.505,10.838L-32.362,8.611L-32.359,7.37L-28.502,9.597Z" /></g></g><g id="Group 1"><g id="Group 1"><path fill="#ffffff" fill-opacity="1" d="M-24.602,7.331L-28.502,9.597L-32.359,7.37L-28.459,5.104L-24.602,7.331Z" /></g></g></g><g id="Group 30"><g id="Group 3"><g id="Group 1"><path fill="#d7ecfa" fill-opacity="1" d="M-19.676,10.175L-19.68,11.415L-23.58,13.682L-23.576,12.441L-19.676,10.175Z" /></g></g><g id="Group 2"><g id="Group 1"><path fill="#d7ecfa" fill-opacity="1" d="M-23.576,12.441L-23.58,13.682L-27.427,11.46L-27.423,10.22L-23.576,12.441Z" /></g></g><g id="Group 1"><g id="Group 1"><path fill="#ffffff" fill-opacity="1" d="M-19.676,10.175L-23.576,12.441L-27.423,10.22L-23.524,7.954L-19.676,10.175Z" /></g></g></g><g id="Group 29"><g id="Group 3"><g id="Group 1"><path fill="#d7ecfa" fill-opacity="1" d="M-14.751,13.019L-14.754,14.26L-18.654,16.526L-18.65,15.285L-14.751,13.019Z" /></g></g><g id="Group 2"><g id="Group 1"><path fill="#d7ecfa" fill-opacity="1" d="M-18.65,15.285L-18.654,16.526L-22.501,14.304L-22.498,13.064L-18.65,15.285Z" /></g></g><g id="Group 1"><g id="Group 1"><path fill="#ffffff" fill-opacity="1" d="M-14.751,13.019L-18.65,15.285L-22.498,13.064L-18.598,10.798L-14.751,13.019Z" /></g></g></g><g id="Group 28"><g id="Group 3"><g id="Group 1"><path fill="#d7ecfa" fill-opacity="1" d="M-9.815,15.868L-9.819,17.109L-13.718,19.375L-13.715,18.135L-9.815,15.868Z" /></g></g><g id="Group 2"><g id="Group 1"><path fill="#d7ecfa" fill-opacity="1" d="M-13.715,18.135L-13.718,19.375L-17.575,17.148L-17.572,15.908L-13.715,18.135Z" /></g></g><g id="Group 1"><g id="Group 1"><path fill="#ffffff" fill-opacity="1" d="M-9.815,15.868L-13.715,18.135L-17.572,15.908L-13.672,13.642L-9.815,15.868Z" /></g></g></g><g id="Group 27"><g id="Group 3"><g id="Group 1"><path fill="#d7ecfa" fill-opacity="1" d="M-4.889,18.712L-4.893,19.953L-8.792,22.219L-8.789,20.979L-4.889,18.712Z" /></g></g><g id="Group 2"><g id="Group 1"><path fill="#d7ecfa" fill-opacity="1" d="M-8.789,20.979L-8.792,22.219L-12.64,19.998L-12.636,18.757L-8.789,20.979Z" /></g></g><g id="Group 1"><g id="Group 1"><path fill="#ffffff" fill-opacity="1" d="M-4.889,18.712L-8.789,20.979L-12.636,18.757L-8.737,16.491L-4.889,18.712Z" /></g></g></g><g id="Group 26"><g id="Group 3"><g id="Group 1"><path fill="#d7ecfa" fill-opacity="1" d="M-59.148,-6.855L-59.151,-5.614L-63.05,-3.348L-63.047,-4.589L-59.148,-6.855Z" /></g></g><g id="Group 2"><g id="Group 1"><path fill="#d7ecfa" fill-opacity="1" d="M-63.047,-4.589L-63.05,-3.348L-71.833,-8.419L-71.83,-9.659L-63.047,-4.589Z" /></g></g><g id="Group 1"><g id="Group 1"><path fill="#ffffff" fill-opacity="1" d="M-59.148,-6.855L-63.047,-4.589L-71.83,-9.659L-67.93,-11.926L-59.148,-6.855Z" /></g></g></g><g id="Group 25"><g id="Group 3"><g id="Group 1"><path fill="#d7ecfa" fill-opacity="1" d="M-54.222,-4.011L-54.225,-2.77L-58.125,-0.504L-58.121,-1.745L-54.222,-4.011Z" /></g></g><g id="Group 2"><g id="Group 1"><path fill="#d7ecfa" fill-opacity="1" d="M-58.121,-1.745L-58.125,-0.504L-61.972,-2.725L-61.969,-3.966L-58.121,-1.745Z" /></g></g><g id="Group 1"><g id="Group 1"><path fill="#ffffff" fill-opacity="1" d="M-54.222,-4.011L-58.121,-1.745L-61.969,-3.966L-58.069,-6.232L-54.222,-4.011Z" /></g></g></g><g id="Group 24"><g id="Group 3"><g id="Group 1"><path fill="#d7ecfa" fill-opacity="1" d="M-49.296,-1.167L-49.299,0.074L-53.199,2.34L-53.196,1.099L-49.296,-1.167Z" /></g></g><g id="Group 2"><g id="Group 1"><path fill="#d7ecfa" fill-opacity="1" d="M-53.196,1.099L-53.199,2.34L-57.046,0.118L-57.043,-1.122L-53.196,1.099Z" /></g></g><g id="Group 1"><g id="Group 1"><path fill="#ffffff" fill-opacity="1" d="M-49.296,-1.167L-53.196,1.099L-57.043,-1.122L-53.143,-3.388L-49.296,-1.167Z" /></g></g></g><g id="Group 23"><g id="Group 3"><g id="Group 1"><path fill="#d7ecfa" fill-opacity="1" d="M-44.36,1.683L-44.364,2.923L-48.263,5.189L-48.26,3.949L-44.36,1.683Z" /></g></g><g id="Group 2"><g id="Group 1"><path fill="#d7ecfa" fill-opacity="1" d="M-48.26,3.949L-48.263,5.189L-52.111,2.968L-52.107,1.727L-48.26,3.949Z" /></g></g><g id="Group 1"><g id="Group 1"><path fill="#ffffff" fill-opacity="1" d="M-44.36,1.683L-48.26,3.949L-52.107,1.727L-48.208,-0.539L-44.36,1.683Z" /></g></g></g><g id="Group 22"><g id="Group 3"><g id="Group 1"><path fill="#d7ecfa" fill-opacity="1" d="M-39.435,4.527L-39.438,5.767L-43.338,8.033L-43.334,6.793L-39.435,4.527Z" /></g></g><g id="Group 2"><g id="Group 1"><path fill="#d7ecfa" fill-opacity="1" d="M-43.334,6.793L-43.338,8.033L-47.185,5.812L-47.181,4.571L-43.334,6.793Z" /></g></g><g id="Group 1"><g id="Group 1"><path fill="#ffffff" fill-opacity="1" d="M-39.435,4.527L-43.334,6.793L-47.181,4.571L-43.282,2.305L-39.435,4.527Z" /></g></g></g><g id="Group 21"><g id="Group 3"><g id="Group 1"><path fill="#d7ecfa" fill-opacity="1" d="M-34.509,7.37L-34.512,8.611L-38.412,10.877L-38.408,9.637L-34.509,7.37Z" /></g></g><g id="Group 2"><g id="Group 1"><path fill="#d7ecfa" fill-opacity="1" d="M-38.408,9.637L-38.412,10.877L-42.259,8.656L-42.256,7.415L-38.408,9.637Z" /></g></g><g id="Group 1"><g id="Group 1"><path fill="#ffffff" fill-opacity="1" d="M-34.509,7.37L-38.408,9.637L-42.256,7.415L-38.356,5.149L-34.509,7.37Z" /></g></g></g><g id="Group 20"><g id="Group 3"><g id="Group 1"><path fill="#d7ecfa" fill-opacity="1" d="M-29.573,10.22L-29.577,11.46L-33.476,13.727L-33.473,12.486L-29.573,10.22Z" /></g></g><g id="Group 2"><g id="Group 1"><path fill="#d7ecfa" fill-opacity="1" d="M-33.473,12.486L-33.476,13.727L-37.333,11.5L-37.33,10.259L-33.473,12.486Z" /></g></g><g id="Group 1"><g id="Group 1"><path fill="#ffffff" fill-opacity="1" d="M-29.573,10.22L-33.473,12.486L-37.33,10.259L-33.43,7.993L-29.573,10.22Z" /></g></g></g><g id="Group 19"><g id="Group 3"><g id="Group 1"><path fill="#d7ecfa" fill-opacity="1" d="M-24.647,13.064L-24.651,14.305L-28.55,16.57L-28.547,15.33L-24.647,13.064Z" /></g></g><g id="Group 2"><g id="Group 1"><path fill="#d7ecfa" fill-opacity="1" d="M-28.547,15.33L-28.55,16.57L-32.398,14.349L-32.394,13.109L-28.547,15.33Z" /></g></g><g id="Group 1"><g id="Group 1"><path fill="#ffffff" fill-opacity="1" d="M-24.647,13.064L-28.547,15.33L-32.394,13.109L-28.495,10.843L-24.647,13.064Z" /></g></g></g><g id="Group 18"><g id="Group 3"><g id="Group 1"><path fill="#d7ecfa" fill-opacity="1" d="M-19.722,15.908L-19.725,17.148L-23.625,19.414L-23.621,18.174L-19.722,15.908Z" /></g></g><g id="Group 2"><g id="Group 1"><path fill="#d7ecfa" fill-opacity="1" d="M-23.621,18.174L-23.625,19.414L-27.472,17.193L-27.469,15.953L-23.621,18.174Z" /></g></g><g id="Group 1"><g id="Group 1"><path fill="#ffffff" fill-opacity="1" d="M-19.722,15.908L-23.621,18.174L-27.469,15.953L-23.569,13.686L-19.722,15.908Z" /></g></g></g><g id="Group 17"><g id="Group 3"><g id="Group 1"><path fill="#d7ecfa" fill-opacity="1" d="M-9.86,21.601L-9.864,22.842L-13.763,25.108L-13.76,23.867L-9.86,21.601Z" /></g></g><g id="Group 2"><g id="Group 1"><path fill="#d7ecfa" fill-opacity="1" d="M-13.76,23.867L-13.763,25.108L-22.546,20.037L-22.543,18.797L-13.76,23.867Z" /></g></g><g id="Group 1"><g id="Group 1"><path fill="#ffffff" fill-opacity="1" d="M-9.86,21.601L-13.76,23.867L-22.543,18.797L-18.643,16.53L-9.86,21.601Z" /></g></g></g><g id="Group 16"><g id="Group 3"><g id="Group 1"><path fill="#d7ecfa" fill-opacity="1" d="M-59.202,-1.116L-59.206,0.124L-63.105,2.39L-63.102,1.15L-59.202,-1.116Z" /></g></g><g id="Group 2"><g id="Group 1"><path fill="#d7ecfa" fill-opacity="1" d="M-63.102,1.15L-63.105,2.39L-76.814,-5.525L-76.811,-6.765L-63.102,1.15Z" /></g></g><g id="Group 1"><g id="Group 1"><path fill="#ffffff" fill-opacity="1" d="M-59.202,-1.116L-63.102,1.15L-76.811,-6.765L-72.911,-9.031L-59.202,-1.116Z" /></g></g></g><g id="Group 15"><g id="Group 3"><g id="Group 1"><path fill="#d7ecfa" fill-opacity="1" d="M-54.277,1.727L-54.28,2.968L-58.18,5.234L-58.176,3.994L-54.277,1.727Z" /></g></g><g id="Group 2"><g id="Group 1"><path fill="#d7ecfa" fill-opacity="1" d="M-58.176,3.994L-58.18,5.234L-62.027,3.013L-62.023,1.773L-58.176,3.994Z" /></g></g><g id="Group 1"><g id="Group 1"><path fill="#ffffff" fill-opacity="1" d="M-54.277,1.727L-58.176,3.994L-62.023,1.773L-58.124,-0.494L-54.277,1.727Z" /></g></g></g><g id="Group 14"><g id="Group 3"><g id="Group 1"><path fill="#d7ecfa" fill-opacity="1" d="M-49.341,4.577L-49.344,5.818L-53.244,8.084L-53.24,6.843L-49.341,4.577Z" /></g></g><g id="Group 2"><g id="Group 1"><path fill="#d7ecfa" fill-opacity="1" d="M-53.24,6.843L-53.244,8.084L-57.091,5.862L-57.088,4.622L-53.24,6.843Z" /></g></g><g id="Group 1"><g id="Group 1"><path fill="#ffffff" fill-opacity="1" d="M-49.341,4.577L-53.24,6.843L-57.088,4.622L-53.188,2.356L-49.341,4.577Z" /></g></g></g><g id="Group 13"><g id="Group 3"><g id="Group 1"><path fill="#d7ecfa" fill-opacity="1" d="M-44.415,7.421L-44.419,8.661L-48.318,10.928L-48.315,9.687L-44.415,7.421Z" /></g></g><g id="Group 2"><g id="Group 1"><path fill="#d7ecfa" fill-opacity="1" d="M-48.315,9.687L-48.318,10.928L-52.166,8.706L-52.162,7.466L-48.315,9.687Z" /></g></g><g id="Group 1"><g id="Group 1"><path fill="#ffffff" fill-opacity="1" d="M-44.415,7.421L-48.315,9.687L-52.162,7.466L-48.262,5.2L-44.415,7.421Z" /></g></g></g><g id="Group 12"><g id="Group 3"><g id="Group 1"><path fill="#d7ecfa" fill-opacity="1" d="M-39.489,10.265L-39.493,11.505L-43.392,13.772L-43.389,12.531L-39.489,10.265Z" /></g></g><g id="Group 2"><g id="Group 1"><path fill="#d7ecfa" fill-opacity="1" d="M-43.389,12.531L-43.392,13.772L-47.24,11.55L-47.236,10.31L-43.389,12.531Z" /></g></g><g id="Group 1"><g id="Group 1"><path fill="#ffffff" fill-opacity="1" d="M-39.489,10.265L-43.389,12.531L-47.236,10.31L-43.337,8.044L-39.489,10.265Z" /></g></g></g><g id="Group 11"><g id="Group 3"><g id="Group 1"><path fill="#d7ecfa" fill-opacity="1" d="M-34.554,13.115L-34.557,14.355L-38.457,16.621L-38.454,15.381L-34.554,13.115Z" /></g></g><g id="Group 2"><g id="Group 1"><path fill="#d7ecfa" fill-opacity="1" d="M-38.454,15.381L-38.457,16.621L-42.314,14.394L-42.31,13.154L-38.454,15.381Z" /></g></g><g id="Group 1"><g id="Group 1"><path fill="#ffffff" fill-opacity="1" d="M-34.554,13.115L-38.454,15.381L-42.31,13.154L-38.411,10.887L-34.554,13.115Z" /></g></g></g><g id="Group 10"><g id="Group 3"><g id="Group 1"><path fill="#d7ecfa" fill-opacity="1" d="M-29.628,15.958L-29.632,17.199L-33.531,19.465L-33.528,18.225L-29.628,15.958Z" /></g></g><g id="Group 2"><g id="Group 1"><path fill="#d7ecfa" fill-opacity="1" d="M-33.528,18.225L-33.531,19.465L-37.379,17.244L-37.375,16.003L-33.528,18.225Z" /></g></g><g id="Group 1"><g id="Group 1"><path fill="#ffffff" fill-opacity="1" d="M-29.628,15.958L-33.528,18.225L-37.375,16.003L-33.475,13.737L-29.628,15.958Z" /></g></g></g><g id="Group 9"><g id="Group 3"><g id="Group 1"><path fill="#d7ecfa" fill-opacity="1" d="M-24.702,18.802L-24.706,20.043L-28.605,22.309L-28.602,21.068L-24.702,18.802Z" /></g></g><g id="Group 2"><g id="Group 1"><path fill="#d7ecfa" fill-opacity="1" d="M-28.602,21.068L-28.605,22.309L-32.453,20.087L-32.449,18.847L-28.602,21.068Z" /></g></g><g id="Group 1"><g id="Group 1"><path fill="#ffffff" fill-opacity="1" d="M-24.702,18.802L-28.602,21.068L-32.449,18.847L-28.55,16.581L-24.702,18.802Z" /></g></g></g><g id="Group 8"><g id="Group 3"><g id="Group 1"><path fill="#d7ecfa" fill-opacity="1" d="M-14.841,24.496L-14.844,25.736L-18.744,28.002L-18.741,26.762L-14.841,24.496Z" /></g></g><g id="Group 2"><g id="Group 1"><path fill="#d7ecfa" fill-opacity="1" d="M-18.741,26.762L-18.744,28.002L-27.527,22.932L-27.523,21.691L-18.741,26.762Z" /></g></g><g id="Group 1"><g id="Group 1"><path fill="#ffffff" fill-opacity="1" d="M-14.841,24.496L-18.741,26.762L-27.523,21.691L-23.624,19.425L-14.841,24.496Z" /></g></g></g><g id="Group 7"><g id="Group 3"><g id="Group 1"><path fill="#d7ecfa" fill-opacity="1" d="M-74.035,-3.921L-74.038,-2.68L-77.938,-0.414L-77.934,-1.655L-74.035,-3.921Z" /></g></g><g id="Group 2"><g id="Group 1"><path fill="#d7ecfa" fill-opacity="1" d="M-77.934,-1.655L-77.938,-0.414L-81.785,-2.636L-81.781,-3.876L-77.934,-1.655Z" /></g></g><g id="Group 1"><g id="Group 1"><path fill="#ffffff" fill-opacity="1" d="M-74.035,-3.921L-77.934,-1.655L-81.781,-3.876L-77.882,-6.142L-74.035,-3.921Z" /></g></g></g><g id="Group 6"><g id="Group 3"><g id="Group 1"><path fill="#d7ecfa" fill-opacity="1" d="M-69.099,-1.072L-69.103,0.169L-73.002,2.435L-72.999,1.195L-69.099,-1.072Z" /></g></g><g id="Group 2"><g id="Group 1"><path fill="#d7ecfa" fill-opacity="1" d="M-72.999,1.195L-73.002,2.435L-76.85,0.214L-76.846,-1.027L-72.999,1.195Z" /></g></g><g id="Group 1"><g id="Group 1"><path fill="#ffffff" fill-opacity="1" d="M-69.099,-1.072L-72.999,1.195L-76.846,-1.027L-72.946,-3.293L-69.099,-1.072Z" /></g></g></g><g id="Group 5"><g id="Group 3"><g id="Group 1"><path fill="#d7ecfa" fill-opacity="1" d="M-64.173,1.773L-64.177,3.013L-68.076,5.279L-68.073,4.039L-64.173,1.773Z" /></g></g><g id="Group 2"><g id="Group 1"><path fill="#d7ecfa" fill-opacity="1" d="M-68.073,4.039L-68.076,5.279L-71.924,3.058L-71.92,1.817L-68.073,4.039Z" /></g></g><g id="Group 1"><g id="Group 1"><path fill="#ffffff" fill-opacity="1" d="M-64.173,1.773L-68.073,4.039L-71.92,1.817L-68.021,-0.449L-64.173,1.773Z" /></g></g></g><g id="Group 4"><g id="Group 3"><g id="Group 1"><path fill="#d7ecfa" fill-opacity="1" d="M-39.525,16.003L-39.528,17.244L-43.428,19.51L-43.424,18.269L-39.525,16.003Z" /></g></g><g id="Group 2"><g id="Group 1"><path fill="#d7ecfa" fill-opacity="1" d="M-43.424,18.269L-43.428,19.51L-66.998,5.902L-66.995,4.661L-43.424,18.269Z" /></g></g><g id="Group 1"><g id="Group 1"><path fill="#ffffff" fill-opacity="1" d="M-39.525,16.003L-43.424,18.269L-66.995,4.661L-63.095,2.395L-39.525,16.003Z" /></g></g></g><g id="Group 3"><g id="Group 3"><g id="Group 1"><path fill="#d7ecfa" fill-opacity="1" d="M-34.599,18.847L-34.602,20.087L-38.502,22.354L-38.499,21.113L-34.599,18.847Z" /></g></g><g id="Group 2"><g id="Group 1"><path fill="#d7ecfa" fill-opacity="1" d="M-38.499,21.113L-38.502,22.354L-42.35,20.133L-42.346,18.892L-38.499,21.113Z" /></g></g><g id="Group 1"><g id="Group 1"><path fill="#ffffff" fill-opacity="1" d="M-34.599,18.847L-38.499,21.113L-42.346,18.892L-38.446,16.626L-34.599,18.847Z" /></g></g></g><g id="Group 2"><g id="Group 3"><g id="Group 1"><path fill="#d7ecfa" fill-opacity="1" d="M-29.673,21.691L-29.677,22.932L-33.576,25.198L-33.573,23.957L-29.673,21.691Z" /></g></g><g id="Group 2"><g id="Group 1"><path fill="#d7ecfa" fill-opacity="1" d="M-33.573,23.957L-33.576,25.198L-37.424,22.977L-37.42,21.736L-33.573,23.957Z" /></g></g><g id="Group 1"><g id="Group 1"><path fill="#ffffff" fill-opacity="1" d="M-29.673,21.691L-33.573,23.957L-37.42,21.736L-33.521,19.47L-29.673,21.691Z" /></g></g></g><g id="Group 1"><g id="Group 3"><g id="Group 1"><path fill="#d7ecfa" fill-opacity="1" d="M-19.812,27.385L-19.816,28.625L-23.715,30.891L-23.712,29.651L-19.812,27.385Z" /></g></g><g id="Group 2"><g id="Group 1"><path fill="#d7ecfa" fill-opacity="1" d="M-23.712,29.651L-23.715,30.891L-32.498,25.82L-32.494,24.58L-23.712,29.651Z" /></g></g><g id="Group 1"><g id="Group 1"><path fill="#ffffff" fill-opacity="1" d="M-19.812,27.385L-23.712,29.651L-32.494,24.58L-28.595,22.314L-19.812,27.385Z" /></g></g></g></g></g><g id="Group 8"><g id="Group 5"><path fill="#fb9039" fill-opacity="1" d="M27.998,49.878C22.801,52.878,14.377,52.878,9.18,49.878C3.983,46.878,3.983,42.013,9.18,39.013C14.377,36.013,22.801,36.013,27.998,39.013C33.195,42.013,33.195,46.878,27.998,49.878Z" /></g><g id="Group 4"><path fill="#fb9039" fill-opacity="1" d="M31.896,44.445L5.283,44.445L5.283,22.197L31.896,22.197L31.896,44.445Z" /></g><g id="Group 3"><path fill="#ffffff" fill-opacity="1" d="M27.999,27.629C22.802,30.629,14.377,30.629,9.18,27.629C3.983,24.629,3.983,19.764,9.18,16.764C14.377,13.764,22.802,13.764,27.999,16.764C33.196,19.764,33.195,24.629,27.999,27.629Z" /></g><g id="Group 2"><path fill="#ebebeb" fill-opacity="1" d="M28.71,23.85C28.19,24.57,27.37,25.25,26.24,25.83C22.1,27.95,15.4,27.95,11.26,25.83C10.13,25.25,9.31,24.57,8.8,23.85C7.43,21.93,8.25,19.69,11.26,18.15C15.4,16.03,22.1,16.03,26.24,18.15C29.25,19.69,30.07,21.93,28.71,23.85Z" /></g><g id="Group 1"><path fill="#544438" fill-opacity="1" d="M28.71,23.85C28.19,24.57,27.37,25.25,26.24,25.83C22.1,27.95,15.4,27.95,11.26,25.83C10.13,25.25,9.31,24.57,8.8,23.85C9.31,23.13,10.13,22.45,11.26,21.87C15.4,19.75,22.1,19.75,26.24,21.87C27.37,22.45,28.19,23.13,28.71,23.85Z" /></g></g><g id="Group 7"><g id="Group 2"><path fill="#ffffff" fill-opacity="1" d="M-80.757,-17.255L-113.213,-35.993L-67.312,-62.494L-34.856,-43.756L-80.757,-17.255Z" /></g><g id="Group 1"><path fill="#4661ad" fill-opacity="1" d="M-80.105,-23.602L-109.412,-40.522L-67.964,-64.452L-38.657,-47.532L-80.105,-23.602Z" /></g></g><g id="Group 6"><g id="Group 3"><path fill="#051622" fill-opacity="1" d="M-11.52,3.116L-32.692,-9.108C-34.055,-9.895,-34.055,-11.861,-32.692,-12.648L-8.585,-26.566L18.59,-10.877L-5.647,3.116C-7.464,4.165,-9.703,4.165,-11.52,3.116Z" /></g><g id="Group 4"><path fill="#051622" fill-opacity="1" d="M-45.987,-121.999L-49.084,-119.905L-46.073,-43.297L52.196,16.804L55.009,14.916C55.446,14.623,55.708,14.13,55.708,13.604L55.708,-62.419C55.708,-63.282,55.248,-64.079,54.501,-64.51L-45.102,-122.03C-45.379,-122.19,-45.722,-122.178,-45.987,-121.999Z" /></g><g id="Group 30"><path fill="#fb9039" fill-opacity="1" d="M50.989,-62.594C51.92,-62.056,52.493,-61.063,52.493,-59.988L52.493,16.016C52.493,16.703,51.75,17.132,51.155,16.789L-46.914,-39.838C-48.383,-40.686,-49.288,-42.255,-49.288,-43.952L-49.288,-119.401C-49.288,-119.887,-48.761,-120.192,-48.34,-119.949" /></g><g id="Group 29"><path fill="#ffffff" fill-opacity="1" d="M-49.288,-55.726L-49.288,-116.662L52.363,-57.953L52.493,3.046L-49.288,-55.726Z" /></g><g id="Group 27" transform="matrix(1,0.577,0,1,0,22.409)"><path stroke-linejoin="miter" stroke-linecap="butt" stroke-width="2" stroke-opacity="1" stroke="#fb9039" d="M-38.166,-102.283L41.887,-102.283" /></g></g><g><g transform="translate(4.749,-140.635)"><animateTransform repeatCount="indefinite" type="translate" attributeName="transform" dur="9.96s" begin="5s" calcMode="spline" values="4.749 -140.635; 44.749 -119.635; 4.749 -140.635; 44.749 -119.635; 4.749 -140.635" keyTimes="0; 0.249; 0.518; 0.755; 1" keySplines="0.333 0 0.667 1; 0.333 0 0.667 1; 0.333 0 0.667 1; 0.333 0 0.667 1" fill="freeze" /><g id="Group 5" transform="translate(-44.749,119.635)"><g id="Group 2"><path fill="#f3a15e" fill-opacity="1" d="M85.873,-79.594L8.01,-123.904L8.01,-162.413L85.873,-118.103L85.873,-79.594Z" /></g><g id="Group 1"><g id="Group 4"><path fill="#0b246e" fill-opacity="1" d="M28.705,-140.847L28.705,-121.654L26.24,-123.077L26.24,-131.725L17.57,-136.73L17.57,-128.083L15.093,-129.513L15.093,-148.706L17.57,-147.276L17.57,-138.802L26.24,-133.796L26.24,-142.27L28.705,-140.847Z" /></g><g id="Group 3"><path fill="#0b246e" fill-opacity="1" d="M44.147,-129.552L38.869,-132.6L38.869,-115.786L36.414,-117.203L36.414,-134.017L31.113,-137.077L31.113,-139.457L44.147,-131.931L44.147,-129.552Z" /></g><g id="Group 2"><path fill="#0b246e" fill-opacity="1" d="M64.021,-120.457L64.021,-101.264L61.868,-102.507L61.868,-116.167C61.868,-116.372,61.873,-116.587,61.885,-116.812C61.897,-117.037,61.911,-117.265,61.926,-117.497L56.393,-108.969C56.2,-108.644,55.903,-108.597,55.501,-108.829L55.154,-109.03C54.753,-109.262,54.46,-109.649,54.275,-110.192L48.637,-125.209C48.684,-124.683,48.707,-124.201,48.707,-123.765L48.707,-110.106L46.542,-111.355L46.542,-130.548L48.371,-129.493C48.587,-129.368,48.754,-129.246,48.874,-129.128C48.994,-129.01,49.108,-128.809,49.216,-128.524L54.772,-113.821C54.88,-113.527,54.98,-113.224,55.073,-112.912C55.166,-112.6,55.254,-112.291,55.339,-111.984C55.501,-112.416,55.691,-112.815,55.907,-113.18L61.358,-121.513C61.459,-121.678,61.568,-121.75,61.688,-121.73C61.808,-121.71,61.976,-121.638,62.192,-121.513L64.021,-120.457Z" /></g><g id="Group 1"><path fill="#0b246e" fill-opacity="1" d="M77.645,-95.79L77.645,-93.398L68.131,-98.891L68.131,-118.085L70.596,-116.661L70.596,-99.86L77.645,-95.79Z" /></g></g></g></g></g><g><g transform="translate(-94.155,-107.548)"><animateTransform repeatCount="indefinite" type="translate" attributeName="transform" dur="9.96s" begin="5s" calcMode="spline" values="-94.155 -107.548; -114.155 -120.548; -94.155 -107.548; -114.155 -120.548; -94.155 -107.548" keyTimes="0; 0.181; 0.502; 0.811; 1" keySplines="0.333 0 0.36 1; 0.333 0 0.36 1; 0.333 0 0.36 1; 0.333 0 0.36 1" fill="freeze" /><g id="Group 4" transform="translate(114.155,120.548)"><g id="Group 2"><path fill="#051622" fill-opacity="1" d="M-82.848,-84.665L-143.152,-118.353L-143.152,-156.863L-82.848,-123.174L-82.848,-84.665Z" /></g><g id="Group 1"><g id="Group 3"><path fill="#36e7f7" fill-opacity="1" d="M-120.923,-119.728C-120.784,-119.648,-120.665,-119.517,-120.564,-119.334L-119.591,-117.542C-120.271,-117.007,-121.098,-116.768,-122.074,-116.824C-123.05,-116.88,-124.225,-117.304,-125.599,-118.097C-126.803,-118.792,-127.893,-119.662,-128.869,-120.707C-129.845,-121.752,-130.678,-122.906,-131.369,-124.169C-132.06,-125.432,-132.594,-126.774,-132.972,-128.195C-133.35,-129.616,-133.54,-131.049,-133.54,-132.492C-133.54,-133.935,-133.341,-135.143,-132.944,-136.117C-132.547,-137.09,-131.988,-137.803,-131.271,-138.253C-130.553,-138.703,-129.696,-138.88,-128.696,-138.784C-127.696,-138.688,-126.591,-138.291,-125.379,-137.591C-124.199,-136.909,-123.15,-136.081,-122.231,-135.105C-121.313,-134.13,-120.514,-133.075,-119.835,-131.944L-120.645,-131.088C-120.699,-131.021,-120.766,-130.981,-120.847,-130.965C-120.929,-130.949,-121.034,-130.98,-121.165,-131.055C-121.312,-131.14,-121.485,-131.323,-121.681,-131.606C-121.878,-131.889,-122.136,-132.228,-122.456,-132.622C-122.776,-133.016,-123.172,-133.435,-123.643,-133.876C-124.114,-134.317,-124.7,-134.74,-125.402,-135.145C-126.228,-135.622,-126.985,-135.892,-127.671,-135.954C-128.359,-136.017,-128.95,-135.877,-129.448,-135.536C-129.945,-135.195,-130.332,-134.648,-130.605,-133.892C-130.879,-133.137,-131.016,-132.185,-131.016,-131.035C-131.016,-129.868,-130.874,-128.748,-130.588,-127.674C-130.303,-126.6,-129.91,-125.602,-129.408,-124.68C-128.906,-123.758,-128.315,-122.936,-127.636,-122.214C-126.957,-121.492,-126.224,-120.904,-125.437,-120.449C-124.959,-120.173,-124.528,-119.959,-124.146,-119.805C-123.764,-119.651,-123.414,-119.548,-123.093,-119.497C-122.773,-119.446,-122.47,-119.442,-122.185,-119.487C-121.899,-119.531,-121.618,-119.622,-121.34,-119.755C-121.278,-119.782,-121.212,-119.795,-121.143,-119.795C-121.073,-119.795,-121,-119.773,-120.923,-119.728Z" /></g><g id="Group 2"><path fill="#36e7f7" fill-opacity="1" d="M-108.503,-124.506C-108.58,-124.399,-108.661,-124.334,-108.746,-124.312C-108.831,-124.29,-108.939,-124.317,-109.07,-124.393C-109.209,-124.473,-109.367,-124.638,-109.544,-124.887C-109.722,-125.137,-109.944,-125.43,-110.21,-125.766C-110.476,-126.102,-110.795,-126.451,-111.165,-126.812C-111.535,-127.173,-111.98,-127.503,-112.497,-127.801C-112.983,-128.081,-113.409,-128.255,-113.775,-128.319C-114.142,-128.384,-114.449,-128.36,-114.696,-128.249C-114.943,-128.138,-115.13,-127.947,-115.257,-127.677C-115.385,-127.408,-115.448,-127.072,-115.448,-126.671C-115.448,-126.154,-115.334,-125.661,-115.107,-125.191C-114.879,-124.721,-114.579,-124.258,-114.209,-123.804C-113.839,-123.349,-113.419,-122.898,-112.948,-122.448C-112.477,-121.998,-111.995,-121.535,-111.501,-121.058C-111.007,-120.581,-110.525,-120.082,-110.054,-119.561C-109.584,-119.04,-109.162,-118.482,-108.792,-117.89C-108.422,-117.297,-108.122,-116.661,-107.895,-115.982C-107.667,-115.303,-107.554,-114.566,-107.554,-113.773C-107.554,-112.926,-107.68,-112.207,-107.93,-111.612C-108.181,-111.017,-108.546,-110.581,-109.024,-110.305C-109.502,-110.028,-110.09,-109.934,-110.789,-110.021C-111.488,-110.108,-112.28,-110.408,-113.167,-110.92C-113.7,-111.228,-114.217,-111.586,-114.719,-111.996C-115.221,-112.406,-115.695,-112.849,-116.142,-113.326C-116.59,-113.803,-117.009,-114.307,-117.398,-114.839C-117.788,-115.372,-118.137,-115.918,-118.446,-116.48L-117.74,-117.436C-117.671,-117.503,-117.588,-117.543,-117.491,-117.559C-117.395,-117.575,-117.285,-117.548,-117.161,-117.476C-116.999,-117.383,-116.812,-117.176,-116.6,-116.858C-116.388,-116.539,-116.125,-116.172,-115.812,-115.755C-115.5,-115.339,-115.126,-114.907,-114.69,-114.459C-114.254,-114.011,-113.723,-113.607,-113.098,-113.246C-112.589,-112.952,-112.133,-112.767,-111.732,-112.691C-111.331,-112.615,-110.993,-112.643,-110.719,-112.774C-110.446,-112.906,-110.235,-113.134,-110.089,-113.459C-109.942,-113.784,-109.869,-114.197,-109.869,-114.696C-109.869,-115.257,-109.981,-115.781,-110.204,-116.266C-110.428,-116.752,-110.726,-117.221,-111.096,-117.676C-111.466,-118.13,-111.887,-118.578,-112.357,-119.019C-112.828,-119.46,-113.311,-119.915,-113.805,-120.383C-114.299,-120.851,-114.781,-121.341,-115.251,-121.853C-115.722,-122.366,-116.143,-122.922,-116.513,-123.524C-116.883,-124.126,-117.18,-124.782,-117.404,-125.495C-117.628,-126.208,-117.74,-126.992,-117.74,-127.847C-117.74,-128.533,-117.624,-129.131,-117.393,-129.639C-117.161,-130.147,-116.824,-130.52,-116.38,-130.758C-115.937,-130.996,-115.391,-131.078,-114.742,-131.002C-114.094,-130.926,-113.352,-130.647,-112.519,-130.166C-111.586,-129.627,-110.727,-128.96,-109.944,-128.165C-109.161,-127.369,-108.48,-126.484,-107.901,-125.508L-108.503,-124.506Z" /></g><g id="Group 1"><path fill="#36e7f7" fill-opacity="1" d="M-95.909,-117.235C-95.986,-117.128,-96.067,-117.063,-96.152,-117.041C-96.237,-117.019,-96.346,-117.046,-96.477,-117.122C-96.616,-117.202,-96.774,-117.367,-96.951,-117.616C-97.129,-117.866,-97.351,-118.159,-97.617,-118.495C-97.883,-118.831,-98.201,-119.18,-98.571,-119.541C-98.941,-119.902,-99.386,-120.232,-99.903,-120.53C-100.389,-120.81,-100.815,-120.984,-101.181,-121.048C-101.548,-121.113,-101.855,-121.088,-102.102,-120.977C-102.349,-120.866,-102.536,-120.675,-102.663,-120.406C-102.791,-120.136,-102.854,-119.802,-102.854,-119.401C-102.854,-118.884,-102.74,-118.39,-102.513,-117.92C-102.285,-117.45,-101.986,-116.987,-101.616,-116.533C-101.246,-116.078,-100.825,-115.627,-100.354,-115.177C-99.883,-114.727,-99.401,-114.264,-98.907,-113.787C-98.413,-113.31,-97.931,-112.812,-97.46,-112.29C-96.99,-111.769,-96.569,-111.211,-96.199,-110.619C-95.829,-110.026,-95.53,-109.39,-95.302,-108.711C-95.074,-108.032,-94.96,-107.295,-94.96,-106.502C-94.96,-105.656,-95.086,-104.936,-95.336,-104.341C-95.587,-103.746,-95.952,-103.31,-96.43,-103.034C-96.908,-102.757,-97.497,-102.663,-98.196,-102.75C-98.894,-102.837,-99.687,-103.137,-100.574,-103.649C-101.107,-103.957,-101.623,-104.315,-102.125,-104.725C-102.627,-105.135,-103.102,-105.578,-103.549,-106.055C-103.997,-106.532,-104.416,-107.036,-104.805,-107.568C-105.195,-108.101,-105.544,-108.648,-105.853,-109.209L-105.146,-110.165C-105.077,-110.232,-104.994,-110.272,-104.897,-110.288C-104.801,-110.304,-104.691,-110.277,-104.567,-110.205C-104.405,-110.111,-104.218,-109.905,-104.006,-109.587C-103.794,-109.268,-103.532,-108.901,-103.219,-108.484C-102.907,-108.068,-102.532,-107.636,-102.096,-107.188C-101.66,-106.74,-101.129,-106.336,-100.504,-105.975C-99.995,-105.681,-99.54,-105.496,-99.139,-105.42C-98.738,-105.345,-98.4,-105.372,-98.126,-105.503C-97.853,-105.635,-97.642,-105.863,-97.495,-106.188C-97.349,-106.513,-97.275,-106.926,-97.275,-107.425C-97.275,-107.987,-97.387,-108.51,-97.61,-108.995C-97.834,-109.481,-98.132,-109.951,-98.502,-110.406C-98.872,-110.86,-99.294,-111.307,-99.764,-111.748C-100.235,-112.189,-100.717,-112.644,-101.211,-113.112C-101.705,-113.58,-102.188,-114.07,-102.658,-114.582C-103.129,-115.095,-103.549,-115.651,-103.919,-116.253C-104.289,-116.855,-104.587,-117.511,-104.811,-118.224C-105.035,-118.937,-105.146,-119.721,-105.146,-120.576C-105.146,-121.262,-105.03,-121.859,-104.799,-122.367C-104.567,-122.875,-104.23,-123.249,-103.786,-123.487C-103.343,-123.725,-102.797,-123.807,-102.148,-123.731C-101.5,-123.655,-100.759,-123.376,-99.926,-122.895C-98.993,-122.356,-98.133,-121.689,-97.35,-120.894C-96.567,-120.098,-95.886,-119.213,-95.307,-118.237L-95.909,-117.235Z" /></g></g></g></g></g><g><g transform="translate(141.151,-139.986)"><animateTransform repeatCount="indefinite" type="translate" attributeName="transform" dur="9.96s" begin="5s" calcMode="spline" values="141.151 -139.986; 175.114 -121.005; 141.151 -139.986; 175.114 -121.005; 141.151 -139.986" keyTimes="0; 0.25; 0.5; 0.75; 1" keySplines="0.333 0 0.667 1; 0.333 0 0.667 1; 0.333 0 0.667 1; 0.333 0 0.667 1" fill="freeze" /><g id="Group 2" transform="translate(-175.114,121.005)"><g id="Group 2"><path fill="#051622" fill-opacity="1" d="M197.376,-89.674L155.927,-112.875L155.927,-151.385L197.376,-128.183L197.376,-89.674Z" /></g><g id="Group 1"><g id="Group 2"><path fill="#ffffff" fill-opacity="1" d="M172.594,-119.983C172.594,-118.914,172.479,-118.018,172.247,-117.296C172.016,-116.574,171.677,-116.045,171.234,-115.709C170.79,-115.373,170.238,-115.237,169.578,-115.302C168.919,-115.366,168.161,-115.645,167.304,-116.14C166.532,-116.585,165.738,-117.169,164.92,-117.891L165.059,-119.495C165.074,-119.647,165.127,-119.748,165.215,-119.799C165.304,-119.85,165.436,-119.825,165.614,-119.722C165.745,-119.647,165.925,-119.505,166.152,-119.298C166.379,-119.091,166.679,-118.881,167.049,-118.667C167.543,-118.382,167.982,-118.213,168.364,-118.162C168.745,-118.111,169.068,-118.19,169.33,-118.399C169.592,-118.609,169.791,-118.955,169.926,-119.438C170.061,-119.922,170.129,-120.555,170.129,-121.339L170.129,-133.916L172.594,-132.493L172.594,-119.983Z" /></g><g id="Group 1"><path fill="#ffffff" fill-opacity="1" d="M185.13,-122.128C185.053,-122.021,184.972,-121.956,184.887,-121.934C184.802,-121.912,184.694,-121.938,184.563,-122.014C184.424,-122.094,184.266,-122.259,184.089,-122.508C183.911,-122.758,183.689,-123.051,183.423,-123.387C183.157,-123.723,182.838,-124.072,182.468,-124.433C182.098,-124.794,181.653,-125.125,181.136,-125.423C180.65,-125.703,180.224,-125.876,179.858,-125.94C179.491,-126.005,179.184,-125.981,178.937,-125.87C178.69,-125.759,178.503,-125.569,178.376,-125.299C178.248,-125.03,178.185,-124.694,178.185,-124.293C178.185,-123.776,178.298,-123.283,178.526,-122.813C178.754,-122.343,179.054,-121.88,179.424,-121.426C179.794,-120.971,180.214,-120.52,180.685,-120.07C181.156,-119.62,181.638,-119.156,182.132,-118.679C182.626,-118.202,183.108,-117.703,183.579,-117.182C184.049,-116.661,184.47,-116.104,184.84,-115.512C185.21,-114.919,185.511,-114.283,185.738,-113.604C185.965,-112.924,186.079,-112.188,186.079,-111.395C186.079,-110.549,185.953,-109.828,185.703,-109.233C185.452,-108.638,185.087,-108.203,184.609,-107.927C184.131,-107.65,183.543,-107.556,182.844,-107.643C182.145,-107.73,181.353,-108.03,180.466,-108.542C179.933,-108.85,179.416,-109.208,178.914,-109.618C178.412,-110.028,177.938,-110.47,177.491,-110.947C177.043,-111.424,176.624,-111.929,176.235,-112.461C175.845,-112.994,175.496,-113.541,175.187,-114.102L175.893,-115.057C175.962,-115.124,176.045,-115.165,176.142,-115.181C176.238,-115.197,176.348,-115.17,176.472,-115.098C176.634,-115.004,176.821,-114.797,177.033,-114.479C177.245,-114.16,177.508,-113.793,177.821,-113.376C178.133,-112.96,178.507,-112.528,178.943,-112.08C179.379,-111.632,179.91,-111.228,180.535,-110.867C181.044,-110.573,181.5,-110.388,181.901,-110.312C182.302,-110.237,182.64,-110.265,182.914,-110.396C183.187,-110.528,183.397,-110.756,183.544,-111.081C183.69,-111.406,183.764,-111.818,183.764,-112.317C183.764,-112.878,183.652,-113.403,183.429,-113.888C183.205,-114.374,182.907,-114.843,182.537,-115.298C182.167,-115.752,181.746,-116.2,181.276,-116.641C180.805,-117.082,180.322,-117.537,179.828,-118.005C179.334,-118.473,178.852,-118.963,178.382,-119.475C177.911,-119.988,177.49,-120.543,177.12,-121.145C176.75,-121.747,176.453,-122.404,176.229,-123.117C176.005,-123.83,175.893,-124.614,175.893,-125.469C175.893,-126.155,176.009,-126.752,176.24,-127.26C176.472,-127.768,176.809,-128.142,177.253,-128.38C177.696,-128.618,178.242,-128.699,178.891,-128.623C179.539,-128.547,180.281,-128.269,181.114,-127.788C182.047,-127.249,182.906,-126.582,183.689,-125.787C184.472,-124.991,185.153,-124.106,185.732,-123.13L185.13,-122.128Z" /></g></g></g></g></g></g></g><g transform="matrix(0.91,0,0,0.91,504,572)" id="Null 1"><g transform="matrix(2.19,0,0,2.19,37.267,0)" id="Person"><g id="Group 2"><g id="Group 26"><path fill="#051622" fill-opacity="1" d="M-162.508,191.693C-162.508,194.06,-164.169,196.938,-166.219,198.122C-168.269,199.306,-169.931,198.346,-169.931,195.979C-169.931,193.612,-168.269,190.734,-166.219,189.55C-164.169,188.366,-162.508,189.326,-162.508,191.693Z" /></g><g id="Group 25"><path fill="#051622" fill-opacity="1" d="M-165.556,189.796C-164.831,192.049,-165.532,195.298,-167.121,197.052C-168.71,198.806,-170.586,198.402,-171.311,196.149C-172.036,193.896,-171.335,190.646,-169.746,188.892C-168.157,187.138,-166.281,187.543,-165.556,189.796Z" /></g><g id="Group 24"><path fill="#051622" fill-opacity="1" d="M-97.63,125.524C-97.63,125.524,-97.245,138.018,-95.515,142.439C-93.785,146.86,-89.557,146.477,-86.289,146.092C-83.021,145.708,-74.756,139.773,-70.719,135.916C-66.682,132.059,-58.224,132.798,-51.496,123.298C-44.768,113.798,-51.496,109.761,-53.611,109.569C-55.725,109.377,-66.833,118.26,-75.589,114.754L-97.63,125.524Z" /></g><g id="Group 23"><path fill="#425ca3" fill-opacity="1" d="M-181.252,62.535C-181.252,62.535,-109.741,38.997,-96.154,48.716C-83.441,57.81,-85.506,85.156,-75.589,114.754C-75.333,115.519,-75.363,116.348,-75.688,117.087C-77.215,120.554,-82.813,129.989,-97.811,127.535C-97.811,127.535,-106.126,105.884,-111.776,83.283C-111.776,83.283,-167.481,119.179,-180.178,109.873C-192.875,100.567,-181.252,62.535,-181.252,62.535Z" /></g><g id="Group 22"><path fill="#051622" fill-opacity="1" d="M-210.449,164.802L-163.447,156.523L-167.72,191.508L-163.447,192.576L-155.168,156.523L-111.371,174.55L-108.967,171.969L-150.628,152.251L-119.115,137.829L-122.587,136.227L-157.51,148.148L-175.999,136.227L-180.722,137.295L-163.981,151.182L-209.381,161.331L-210.449,164.802Z" /></g><g id="Group 21"><path fill="#051622" fill-opacity="1" d="M-204.496,159.999C-204.496,162.366,-206.158,165.244,-208.208,166.428C-210.258,167.612,-211.92,166.652,-211.92,164.285C-211.92,161.918,-210.258,159.041,-208.208,157.857C-206.158,156.673,-204.496,157.632,-204.496,159.999Z" /></g><g id="Group 20"><path fill="#051622" fill-opacity="1" d="M-202.823,160.965C-202.823,163.332,-204.485,166.21,-206.535,167.394C-208.585,168.578,-210.246,167.618,-210.246,165.251C-210.246,162.884,-208.585,160.007,-206.535,158.823C-204.485,157.639,-202.823,158.598,-202.823,160.965Z" /></g><g id="Group 19"><path fill="#051622" fill-opacity="1" d="M-107.334,170.763C-107.334,173.13,-108.995,176.007,-111.045,177.191C-113.095,178.375,-114.757,177.415,-114.757,175.048C-114.757,172.681,-113.095,169.804,-111.045,168.62C-108.995,167.436,-107.334,168.396,-107.334,170.763Z" /></g><g id="Group 18"><path fill="#051622" fill-opacity="1" d="M-109.402,169.398C-109.402,171.765,-111.063,174.643,-113.113,175.827C-115.163,177.011,-116.825,176.051,-116.825,173.684C-116.825,171.317,-115.163,168.44,-113.113,167.256C-111.063,166.072,-109.402,167.031,-109.402,169.398Z" /></g><g id="Group 17"><path fill="#051622" fill-opacity="1" d="M-153.957,132.243L-162.392,132.243L-162.392,152.876L-153.957,152.876L-153.957,132.243Z" /></g><g id="Group 16"><path fill="#051622" fill-opacity="1" d="M-62.83,136.217C-62.83,136.217,-62.446,148.712,-60.716,153.133C-58.986,157.554,-54.757,157.169,-51.489,156.785C-48.221,156.4,-39.956,150.467,-35.919,146.61C-31.882,142.753,-23.425,143.492,-16.697,133.992C-9.969,124.492,-16.697,120.455,-18.811,120.263C-20.925,120.071,-31.478,128.044,-40.234,124.538L-62.83,136.217Z" /></g><g id="Group 15"><path fill="#4661ad" fill-opacity="1" d="M-146.271,71.217C-146.271,71.217,-74.761,47.679,-61.174,57.398C-48.304,66.604,-50.579,94.519,-40.234,124.538C-40.234,124.538,-44.549,139.208,-62.83,136.217C-62.83,136.217,-71.145,114.566,-76.795,91.965C-76.795,91.965,-132.5,127.861,-145.197,118.555C-157.894,109.249,-146.271,71.217,-146.271,71.217Z" /></g><g id="Group 14"><path fill="#fb9039" fill-opacity="1" d="M-87.785,101.782C-90.303,115.401,-113.506,132.039,-153.861,138.09C-155.269,138.307,-168.682,140.945,-180.494,138.631C-173.075,124.403,-153.495,100.794,-159.628,77.536C-145.17,79.783,-85.578,89.815,-87.785,101.782Z" /></g><g id="Group 13"><path fill="#4661ad" fill-opacity="1" d="M-159.708,80.587L-151.133,89.406C-149.113,101.572,-141.766,113.439,-130.549,114.334L-73.104,94.702L-73.104,74.73L-159.708,80.587Z" /></g><g id="Group 12"><path fill="#051622" fill-opacity="1" d="M-140.315,-8.622L-170.101,-23.707C-173.166,-25.259,-176.553,-26.107,-179.989,-26.063C-186.278,-25.982,-195.411,-23.882,-198.987,-13.152C-204.676,3.915,-186.254,73.267,-186.254,73.267C-186.254,73.267,-167.749,96.158,-153.12,95.074C-138.491,93.99,-117.444,81.665,-117.444,71.371C-117.444,64.027,-123.136,29.462,-126.399,10.253C-127.782,2.109,-132.945,-4.89,-140.315,-8.622Z" /></g><g><g transform="translate(-154.549,-20.573)"><g transform="rotate(0)"><animateTransform repeatCount="indefinite" type="rotate" attributeName="transform" dur="9.44s" begin="5.16s" calcMode="spline" values="0; 7; 7; 0; 0; -4; -4; 7; 7; -4; -4; 0" keyTimes="0; 0.076; 0.203; 0.263; 0.356; 0.411; 0.525; 0.589; 0.737; 0.831; 0.932; 1" keySplines="0.333 0 0.24 1; 0.333 0 0.24 1; 0.333 0 0.24 1; 0.333 0 0.24 1; 0.333 0 0.24 1; 0.333 0 0.24 1; 0.333 0 0.24 1; 0.333 0 0.24 1; 0.333 0 0.24 1; 0.333 0 0.24 1; 0.333 0 0.24 1" fill="freeze" /><g id="Group 11" transform="translate(154.549,20.573)"><g id="Group 5"><path stroke-linejoin="miter" stroke-linecap="butt" stroke-width="0.75" stroke-opacity="1" stroke="#0b246e" d="M-126.318,-52.443C-126.156,-52.443,-122.505,-51.571,-120.574,-51.107C-119.961,-50.96,-119.637,-50.294,-119.894,-49.718L-121.133,-46.94C-121.556,-45.991,-122.499,-45.379,-123.539,-45.379L-127.864,-45.379" /></g><g id="Group 4"><path fill="#ff8b91" fill-opacity="1" d="M-165.098,-26.203L-162.029,-46.153L-123.356,-68.559L-123.356,-53.445C-123.356,-52.581,-123.516,-51.725,-123.828,-50.92L-124.573,-48.994C-124.982,-47.939,-125.096,-46.792,-124.905,-45.676L-124.617,-43.996C-124.395,-42.699,-124.548,-41.365,-125.059,-40.152L-128.54,-31.884C-129.65,-29.247,-132.372,-27.665,-135.213,-28.004L-140.697,-28.658L-142.999,-16.381L-165.098,-26.203Z" /></g><g id="Group 3"><path fill="#0b246e" fill-opacity="1" d="M-162.958,-35.343L-156.171,-33.966C-152.715,-33.265,-149.13,-34.227,-146.49,-36.565L-137.313,-44.69L-137.313,-42.47L-135.841,-42.75C-134.52,-43.001,-133.448,-43.965,-133.058,-45.251L-129.514,-56.946C-129.514,-56.946,-119.627,-57.782,-116.702,-69.898C-116.702,-69.898,-127.565,-80.621,-143.163,-79.507C-158.761,-78.393,-164.47,-65.441,-164.47,-65.441C-164.47,-65.441,-167.813,-65.859,-169.345,-61.681C-170.583,-58.305,-167.047,-43.473,-165.644,-37.902C-165.316,-36.601,-164.273,-35.61,-162.958,-35.343Z" /></g><g id="Group 2"><path fill="#ff8b91" fill-opacity="1" d="M-137.816,-39.655L-136.586,-46.021C-136.586,-46.021,-137.87,-49.124,-140.866,-47.894C-143.862,-46.664,-142.578,-38.853,-140.866,-38.639C-139.154,-38.425,-137.816,-39.655,-137.816,-39.655Z" /></g><g id="Group 1"><path fill="#36e7f7" fill-opacity="1" d="M-136.586,-46.021L-120.489,-46.978L-119.474,-49.531L-137.765,-47.55L-136.586,-46.021Z" /></g></g></g></g></g><g id="Group 10"><path fill="#fb9039" fill-opacity="1" d="M-148.509,105.201C-146.295,127.946,-169.342,145.211,-190.34,136.193C-209.914,127.786,-224.264,109.122,-228.52,76.877C-233.272,40.976,-226.855,18.26,-222.144,7.213C-219.843,1.852,-214.198,-1.275,-208.431,-0.476C-163.351,5.805,-152.088,79.869,-152.088,79.869C-152.088,79.869,-149.827,91.655,-148.509,105.201Z" /></g><g><g transform="translate(-144.764,8.279)"><animateTransform repeatCount="indefinite" type="translate" attributeName="transform" dur="8.96s" begin="5s" calcMode="spline" values="-144.764 8.279; -144.764 8.279; -144.764 8.279; -144.764 8.279; -141.764 7.279; -141.764 7.279; -141.764 7.279; -144.764 8.279" keyTimes="0; 0.134; 0.223; 0.406; 0.491; 0.683; 0.92; 1" keySplines="0 0 1 1; 0 0 1 1; 0 0 1 1; 0.333 0 0.27 1; 0 0 1 1; 0 0 1 1; 0.333 0 0.27 1" fill="freeze" /><g transform="rotate(0)"><animateTransform repeatCount="indefinite" type="rotate" attributeName="transform" dur="8.96s" begin="5s" calcMode="spline" values="0; 0; 5; 5; 5; 5; 3; 5; 5; 0" keyTimes="0; 0.134; 0.223; 0.406; 0.491; 0.683; 0.723; 0.786; 0.92; 1" keySplines="0.333 0 0.27 1; 0.333 0 0.27 1; 0.333 0 0.27 1; 0.333 0 0.27 1; 0.333 0 0.27 1; 0.333 0 0.27 1; 0.333 0 0.27 1; 0.333 0 0.27 1; 0.333 0 0.27 1" fill="freeze" /><g id="hand f" transform="translate(144.764,-8.279)"><g><g transform="translate(-58.458,19.068)"><g transform="rotate(0)"><animateTransform repeatCount="indefinite" type="rotate" attributeName="transform" dur="9.52s" begin="5.12s" calcMode="spline" values="0; -6; 0; -6; 0; -6; 0; -6; 0; -6; 0; -6; 0; -6; -6; 0; 0; -6; 0; -6; 0; -6; 0; -6; 0; -6; 0; -6; 0; -6; -6; 0" keyTimes="0; 0.013; 0.021; 0.034; 0.055; 0.122; 0.139; 0.172; 0.252; 0.265; 0.282; 0.324; 0.34; 0.361; 0.433; 0.454; 0.546; 0.559; 0.567; 0.58; 0.601; 0.668; 0.685; 0.718; 0.798; 0.811; 0.828; 0.87; 0.887; 0.908; 0.979; 1" keySplines="0.333 0 0.24 1; 0.333 0 0.24 1; 0.333 0 0.24 1; 0.333 0 0.24 1; 0.333 0 0.24 1; 0.333 0 0.24 1; 0.333 0 0.24 1; 0.333 0 0.24 1; 0.333 0 0.24 1; 0.333 0 0.24 1; 0.333 0 0.24 1; 0.333 0 0.24 1; 0.333 0 0.24 1; 0.333 0 0.24 1; 0.333 0 0.24 1; 0.167 0 0.833 1; 0.333 0 0.24 1; 0.333 0 0.24 1; 0.333 0 0.24 1; 0.333 0 0.24 1; 0.333 0 0.24 1; 0.333 0 0.24 1; 0.333 0 0.24 1; 0.333 0 0.24 1; 0.333 0 0.24 1; 0.333 0 0.24 1; 0.333 0 0.24 1; 0.333 0 0.24 1; 0.333 0 0.24 1; 0.333 0 0.24 1; 0.333 0 0.24 1" fill="freeze" /><g id="Group 8" transform="translate(58.458,-19.068)"><path fill="#ff8b91" fill-opacity="1" d="M-61.493,16.486C-61.493,16.486,-56.088,5.706,-54.361,4.739C-50.015,2.305,-50.616,4.733,-47.134,3.973C-44.572,3.414,-42.696,2.388,-40.683,1.844C-39.993,1.658,-39.077,1.873,-38.283,2.479C-37.659,2.955,-37.11,3.671,-36.805,4.622C-32.046,4.892,-33.121,7.701,-33.121,7.701C-28.472,7.22,-28.787,15.818,-31.356,14.481C-31.957,9.621,-34.915,13.895,-36.95,16.486C-38.981,19.071,-44.291,21.311,-45.55,21.311C-46.809,21.311,-55.619,22.989,-55.619,22.989L-61.493,16.486Z" /></g></g></g></g><path d="M-135.455,-5.43C-135.455,-5.43,-148.798,-9.275,-155.252,1.31C-162.408,13.046,-153.12,22.582,-153.12,22.582L-104.732,49.932C-99.179,53.071,-92.335,52.83,-87.015,49.31L-50.24,22.219C-50.24,22.219,-52.027,13.019,-59.148,10.928C-60.627,10.494,-92.257,21.975,-92.257,21.975C-94.378,22.913,-96.838,22.651,-98.714,21.287L-135.455,-5.43Z" fill="#051622" fill-opacity="1" /></g></g></g></g><g><g transform="translate(-156.824,29.336)"><animateTransform repeatCount="indefinite" type="translate" attributeName="transform" dur="8.88s" begin="5.52s" calcMode="spline" values="-156.824 29.336; -168.824 24.336; -168.824 24.336; -161.824 24.336; -161.824 24.336; -168.824 24.336; -168.824 24.336; -156.824 29.336" keyTimes="0; 0.068; 0.369; 0.437; 0.563; 0.631; 0.932; 1" keySplines="0.167 0 0.833 1; 0 0 1 1; 0 0 1 1; 0 0 1 1; 0.167 0 0.833 1; 0 0 1 1; 0.167 0.154 0.833 0.846" fill="freeze" /><g transform="rotate(0)"><animateTransform repeatCount="indefinite" type="rotate" attributeName="transform" dur="9.4s" begin="5s" calcMode="spline" values="0; 0; -4; 0; 0; -4; 0; 0; -4; 0; 0; -4; 0" keyTimes="0; 0.055; 0.085; 0.119; 0.404; 0.438; 0.468; 0.587; 0.617; 0.651; 0.936; 0.97; 1" keySplines="0.167 0 0.667 1; 0.333 0 0.667 1; 0.333 0 0.667 1; 0.167 0 0.667 1; 0.333 0 0.667 1; 0.333 0 0.667 1; 0.167 0 0.667 1; 0.333 0 0.667 1; 0.333 0 0.667 1; 0.167 0 0.667 1; 0.333 0 0.667 1; 0.333 0 0.667 1" fill="freeze" /><g id="hand" transform="translate(161.824,-24.336)"><g><g transform="translate(-105.123,1.254)"><g transform="rotate(0)"><animateTransform repeatCount="indefinite" type="rotate" attributeName="transform" dur="9.04s" begin="5.72s" calcMode="spline" values="0; -5; 0; 0; -5; 0; -5; 0; -5; 0; -5; 0; -5; 0; -5; 0; 0; -5; 0; 0; -5; 0; -5; 0; -5; 0; -5; 0; -5; 0; -5; 0" keyTimes="0; 0.022; 0.053; 0.106; 0.124; 0.142; 0.159; 0.181; 0.248; 0.27; 0.288; 0.301; 0.332; 0.412; 0.434; 0.465; 0.535; 0.558; 0.588; 0.642; 0.659; 0.677; 0.695; 0.717; 0.783; 0.805; 0.823; 0.836; 0.867; 0.947; 0.969; 1" keySplines="0.333 0 0.24 1; 0.333 0 0.24 1; 0.333 0 0.24 1; 0.333 0 0.24 1; 0.333 0 0.24 1; 0.333 0 0.24 1; 0.333 0 0.24 1; 0.333 0 0.24 1; 0.333 0 0.24 1; 0.333 0 0.24 1; 0.333 0 0.24 1; 0.333 0 0.24 1; 0.333 0 0.24 1; 0.333 0 0.24 1; 0.333 0 0.24 1; 0.167 0 0.833 1; 0.333 0 0.24 1; 0.333 0 0.24 1; 0.333 0 0.24 1; 0.333 0 0.24 1; 0.333 0 0.24 1; 0.333 0 0.24 1; 0.333 0 0.24 1; 0.333 0 0.24 1; 0.333 0 0.24 1; 0.333 0 0.24 1; 0.333 0 0.24 1; 0.333 0 0.24 1; 0.333 0 0.24 1; 0.333 0 0.24 1; 0.333 0 0.24 1" fill="freeze" /><g id="Group 9" transform="translate(105.123,-1.254)"><path fill="#ff8b91" fill-opacity="1" d="M-109.102,1.322C-109.102,1.322,-103.648,-9.376,-101.97,-10.425C-100.292,-11.474,-86.448,-11.893,-85.189,-12.103C-83.93,-12.313,-81.413,-9.586,-81.413,-9.586C-81.413,-9.586,-77.04,-9.42,-76.201,-9.21C-75.362,-9,-70.877,-6.618,-72.317,-5.397C-73.218,-4.632,-75.465,-5.957,-78.363,-5.872C-81.18,-5.789,-85.651,-4.306,-86.725,-3.021C-91.03,2.132,-77.936,-1.882,-77.911,-0.058C-77.858,3.764,-91.901,6.146,-93.16,6.146C-94.419,6.146,-103.229,7.824,-103.229,7.824L-109.102,1.322Z" /></g></g></g></g><path d="M-143.362,5.279L-107.799,-2.953C-100.506,-2.953,-99.433,7.466,-99.433,7.466L-123.956,24.847L-143.362,5.279Z" fill="#051622" fill-opacity="1" /></g></g></g></g><g id="Group 5"><path fill="#051622" fill-opacity="1" d="M-117.444,134.477C-117.444,136.844,-119.105,139.721,-121.155,140.905C-123.205,142.089,-124.867,141.13,-124.867,138.763C-124.867,136.396,-123.205,133.518,-121.155,132.334C-119.105,131.15,-117.444,132.11,-117.444,134.477Z" /></g><g id="Group 4"><path fill="#051622" fill-opacity="1" d="M-119.15,133.492C-119.15,135.859,-120.812,138.736,-122.862,139.92C-124.912,141.104,-126.573,140.144,-126.573,137.777C-126.573,135.41,-124.912,132.533,-122.862,131.349C-120.812,130.165,-119.15,131.125,-119.15,133.492Z" /></g><g id="Group 3"><path fill="#fb9039" fill-opacity="1" d="" /></g><g id="Group 2"><path stroke-linejoin="miter" stroke-linecap="round" stroke-width="4" stroke-opacity="1" stroke="#ffffff" d="M-87.785,101.782C-131.689,126.723,-144.793,108.546,-148.361,99.811C-149.31,97.489,-149.584,95.833,-149.584,95.833C-149.584,95.833,-158.496,49.626,-170.429,28.311C-180.494,10.332,-193.917,-1.626,-214.836,-2.258" /></g><g id="Group 1"><path fill="#4661ad" fill-opacity="1" d="M-164.753,-29.424L-170.101,-23.707L-140.315,-8.622L-142.395,-19.604L-164.753,-29.424Z" /></g></g></g></g><g id="angular"><g transform="translate(128,150)"><animateTransform repeatCount="indefinite" type="translate" attributeName="transform" dur="9.96s" begin="5s" calcMode="spline" values="128 150; 150 258; 140 338; 84 190; 128 150" keyTimes="0; 0.257; 0.502; 0.751; 1" keySplines="0 0 1 1; 0 0 1 1; 0 0 1 1; 0 0 1 1" fill="freeze" /><g transform="scale(1,1) translate(-29,-30.5)"><g id="Group 3" transform="matrix(1,0,0,1,28.67,30.079)"><path fill="#e23237" fill-opacity="1" d="M-28.421,-29.052L-24.135,9.057L-0.378,29.829L23.758,24.443L28.421,-10.759L-0.378,-29.829L-28.421,-29.052Z" /></g><g id="Group 2" transform="matrix(1,0,0,1,42.692,30.079)"><path fill="#b52e31" fill-opacity="1" d="M-14.399,29.829L9.736,24.465L14.399,-10.76L-14.399,-29.829L-14.399,29.829Z" /></g><g id="Group 1" transform="matrix(1,0,0,1,28.76,29.499)"><path fill="#ffffff" fill-opacity="1" d="M-17.896,10.529L-11.368,12.54L-7.86,4.999L7.815,10.094L11.656,20.131L17.896,22.269L-0.423,-22.269L-17.896,10.529ZM-5.573,0.602L-0.378,-9.926L5.528,4.208L-5.573,0.602Z" /></g></g></g></g><g id="vue"><g transform="translate(776.767,559.479)"><animateTransform repeatCount="indefinite" type="translate" attributeName="transform" dur="9.96s" begin="5s" calcMode="spline" values="776.767 559.479; 884.767 609.479; 722.767 537.479; 922.767 653.479; 776.767 559.479" keyTimes="0; 0.253; 0.502; 0.751; 1" keySplines="0.333 0 0.99 1; 0.333 0 0.99 1; 0.333 0 0.99 1; 0.333 0 0.99 1" fill="freeze" /><g transform="scale(1.2,1.2)"><animateTransform repeatCount="indefinite" type="scale" attributeName="transform" dur="7.44s" begin="7.52s" calcMode="spline" values="1.2 1.2; 1 1; 1.2 1.2; 1 1" keyTimes="0; 0.333; 0.667; 1" keySplines="0 0 1 1; 0 0 1 1; 0 0 1 1" fill="freeze" /><g transform="translate(-33.5,-36)"><g id="Group 3" transform="matrix(1,0,0,1,33.301,35.592)"><path fill="#41b883" fill-opacity="1" d="M0,35.342L33.051,-13.865L7.601,-22.134L0,-10.703L-7.767,-27.127L-33.051,-35.342L0,35.342Z" /></g><g id="Group 2" transform="matrix(1,0,0,1,33.301,35.592)"><path fill="#41b883" fill-opacity="1" d="M0,35.342L33.051,-13.865L19.83,-18.16L0,11.364L-19.995,-31.1L-33.051,-35.342L0,35.342Z" /></g><g id="Group 1" transform="matrix(1,0,0,1,33.219,25.811)"><path fill="#35495e" fill-opacity="1" d="M0.083,21.319L19.912,-8.379L7.684,-12.353L0.083,-0.922L-7.684,-17.346L-9.594,-17.966L-19.913,-21.319L0.083,21.319Z" /></g></g></g></g></g><g id="react"><g transform="translate(358,154)"><animateTransform repeatCount="indefinite" type="translate" attributeName="transform" dur="9.96s" begin="5s" calcMode="spline" values="358 154; 436 228; 276 106; 430 220; 358 154" keyTimes="0; 0.253; 0.502; 0.755; 1" keySplines="0 0 1 1; 0 0 1 1; 0 0 1 1; 0 0 1 1" fill="freeze" /><g transform="rotate(0)"><animateTransform repeatCount="indefinite" type="rotate" attributeName="transform" dur="9.96s" begin="5s" calcMode="spline" values="0; 360; 0" keyTimes="0; 0.502; 1" keySplines="0 0 1 1; 0 0 1 1" fill="freeze" /><g transform="scale(1,1) translate(-32,-35)"><g id="Group 4" transform="matrix(1,0,0,1,31.763,34.922)"><path fill="#00d8ff" fill-opacity="1" d="M0,5.917C3.108,6.927,5.627,5.096,5.627,1.828C5.627,-1.44,3.108,-4.907,0,-5.917C-3.108,-6.927,-5.627,-5.096,-5.627,-1.829C-5.627,1.439,-3.108,4.907,0,5.917Z" /></g><g id="Group 3" transform="matrix(1,0,0,1,31.764,34.976)"><path fill="#00d8ff" fill-opacity="1" d="M-0.001,-10.669C-6.677,-12.932,-13.325,-14.067,-19.695,-14.033C-25.997,-13.768,-28.822,-11.525,-28.822,-9.426C-28.822,-7.229,-25.786,-2.788,-19.118,1.775C-12.921,5.744,-6.469,8.749,-0.001,10.682C6.339,12.861,12.658,14.013,18.738,14.096C25.66,13.933,28.812,11.501,28.812,9.309C28.699,8.52,28.438,7.716,28.047,6.948C27.656,6.18,27.141,5.465,26.538,4.847C24.403,2.419,21.996,0.31,19.424,-1.38C13.141,-5.496,6.583,-8.631,-0.001,-10.669ZM-0.001,13.514C-6.765,11.488,-13.511,8.336,-19.988,4.178C-22.981,2.208,-25.773,-0.269,-28.221,-3.13C-29.156,-4.139,-29.933,-5.302,-30.501,-6.538C-31.07,-7.774,-31.416,-9.055,-31.514,-10.292C-31.514,-14.204,-27.427,-16.711,-20.579,-16.995C-13.928,-17.057,-6.979,-15.876,-0.001,-13.499C6.884,-11.363,13.74,-8.077,20.307,-3.766C23.189,-1.864,25.885,0.507,28.271,3.238C29.19,4.209,29.956,5.335,30.516,6.535C31.076,7.736,31.417,8.983,31.514,10.186C31.514,14.253,26.944,16.888,19.583,17.057C13.231,16.979,6.626,15.785,-0.001,13.514Z" /></g><g id="Group 2" transform="matrix(1,0,0,1,31.774,34.948)"><path fill="#00d8ff" fill-opacity="1" d="M-8.806,-8.164C-12.218,-3.239,-14.695,2.523,-16.144,8.904C-17.389,15.399,-16.194,19.937,-14.456,21.557C-12.655,23.238,-8.284,23.619,-2.976,20.468C1.729,17.327,5.7,13.193,8.79,8.22C12.056,3.567,14.471,-1.855,15.95,-7.857C17.422,-14.894,16.15,-19.908,14.345,-21.588C13.669,-22.08,12.945,-22.437,12.222,-22.636C11.498,-22.835,10.789,-22.872,10.14,-22.743C7.646,-22.472,5.352,-21.68,3.365,-20.405C-1.482,-17.292,-5.586,-13.153,-8.79,-8.145L-8.806,-8.164ZM-12.797,25.331C-13.847,25.016,-14.885,24.41,-15.804,23.578C-19.028,20.576,-20.144,14.575,-18.791,7.524C-17.3,0.839,-14.715,-5.189,-11.138,-10.327C-7.782,-15.559,-3.487,-19.879,1.587,-23.125C3.822,-24.541,6.401,-25.413,9.204,-25.699C10.218,-25.869,11.324,-25.768,12.443,-25.405C13.563,-25.041,14.669,-24.423,15.682,-23.594C19.034,-20.474,20.144,-13.893,18.579,-6.418C17.042,-0.138,14.524,5.536,11.115,10.406C7.878,15.6,3.717,19.915,-1.211,23.188C-3.528,24.662,-6.217,25.545,-9.141,25.792C-10.312,25.869,-11.548,25.713,-12.797,25.331Z" /></g><g id="Group 1" transform="matrix(1,0,0,1,31.811,34.648)"><path fill="#00d8ff" fill-opacity="1" d="M-8.833,2.822C-5.566,10.005,-1.393,16.897,3.529,23.238C8.592,29.463,12.607,31.751,14.334,31.245C16.135,30.729,17.463,26.669,16.094,18.956C14.595,11.858,12.11,4.731,8.731,-2.161C5.656,-8.989,1.75,-15.558,-2.85,-21.639C-8.306,-28.505,-12.732,-31.081,-14.535,-30.568C-15.097,-30.271,-15.558,-29.824,-15.889,-29.255C-16.22,-28.685,-16.414,-28.005,-16.459,-27.26C-16.817,-24.564,-16.701,-21.67,-16.115,-18.71C-14.673,-11.485,-12.215,-4.214,-8.831,2.827L-8.833,2.822ZM12.731,33.969C9.681,32.978,5.807,29.78,1.774,24.822C-3.389,18.205,-7.757,11.002,-11.163,3.49C-14.695,-3.872,-17.259,-11.474,-18.757,-19.027C-19.407,-22.347,-19.528,-25.593,-19.113,-28.611C-19.017,-29.749,-18.679,-30.772,-18.121,-31.607C-17.563,-32.443,-16.8,-33.072,-15.885,-33.448C-12.538,-34.398,-6.859,-30.459,-1.063,-23.165C3.756,-16.813,7.848,-9.949,11.07,-2.811C14.6,4.405,17.191,11.868,18.746,19.297C19.424,22.741,19.528,26.102,19.054,29.21C18.941,30.377,18.582,31.424,18.002,32.279C17.422,33.134,16.633,33.778,15.691,34.165C14.787,34.398,13.765,34.33,12.731,33.969Z" /></g></g></g></g></g><g id="ts"><g transform="translate(776,432)"><animateTransform repeatCount="indefinite" type="translate" attributeName="transform" dur="9.96s" begin="5s" calcMode="spline" values="776 432; 914 514; 776 432" keyTimes="0; 0.502; 1" keySplines="0 0 1 1; 0 0 1 1" fill="freeze" /><g transform="scale(1,1) translate(-29,-40)"><g id="Group 3" transform="matrix(1,0,0,1,28.779,39.643)"><path fill="#007acc" fill-opacity="1" d="M-28.408,-39.643L-28.408,-9.643L-28.408,20.357L28.408,39.643L28.408,-20.357L-28.408,-39.643Z" /></g><g id="Group 2" transform="matrix(1,0,0,1,22.928,47.708)"><path fill="#ffffff" fill-opacity="1" d="M-9.992,-13.244L-10.01,-10.793L-2.615,-8.283L-2.615,13.908L2.615,15.683L2.615,-6.507L10.01,-3.997L10.01,-6.406C10.01,-7.74,9.983,-8.863,9.947,-8.904C9.92,-8.951,5.42,-10.498,-0.036,-12.341L-9.965,-15.683L-9.992,-13.244Z" /></g><g id="Group 1" transform="matrix(1,0,0,1,43.7,56.12)"><path fill="#ffffff" fill-opacity="1" d="M2.516,-12.876C3.959,-12.005,5.059,-10.956,6.069,-9.508C6.592,-8.74,7.368,-7.4,7.431,-7.122C7.449,-7.04,4.978,-6.126,3.481,-5.653C3.427,-5.633,3.21,-5.955,2.967,-6.418C2.236,-7.79,1.47,-8.536,0.297,-9.019C-1.425,-9.728,-2.534,-9.152,-2.525,-7.559C-2.525,-7.092,-2.462,-6.795,-2.282,-6.352C-1.903,-5.395,-1.2,-4.661,1.01,-2.902C5.077,0.327,6.818,2.137,7.9,4.237C9.108,6.581,9.379,9.758,8.558,11.775C7.657,13.964,5.42,14.9,2.272,14.394C1.298,14.244,-1.01,13.432,-2.056,12.877C-4.338,11.674,-6.502,9.749,-7.837,7.734C-8.36,6.946,-9.379,5.01,-9.316,4.917C-9.289,4.888,-9.055,4.815,-8.793,4.742C-8.541,4.676,-7.585,4.419,-6.683,4.173L-5.05,3.727L-4.708,4.377C-4.23,5.31,-3.184,6.723,-2.552,7.289C-0.74,8.914,1.749,9.616,2.976,8.87C3.499,8.543,3.715,8.093,3.715,7.321C3.715,6.626,3.634,6.294,3.291,5.654C2.85,4.837,1.948,3.969,-0.614,1.929C-3.544,-0.4,-4.807,-1.657,-5.961,-3.363C-6.629,-4.351,-7.26,-5.785,-7.522,-6.893C-7.738,-7.814,-7.792,-9.956,-7.621,-10.755C-7.016,-13.541,-4.879,-14.9,-1.795,-14.473C-0.794,-14.333,1.533,-13.467,2.516,-12.876Z" /></g></g></g></g><g id="jest"><g transform="translate(830,754)"><animateTransform repeatCount="indefinite" type="translate" attributeName="transform" dur="9.96s" begin="5s" calcMode="spline" values="830 754; 868 792; 874 676; 790 810; 830 754" keyTimes="0; 0.253; 0.502; 0.755; 1" keySplines="0 0 1 1; 0 0 1 1; 0 0 1 1; 0 0 1 1" fill="freeze" /><g transform="scale(0.8,0.8)"><animateTransform repeatCount="indefinite" type="scale" attributeName="transform" dur="5s" begin="5s" calcMode="spline" values="0.8 0.8; 1 1; 1.1 1.1" keyTimes="0; 0.504; 1" keySplines="0 0 1 1; 0 0 1 1" fill="freeze" /><g transform="translate(-25.5,-39)"><g id="Group 2" transform="matrix(1,0,0,1,25.232,37.605)"><path fill="#c63d14" fill-opacity="1" d="M5.603,2.292L5.603,2.273C5.604,1.339,5.377,0.343,4.943,-0.618C4.509,-1.579,3.881,-2.475,3.124,-3.215L8.736,-13.312L14.357,0.71C13.652,0.965,13.073,1.441,12.674,2.094C12.274,2.746,12.067,3.556,12.068,4.451L12.068,4.57L5.603,2.292ZM22.35,7.947C22.35,6.507,21.808,4.942,20.844,3.596C19.88,2.251,18.571,1.236,17.208,0.773C17.027,0.712,16.847,0.659,16.667,0.618L23.73,-18.98L-6.281,-29.167L0.771,-4.797C0.668,-4.832,0.564,-4.878,0.46,-4.913C-0.768,-5.331,-1.956,-5.271,-2.889,-4.745C-3.822,-4.219,-4.438,-3.261,-4.626,-2.044C-4.815,-0.827,-4.564,0.569,-3.917,1.891C-3.27,3.213,-2.272,4.372,-1.102,5.161C-2.195,6.779,-3.556,8.126,-5.143,9.162C-7.209,10.546,-9.664,11.322,-12.35,11.439C-13.856,10.174,-15.033,8.446,-15.643,6.602C-16.253,4.758,-16.25,2.938,-15.635,1.512C-15.483,1.189,-15.328,0.861,-15.182,0.531C-14.036,0.635,-13.017,0.289,-12.296,-0.449C-11.574,-1.187,-11.194,-2.273,-11.219,-3.525C-11.244,-4.776,-11.672,-6.119,-12.432,-7.327C-13.192,-8.535,-14.239,-9.534,-15.395,-10.161C-16.552,-10.787,-17.75,-11.002,-18.788,-10.768C-19.826,-10.534,-20.642,-9.866,-21.1,-8.876C-21.557,-7.885,-21.63,-6.632,-21.303,-5.327C-20.977,-4.021,-20.271,-2.741,-19.305,-1.702C-20.946,0.883,-22.2,3.811,-23.033,7.007C-23.731,11.218,-23.033,16.173,-19.393,20.077C-10.91,29.167,-1.698,22.234,8.012,23.003C11.531,23.281,15.394,24.74,18.493,23.896C19.613,23.602,20.577,23.005,21.32,22.145C22.063,21.285,22.566,20.186,22.792,18.923C22.998,17.716,22.958,16.394,22.676,15.038C22.395,13.682,21.877,12.319,21.152,11.029C21.926,10.315,22.349,9.225,22.348,7.952L22.35,7.947Z" /></g><g id="Group 1" transform="matrix(1,0,0,1,25.384,35.476)"><path fill="#ffffff" fill-opacity="1" d="M21.406,20.397C21.211,21.479,20.779,22.422,20.141,23.158C19.504,23.894,18.675,24.405,17.715,24.657C15.723,25.002,13.565,24.884,11.357,24.309C10.11,24.075,8.823,23.834,7.562,23.735C4.206,23.622,0.965,23.928,-2.105,24.647C-8.346,25.801,-13.744,26.796,-18.818,21.355C-22.54,17.366,-22.37,12.383,-21.936,9.768C-21.425,7.427,-20.572,5.293,-19.406,3.433L-18.874,2.449C-18.344,2.852,-17.788,3.188,-17.221,3.447C-17.723,5.15,-17.582,7.197,-16.824,9.229C-16.066,11.261,-14.739,13.146,-13.077,14.552L-12.594,14.978L-12.083,14.96C-9.233,14.841,-6.63,14.022,-4.439,12.555C-2.992,11.609,-1.721,10.417,-0.656,9.008C0.708,9.69,2.102,9.911,3.318,9.637C4.535,9.364,5.508,8.612,6.094,7.492C6.68,6.372,6.847,4.946,6.57,3.425C6.292,1.904,5.584,0.37,4.553,-0.947L8.574,-8.167L12.635,1.961C11.479,2.745,10.786,4.102,10.691,5.762C10.596,7.421,11.106,9.263,12.122,10.92C13.138,12.577,14.584,13.929,16.174,14.706C17.763,15.483,19.379,15.629,20.701,15.116C21.433,16.926,21.677,18.776,21.4,20.399L21.406,20.397ZM-16.505,-7.126C-15.736,-6.865,-14.983,-6.368,-14.344,-5.7C-13.705,-5.031,-13.208,-4.22,-12.915,-3.37C-12.621,-2.52,-12.544,-1.668,-12.695,-0.923C-12.846,-0.178,-13.217,0.427,-13.762,0.815C-14.306,1.204,-15.001,1.358,-15.755,1.259C-16.51,1.16,-17.291,0.812,-18.001,0.259C-18.711,-0.295,-19.316,-1.028,-19.742,-1.849C-20.168,-2.67,-20.395,-3.541,-20.393,-4.352C-20.392,-5.44,-19.981,-6.344,-19.253,-6.866C-18.524,-7.388,-17.537,-7.486,-16.507,-7.137L-16.505,-7.126ZM0.307,-1.459C1.076,-1.198,1.828,-0.702,2.467,-0.034C3.106,0.634,3.604,1.444,3.898,2.293C4.192,3.143,4.27,3.995,4.12,4.74C3.97,5.485,3.599,6.091,3.055,6.48C2.512,6.87,1.82,7.026,1.066,6.928C0.312,6.83,-0.47,6.484,-1.18,5.932C-1.89,5.381,-2.497,4.648,-2.924,3.829C-3.351,3.009,-3.579,2.138,-3.579,1.326C-3.578,0.238,-3.167,-0.666,-2.439,-1.188C-1.71,-1.71,-0.723,-1.807,0.307,-1.459ZM21.824,-16.119L15.563,1.255C15.294,1.233,15.031,1.23,14.773,1.248L8.589,-14.185L2.385,-3.037C2.115,-3.228,1.839,-3.401,1.559,-3.555L-4.682,-25.117L21.824,-16.119ZM20.943,9.65C20.943,10.462,20.714,11.178,20.287,11.708C19.86,12.238,19.254,12.558,18.544,12.627C17.834,12.697,17.052,12.513,16.298,12.099C15.544,11.684,14.852,11.058,14.309,10.3C13.765,9.542,13.394,8.685,13.244,7.838C13.094,6.991,13.171,6.191,13.465,5.541C13.76,4.891,14.258,4.419,14.897,4.185C15.536,3.951,16.288,3.966,17.057,4.227C18.087,4.578,19.074,5.346,19.803,6.362C20.532,7.379,20.942,8.562,20.943,9.65ZM23.454,10.502C23.452,8.928,22.931,7.226,21.979,5.692C21.027,4.157,19.704,2.885,18.24,2.095L25.331,-17.582L-8.184,-28.958L-1.081,-4.42C-2.321,-4.548,-3.451,-4.255,-4.325,-3.579C-5.2,-2.902,-5.779,-1.873,-5.99,-0.622C-6.202,0.629,-6.037,2.045,-5.514,3.445C-4.991,4.845,-4.133,6.166,-3.053,7.24C-3.946,8.336,-4.984,9.274,-6.148,10.035C-7.949,11.244,-10.066,11.961,-12.382,12.148C-13.469,11.113,-14.292,9.777,-14.702,8.383C-15.113,6.989,-15.083,5.631,-14.618,4.556L-14.54,4.389L-14.393,4.074C-13.078,4.039,-11.949,3.502,-11.174,2.544C-10.399,1.586,-10.021,0.26,-10.098,-1.233C-10.176,-2.727,-10.705,-4.307,-11.604,-5.734C-12.503,-7.161,-13.724,-8.357,-15.081,-9.141C-16.439,-9.926,-17.858,-10.256,-19.126,-10.081C-20.394,-9.906,-21.442,-9.237,-22.109,-8.173C-22.776,-7.11,-23.027,-5.711,-22.824,-4.188C-22.621,-2.665,-21.973,-1.102,-20.982,0.266C-21.195,0.675,-21.421,1.086,-21.652,1.51C-22.931,3.559,-23.86,5.91,-24.413,8.489C-25.33,14.011,-23.851,19.186,-20.249,23.045C-18.315,25.161,-15.995,26.731,-13.618,27.531C-9.412,28.958,-5.157,28.172,-0.993,27.402C1.917,26.719,4.987,26.421,8.165,26.515C9.303,26.605,10.475,26.824,11.716,27.056C14.244,27.7,16.709,27.81,18.975,27.378C20.254,27.041,21.356,26.357,22.204,25.374C23.052,24.39,23.624,23.133,23.882,21.69C24.301,19.231,23.818,16.394,22.52,13.7C23.134,12.85,23.457,11.743,23.456,10.501L23.454,10.502Z" /></g></g></g></g></g><g id="flutter"><g transform="translate(596,124)"><animateTransform repeatCount="indefinite" type="translate" attributeName="transform" dur="9.96s" begin="5s" calcMode="spline" values="596 124; 784 114; 850 82; 912 164; 596 124" keyTimes="0; 0.249; 0.502; 0.755; 1" keySplines="0 0 1 1; 0 0 1 1; 0 0 1 1; 0 0 1 1" fill="freeze" /><g transform="scale(1,1) translate(-23.5,-37.5)"><g id="Group 5" transform="matrix(1,0,0,1,22.976,25.578)"><path fill="#47c5fb" fill-opacity="1" d="M-22.975,4.265L-14.191,16.356L22.975,-10.647L5.407,-16.356L-22.975,4.265Z" /></g><g id="Group 4" transform="matrix(1,0,0,1,29.469,48.335)"><path fill="#47c5fb" fill-opacity="1" d="M-1.285,-11.658L-16.482,-0.617L-7.663,11.658L1.105,5.287L16.482,-5.885L-1.285,-11.658Z" /></g><g id="Group 3" transform="matrix(1,0,0,1,33.878,64.24)"><path fill="#00569e" fill-opacity="1" d="M-12.072,-4.247L-5.398,4.941L12.072,10.618L-3.305,-10.618L-12.072,-4.247Z" /></g><g id="Group 2" transform="matrix(1,0,0,1,21.731,50.701)"><path fill="#00b5f8" fill-opacity="1" d="M-8.842,-2.911L-0.057,-9.292L8.842,2.923L0.074,9.292L-8.842,-2.911Z" /></g></g></g></g></svg>