<?xml version="1.0" encoding="utf-8"?><svg fill="none" viewBox="0 0 922 788" xmlns="http://www.w3.org/2000/svg"><defs /><g id="Layer 1"><g transform="translate(189.539,254.857)"><g transform="scale(0,0)"><animateTransform repeatCount="indefinite" type="scale" attributeName="transform" dur="5.167s" begin="0s" calcMode="spline" values="0 0; 1 1; 0 0; 0 0; 1 1; 0 0; 0 0; 1 1; 0 0; 0 0; 1 1; 0 0" keyTimes="0; 0.065; 0.129; 0.29; 0.355; 0.419; 0.581; 0.645; 0.71; 0.871; 0.935; 1" keySplines="0.118 0 0.355 0.943; 0.623 0 0.823 1; 0 0 1 1; 0.118 0 0.355 0.943; 0.623 0 0.823 1; 0 0 1 1; 0.118 0 0.355 0.943; 0.623 0 0.823 1; 0 0 1 1; 0.118 0 0.355 0.943; 0.623 0 0.823 1" fill="freeze" /><g transform="translate(284.461,159.143)"><g id="Group 1"><path fill="#ececec" fill-opacity="1" d="M-284.461,-169.656L-281.046,-162.735L-273.407,-161.625L-278.934,-156.237L-277.63,-148.63L-284.461,-152.221L-291.294,-148.63L-289.989,-156.237L-295.516,-161.625L-287.878,-162.735L-284.461,-169.656Z" /></g></g></g></g></g><g id="Layer 2"><g transform="translate(873.277,580.693)"><g transform="scale(0,0)"><animateTransform repeatCount="indefinite" type="scale" attributeName="transform" dur="5.167s" begin="0.1s" calcMode="spline" values="0 0; 1 1; 0 0; 0 0; 1 1; 0 0; 0 0; 1 1; 0 0; 0 0; 1 1; 0 0" keyTimes="0; 0.065; 0.129; 0.29; 0.355; 0.419; 0.581; 0.645; 0.71; 0.871; 0.935; 1" keySplines="0.118 0 0.355 0.943; 0.623 0 0.823 1; 0 0 1 1; 0.118 0 0.355 0.943; 0.623 0 0.823 1; 0 0 1 1; 0.118 0 0.355 0.943; 0.623 0 0.823 1; 0 0 1 1; 0.118 0 0.355 0.943; 0.623 0 0.823 1" fill="freeze" /><g transform="translate(-399.277,-166.693)"><g id="Group 1"><path fill="#f5f5f5" fill-opacity="1" d="M399.277,156.18L402.693,163.101L410.331,164.211L404.804,169.599L406.108,177.206L399.277,173.614L392.445,177.206L393.749,169.599L388.222,164.211L395.86,163.101L399.277,156.18Z" /></g></g></g></g></g><g id="Layer 3"><g transform="translate(737.848,781.562)"><g transform="scale(0,0)"><animateTransform repeatCount="indefinite" type="scale" attributeName="transform" dur="5.167s" begin="0.733s" calcMode="spline" values="0 0; 1 1; 0 0; 0 0; 1 1; 0 0; 0 0; 1 1; 0 0; 0 0; 1 1; 0 0" keyTimes="0; 0.065; 0.129; 0.29; 0.355; 0.419; 0.581; 0.645; 0.71; 0.871; 0.935; 1" keySplines="0.118 0 0.355 0.943; 0.623 0 0.823 1; 0 0 1 1; 0.118 0 0.355 0.943; 0.623 0 0.823 1; 0 0 1 1; 0.118 0 0.355 0.943; 0.623 0 0.823 1; 0 0 1 1; 0.118 0 0.355 0.943; 0.623 0 0.823 1" fill="freeze" /><g transform="translate(-263.848,-367.562)"><g id="Group 1"><path fill="#f5f5f5" fill-opacity="1" d="M263.848,357.049L267.264,363.97L274.903,365.08L269.375,370.468L270.68,378.075L263.848,374.484L257.016,378.075L258.321,370.468L252.794,365.08L260.432,363.97L263.848,357.049Z" /></g></g></g></g></g><g id="Layer 4"><g transform="translate(427.255,126.52)"><g transform="scale(0,0)"><animateTransform repeatCount="indefinite" type="scale" attributeName="transform" dur="5.167s" begin="0s" calcMode="spline" values="0 0; 1 1; 0 0; 0 0; 1 1; 0 0; 0 0; 1 1; 0 0; 0 0; 1 1; 0 0" keyTimes="0; 0.065; 0.129; 0.29; 0.355; 0.419; 0.581; 0.645; 0.71; 0.871; 0.935; 1" keySplines="0.118 0 0.355 0.943; 0.623 0 0.823 1; 0 0 1 1; 0.118 0 0.355 0.943; 0.623 0 0.823 1; 0 0 1 1; 0.118 0 0.355 0.943; 0.623 0 0.823 1; 0 0 1 1; 0.118 0 0.355 0.943; 0.623 0 0.823 1" fill="freeze" /><g transform="translate(46.745,287.48)"><g id="Group 1"><path fill="#ececec" fill-opacity="1" d="M-45.971,-292.383L-44.703,-289.814L-41.867,-289.402C-41.159,-289.299,-40.877,-288.429,-41.389,-287.93L-43.441,-285.93L-42.957,-283.106C-42.836,-282.401,-43.575,-281.863,-44.208,-282.196L-46.745,-283.53L-49.281,-282.196C-49.914,-281.863,-50.653,-282.401,-50.532,-283.106L-50.048,-285.93L-52.1,-287.93C-52.612,-288.429,-52.33,-289.299,-51.622,-289.402L-48.786,-289.814L-47.518,-292.383C-47.202,-293.024,-46.287,-293.024,-45.971,-292.383Z" /></g></g></g></g></g><g id="Layer 5"><g transform="translate(78.325,743.084)"><g transform="scale(0,0)"><animateTransform repeatCount="indefinite" type="scale" attributeName="transform" dur="5.167s" begin="0.333s" calcMode="spline" values="0 0; 1 1; 0 0; 0 0; 1 1; 0 0; 0 0; 1 1; 0 0; 0 0; 1 1; 0 0" keyTimes="0; 0.065; 0.129; 0.29; 0.355; 0.419; 0.581; 0.645; 0.71; 0.871; 0.935; 1" keySplines="0.118 0 0.355 0.943; 0.623 0 0.823 1; 0 0 1 1; 0.118 0 0.355 0.943; 0.623 0 0.823 1; 0 0 1 1; 0.118 0 0.355 0.943; 0.623 0 0.823 1; 0 0 1 1; 0.118 0 0.355 0.943; 0.623 0 0.823 1" fill="freeze" /><g transform="translate(395.675,-329.084)"><g id="Group 1"><path fill="#f5f5f5" fill-opacity="1" d="M-394.901,324.181L-393.633,326.751L-390.798,327.163C-390.09,327.266,-389.807,328.135,-390.319,328.634L-392.371,330.634L-391.887,333.458C-391.766,334.163,-392.506,334.7,-393.139,334.367L-395.675,333.034L-398.211,334.367C-398.844,334.7,-399.584,334.163,-399.463,333.458L-398.978,330.634L-401.03,328.634C-401.542,328.135,-401.26,327.266,-400.552,327.163L-397.717,326.751L-396.448,324.181C-396.132,323.54,-395.217,323.54,-394.901,324.181Z" /></g></g></g></g></g><g id="Layer 6"><g transform="translate(135.318,99.367)"><g transform="scale(0,0)"><animateTransform repeatCount="indefinite" type="scale" attributeName="transform" dur="3.667s" begin="1.133s" calcMode="spline" values="0 0; 1 1; 0 0; 0 0; 1 1; 0 0; 0 0; 1 1; 0 0" keyTimes="0; 0.091; 0.182; 0.409; 0.5; 0.591; 0.818; 0.909; 1" keySplines="0.118 0 0.355 0.943; 0.623 0 0.823 1; 0 0 1 1; 0.118 0 0.355 0.943; 0.623 0 0.823 1; 0 0 1 1; 0.118 0 0.355 0.943; 0.623 0 0.823 1" fill="freeze" /><g transform="translate(338.682,314.633)"><g id="Group 1"><path fill="#ececec" fill-opacity="1" d="M-337.908,-319.536L-336.64,-316.967L-333.804,-316.555C-333.096,-316.452,-332.814,-315.582,-333.326,-315.083L-335.378,-313.083L-334.894,-310.259C-334.773,-309.554,-335.513,-309.017,-336.146,-309.35L-338.682,-310.683L-341.218,-309.35C-341.851,-309.017,-342.591,-309.554,-342.47,-310.259L-341.985,-313.083L-344.037,-315.083C-344.549,-315.582,-344.267,-316.452,-343.559,-316.555L-340.723,-316.967L-339.455,-319.536C-339.139,-320.177,-338.224,-320.177,-337.908,-319.536Z" /></g></g></g></g></g><g id="Layer 7"><g transform="translate(129.857,603.634)"><g transform="scale(0,0)"><animateTransform repeatCount="indefinite" type="scale" attributeName="transform" dur="5.167s" begin="0.367s" calcMode="spline" values="0 0; 1 1; 0 0; 0 0; 1 1; 0 0; 0 0; 1 1; 0 0; 0 0; 1 1; 0 0" keyTimes="0; 0.065; 0.129; 0.29; 0.355; 0.419; 0.581; 0.645; 0.71; 0.871; 0.935; 1" keySplines="0.118 0 0.355 0.943; 0.623 0 0.823 1; 0 0 1 1; 0.118 0 0.355 0.943; 0.623 0 0.823 1; 0 0 1 1; 0.118 0 0.355 0.943; 0.623 0 0.823 1; 0 0 1 1; 0.118 0 0.355 0.943; 0.623 0 0.823 1" fill="freeze" /><g transform="translate(344.143,-189.634)"><g id="Group 1"><path fill="#ececec" fill-opacity="1" d="M-341.339,189.634C-341.339,191.183,-342.594,192.438,-344.143,192.438C-345.692,192.438,-346.947,191.183,-346.947,189.634C-346.947,188.085,-345.692,186.83,-344.143,186.83C-342.594,186.83,-341.339,188.085,-341.339,189.634Z" /></g></g></g></g></g><g id="Layer 8"><g transform="translate(530.276,252.048)"><g transform="scale(0,0)"><animateTransform repeatCount="indefinite" type="scale" attributeName="transform" dur="5.167s" begin="0.133s" calcMode="spline" values="0 0; 1 1; 0 0; 0 0; 1 1; 0 0; 0 0; 1 1; 0 0; 0 0; 1 1; 0 0" keyTimes="0; 0.065; 0.129; 0.29; 0.355; 0.419; 0.581; 0.645; 0.71; 0.871; 0.935; 1" keySplines="0.118 0 0.355 0.943; 0.623 0 0.823 1; 0 0 1 1; 0.118 0 0.355 0.943; 0.623 0 0.823 1; 0 0 1 1; 0.118 0 0.355 0.943; 0.623 0 0.823 1; 0 0 1 1; 0.118 0 0.355 0.943; 0.623 0 0.823 1" fill="freeze" /><g transform="translate(-56.276,161.952)"><g id="Group 1"><path fill="#ececec" fill-opacity="1" d="M59.08,-161.952C59.08,-160.403,57.825,-159.148,56.276,-159.148C54.727,-159.148,53.472,-160.403,53.472,-161.952C53.472,-163.501,54.727,-164.756,56.276,-164.756C57.825,-164.756,59.08,-163.501,59.08,-161.952Z" /></g></g></g></g></g><g id="Layer 9"><g transform="translate(384.584,96.787)"><g transform="scale(0,0)"><animateTransform repeatCount="indefinite" type="scale" attributeName="transform" dur="5.167s" begin="0.633s" calcMode="spline" values="0 0; 1 1; 0 0; 0 0; 1 1; 0 0; 0 0; 1 1; 0 0; 0 0; 1 1; 0 0" keyTimes="0; 0.065; 0.129; 0.29; 0.355; 0.419; 0.581; 0.645; 0.71; 0.871; 0.935; 1" keySplines="0.118 0 0.355 0.943; 0.623 0 0.823 1; 0 0 1 1; 0.118 0 0.355 0.943; 0.623 0 0.823 1; 0 0 1 1; 0.118 0 0.355 0.943; 0.623 0 0.823 1; 0 0 1 1; 0.118 0 0.355 0.943; 0.623 0 0.823 1" fill="freeze" /><g transform="translate(89.416,317.213)"><g id="Group 1"><path fill="#f5f5f5" fill-opacity="1" d="M-86.612,-317.213C-86.612,-315.664,-87.867,-314.409,-89.416,-314.409C-90.965,-314.409,-92.22,-315.664,-92.22,-317.213C-92.22,-318.762,-90.965,-320.017,-89.416,-320.017C-87.867,-320.017,-86.612,-318.762,-86.612,-317.213Z" /></g></g></g></g></g><g id="Layer 10"><g transform="translate(371.289,196.539)"><g transform="scale(0,0)"><animateTransform repeatCount="indefinite" type="scale" attributeName="transform" dur="5.167s" begin="0.267s" calcMode="spline" values="0 0; 1 1; 0 0; 0 0; 1 1; 0 0; 0 0; 1 1; 0 0; 0 0; 1 1; 0 0" keyTimes="0; 0.065; 0.129; 0.29; 0.355; 0.419; 0.581; 0.645; 0.71; 0.871; 0.935; 1" keySplines="0.134 0.002 0.249 0.941; 0.789 0 0.894 0.998; 0 0 1 1; 0.134 0.002 0.249 0.941; 0.789 0 0.894 0.998; 0 0 1 1; 0.134 0.002 0.249 0.941; 0.789 0 0.894 0.998; 0 0 1 1; 0.134 0.002 0.249 0.941; 0.789 0 0.894 0.998" fill="freeze" /><g transform="translate(102.711,217.461)"><g id="Group 1"><path fill="#007cff" fill-opacity="1" d="M-98.77,-217.462C-98.77,-215.286,-100.535,-213.521,-102.711,-213.521C-104.887,-213.521,-106.651,-215.286,-106.651,-217.462C-106.651,-219.638,-104.887,-221.402,-102.711,-221.402C-100.535,-221.402,-98.77,-219.638,-98.77,-217.462Z" /></g></g></g></g></g><g id="Layer 11"><g transform="translate(104.849,345.498)"><g transform="scale(0,0)"><animateTransform repeatCount="indefinite" type="scale" attributeName="transform" dur="5.167s" begin="0.1s" calcMode="spline" values="0 0; 1 1; 0 0; 0 0; 1 1; 0 0; 0 0; 1 1; 0 0; 0 0; 1 1; 0 0" keyTimes="0; 0.065; 0.129; 0.29; 0.355; 0.419; 0.581; 0.645; 0.71; 0.871; 0.935; 1" keySplines="0.134 0.002 0.249 0.941; 0.789 0 0.894 0.998; 0 0 1 1; 0.134 0.002 0.249 0.941; 0.789 0 0.894 0.998; 0 0 1 1; 0.134 0.002 0.249 0.941; 0.789 0 0.894 0.998; 0 0 1 1; 0.134 0.002 0.249 0.941; 0.789 0 0.894 0.998" fill="freeze" /><g transform="translate(369.151,68.502)"><g id="Group 1"><path fill="#007cff" fill-opacity="1" d="M-366.356,-68.502C-366.356,-66.958,-367.607,-65.708,-369.151,-65.708C-370.695,-65.708,-371.946,-66.958,-371.946,-68.502C-371.946,-70.046,-370.695,-71.297,-369.151,-71.297C-367.607,-71.297,-366.356,-70.046,-366.356,-68.502Z" /></g></g></g></g></g><g id="Layer 12"><g transform="translate(565.578,751.545)"><g transform="scale(0,0)"><animateTransform repeatCount="indefinite" type="scale" attributeName="transform" dur="5.167s" begin="0.467s" calcMode="spline" values="0 0; 1 1; 0 0; 0 0; 1 1; 0 0; 0 0; 1 1; 0 0; 0 0; 1 1; 0 0" keyTimes="0; 0.065; 0.129; 0.29; 0.355; 0.419; 0.581; 0.645; 0.71; 0.871; 0.935; 1" keySplines="0.134 0.002 0.249 0.941; 0.789 0 0.894 0.998; 0 0 1 1; 0.134 0.002 0.249 0.941; 0.789 0 0.894 0.998; 0 0 1 1; 0.134 0.002 0.249 0.941; 0.789 0 0.894 0.998; 0 0 1 1; 0.134 0.002 0.249 0.941; 0.789 0 0.894 0.998" fill="freeze" /><g transform="translate(-91.578,-337.545)"><g id="Group 1"><path fill="#007cff" fill-opacity="1" d="M95.578,337.545C95.578,339.754,93.787,341.545,91.578,341.545C89.369,341.545,87.578,339.754,87.578,337.545C87.578,335.336,89.369,333.545,91.578,333.545C93.787,333.545,95.578,335.336,95.578,337.545Z" /></g></g></g></g></g><g id="Layer 13"><g transform="translate(661.583,590.285)"><g transform="scale(0,0)"><animateTransform repeatCount="indefinite" type="scale" attributeName="transform" dur="5.167s" begin="0s" calcMode="spline" values="0 0; 1 1; 0 0; 0 0; 1 1; 0 0; 0 0; 1 1; 0 0; 0 0; 1 1; 0 0" keyTimes="0; 0.065; 0.129; 0.29; 0.355; 0.419; 0.581; 0.645; 0.71; 0.871; 0.935; 1" keySplines="0.134 0.002 0.249 0.941; 0.789 0 0.894 0.998; 0 0 1 1; 0.134 0.002 0.249 0.941; 0.789 0 0.894 0.998; 0 0 1 1; 0.134 0.002 0.249 0.941; 0.789 0 0.894 0.998; 0 0 1 1; 0.134 0.002 0.249 0.941; 0.789 0 0.894 0.998" fill="freeze" /><g transform="translate(-187.583,-176.285)"><g id="Group 1"><path fill="#007cff" fill-opacity="1" d="M190.377,176.285C190.377,177.829,189.127,179.08,187.583,179.08C186.039,179.08,184.788,177.829,184.788,176.285C184.788,174.741,186.039,173.49,187.583,173.49C189.127,173.49,190.377,174.741,190.377,176.285Z" /></g></g></g></g></g><g id="Layer 14"><g transform="translate(844.007,90.91)"><g transform="scale(0,0)"><animateTransform repeatCount="indefinite" type="scale" attributeName="transform" dur="5.167s" begin="0.8s" calcMode="spline" values="0 0; 1 1; 0 0; 0 0; 1 1; 0 0; 0 0; 1 1; 0 0; 0 0; 1 1; 0 0" keyTimes="0; 0.065; 0.129; 0.29; 0.355; 0.419; 0.581; 0.645; 0.71; 0.871; 0.935; 1" keySplines="0.134 0.002 0.249 0.941; 0.789 0 0.894 0.998; 0 0 1 1; 0.134 0.002 0.249 0.941; 0.789 0 0.894 0.998; 0 0 1 1; 0.134 0.002 0.249 0.941; 0.789 0 0.894 0.998; 0 0 1 1; 0.134 0.002 0.249 0.941; 0.789 0 0.894 0.998" fill="freeze" /><g transform="translate(-370.007,323.09)"><g id="Group 1"><path fill="#007cff" fill-opacity="1" d="M372.802,-323.09C372.802,-321.547,371.551,-320.295,370.007,-320.295C368.463,-320.295,367.212,-321.547,367.212,-323.09C367.212,-324.634,368.463,-325.885,370.007,-325.885C371.551,-325.885,372.802,-324.634,372.802,-323.09Z" /></g></g></g></g></g><g id="Layer 15"><g transform="translate(312.865,34.597)"><g transform="scale(0,0)"><animateTransform repeatCount="indefinite" type="scale" attributeName="transform" dur="5.167s" begin="0.1s" calcMode="spline" values="0 0; 1 1; 0 0; 0 0; 1 1; 0 0; 0 0; 1 1; 0 0; 0 0; 1 1; 0 0" keyTimes="0; 0.065; 0.129; 0.29; 0.355; 0.419; 0.581; 0.645; 0.71; 0.871; 0.935; 1" keySplines="0.134 0.002 0.249 0.941; 0.789 0 0.894 0.998; 0 0 1 1; 0.134 0.002 0.249 0.941; 0.789 0 0.894 0.998; 0 0 1 1; 0.134 0.002 0.249 0.941; 0.789 0 0.894 0.998; 0 0 1 1; 0.134 0.002 0.249 0.941; 0.789 0 0.894 0.998" fill="freeze" /><g transform="translate(161.135,379.403)"><g id="Group 1"><path fill="#007cff" fill-opacity="1" d="M-158.34,-379.403C-158.34,-377.859,-159.592,-376.608,-161.135,-376.608C-162.679,-376.608,-163.93,-377.859,-163.93,-379.403C-163.93,-380.947,-162.679,-382.198,-161.135,-382.198C-159.592,-382.198,-158.34,-380.947,-158.34,-379.403Z" /></g></g></g></g></g><g id="Layer 16"><g transform="translate(537.357,178.211)"><g transform="scale(0,0)"><animateTransform repeatCount="indefinite" type="scale" attributeName="transform" dur="5.167s" begin="0.5s" calcMode="spline" values="0 0; 1 1; 0 0; 0 0; 1 1; 0 0; 0 0; 1 1; 0 0; 0 0; 1 1; 0 0" keyTimes="0; 0.065; 0.129; 0.29; 0.355; 0.419; 0.581; 0.645; 0.71; 0.871; 0.935; 1" keySplines="0.134 0.002 0.249 0.941; 0.789 0 0.894 0.998; 0 0 1 1; 0.134 0.002 0.249 0.941; 0.789 0 0.894 0.998; 0 0 1 1; 0.134 0.002 0.249 0.941; 0.789 0 0.894 0.998; 0 0 1 1; 0.134 0.002 0.249 0.941; 0.789 0 0.894 0.998" fill="freeze" /><g transform="translate(-63.357,235.789)"><g id="Group 1"><path fill="#007cff" fill-opacity="1" d="M66.152,-235.789C66.152,-234.245,64.901,-232.994,63.357,-232.994C61.813,-232.994,60.562,-234.245,60.562,-235.789C60.562,-237.333,61.813,-238.584,63.357,-238.584C64.901,-238.584,66.152,-237.333,66.152,-235.789Z" /></g></g></g></g></g><g transform="matrix(1,0,0,1,474,414)" opacity="0.7" id="Layer 17"><g id="Group 1"><path fill="#b2d8ff" fill-opacity="1" d="M-178.643,-279.271C-178.643,-253.708,-199.367,-232.984,-224.93,-232.984C-250.493,-232.984,-271.217,-253.708,-271.217,-279.271C-271.217,-304.834,-250.493,-325.558,-224.93,-325.558C-199.367,-325.558,-178.643,-304.834,-178.643,-279.271Z" /></g></g><g id="Layer 18"><animate repeatCount="indefinite" begin="0s" calcMode="discrete" fill="freeze" dur="2s" values="visible; hidden" keyTimes="0; 1" attributeName="visibility" /><g transform="translate(249.171,135.282)"><animateTransform repeatCount="indefinite" type="translate" attributeName="transform" dur="2s" begin="0s" calcMode="spline" values="249.171 135.282; 322.171 74.782" keyTimes="0; 1" keySplines="0 0 1 1" fill="freeze" /><g transform="scale(1,1) translate(224.829,278.718)"><g id="Group 4" transform="matrix(1,0,0,1,0,0)" opacity="0.2"><path fill="#046ddc" fill-opacity="1" d="M-245.484,-301.955C-245.484,-299.618,-247.378,-297.724,-249.715,-297.724C-252.052,-297.724,-253.946,-299.618,-253.946,-301.955C-253.946,-304.292,-252.052,-306.186,-249.715,-306.186C-247.378,-306.186,-245.484,-304.292,-245.484,-301.955Z" /></g><g id="Group 3" transform="matrix(1,0,0,1,0,0)" opacity="0.2"><path fill="#046ddc" fill-opacity="1" d="M-195.713,-306.186C-195.713,-303.849,-197.607,-301.955,-199.944,-301.955C-202.281,-301.955,-204.175,-303.849,-204.175,-306.186C-204.175,-308.523,-202.281,-310.417,-199.944,-310.417C-197.607,-310.417,-195.713,-308.523,-195.713,-306.186Z" /></g><g id="Group 2" transform="matrix(1,0,0,1,0,0)" opacity="0.2"><path fill="#046ddc" fill-opacity="1" d="M-204.175,-276.017C-204.175,-272.193,-207.275,-269.092,-211.099,-269.092C-214.923,-269.092,-218.024,-272.193,-218.024,-276.017C-218.024,-279.841,-214.923,-282.941,-211.099,-282.941C-207.275,-282.941,-204.175,-279.841,-204.175,-276.017Z" /></g><g id="Group 1" transform="matrix(1,0,0,1,0,0)" opacity="0.2"><path fill="#046ddc" fill-opacity="1" d="M-226.179,-256.274C-226.179,-251.162,-230.323,-247.018,-235.435,-247.018C-240.547,-247.018,-244.69,-251.162,-244.69,-256.274C-244.69,-261.386,-240.547,-265.529,-235.435,-265.529C-230.323,-265.529,-226.179,-261.386,-226.179,-256.274Z" /></g></g></g></g><g transform="matrix(1,0,0,1,474,414)" opacity="0.7" id="Layer 19"><animate repeatCount="indefinite" begin="0s" calcMode="discrete" fill="freeze" dur="2s" values="visible; hidden" keyTimes="0; 1" attributeName="visibility" /><g id="Group 1"><path fill="#b2d8ff" fill-opacity="1" d="M-178.643,-279.271C-178.643,-253.708,-199.367,-232.984,-224.93,-232.984C-250.493,-232.984,-271.217,-253.708,-271.217,-279.271C-271.217,-304.834,-250.493,-325.558,-224.93,-325.558C-199.367,-325.558,-178.643,-304.834,-178.643,-279.271Z" /></g></g><g id="Layer 20"><animate repeatCount="indefinite" begin="0s" calcMode="discrete" fill="freeze" dur="2s" values="visible; hidden" keyTimes="0; 1" attributeName="visibility" /><g transform="translate(178.171,193.282)"><animateTransform repeatCount="indefinite" type="translate" attributeName="transform" dur="2s" begin="0s" calcMode="spline" values="178.171 193.282; 249.171 135.282" keyTimes="0; 1" keySplines="0 0 1 1" fill="freeze" /><g transform="scale(1,1) translate(224.829,278.718)"><g id="Group 4" transform="matrix(1,0,0,1,0,0)" opacity="0.2"><path fill="#046ddc" fill-opacity="1" d="M-245.484,-301.955C-245.484,-299.618,-247.378,-297.724,-249.715,-297.724C-252.052,-297.724,-253.946,-299.618,-253.946,-301.955C-253.946,-304.292,-252.052,-306.186,-249.715,-306.186C-247.378,-306.186,-245.484,-304.292,-245.484,-301.955Z" /></g><g id="Group 3" transform="matrix(1,0,0,1,0,0)" opacity="0.2"><path fill="#046ddc" fill-opacity="1" d="M-195.713,-306.186C-195.713,-303.849,-197.607,-301.955,-199.944,-301.955C-202.281,-301.955,-204.175,-303.849,-204.175,-306.186C-204.175,-308.523,-202.281,-310.417,-199.944,-310.417C-197.607,-310.417,-195.713,-308.523,-195.713,-306.186Z" /></g><g id="Group 2" transform="matrix(1,0,0,1,0,0)" opacity="0.2"><path fill="#046ddc" fill-opacity="1" d="M-204.175,-276.017C-204.175,-272.193,-207.275,-269.092,-211.099,-269.092C-214.923,-269.092,-218.024,-272.193,-218.024,-276.017C-218.024,-279.841,-214.923,-282.941,-211.099,-282.941C-207.275,-282.941,-204.175,-279.841,-204.175,-276.017Z" /></g><g id="Group 1" transform="matrix(1,0,0,1,0,0)" opacity="0.2"><path fill="#046ddc" fill-opacity="1" d="M-226.179,-256.274C-226.179,-251.162,-230.323,-247.018,-235.435,-247.018C-240.547,-247.018,-244.69,-251.162,-244.69,-256.274C-244.69,-261.386,-240.547,-265.529,-235.435,-265.529C-230.323,-265.529,-226.179,-261.386,-226.179,-256.274Z" /></g></g></g></g><g transform="matrix(1,0,0,1,474,414)" opacity="0.7" id="Layer 21"><animate repeatCount="indefinite" begin="0s" calcMode="discrete" fill="freeze" dur="2s" values="visible; hidden" keyTimes="0; 1" attributeName="visibility" /><g id="Group 1"><path fill="#b2d8ff" fill-opacity="1" d="M-178.643,-279.271C-178.643,-253.708,-199.367,-232.984,-224.93,-232.984C-250.493,-232.984,-271.217,-253.708,-271.217,-279.271C-271.217,-304.834,-250.493,-325.558,-224.93,-325.558C-199.367,-325.558,-178.643,-304.834,-178.643,-279.271Z" /></g></g><g visibility="hidden" id="Layer 22"><animate repeatCount="indefinite" begin="2s" calcMode="discrete" fill="freeze" dur="2s" values="visible; hidden" keyTimes="0; 1" attributeName="visibility" /><g transform="translate(249.171,135.282)"><animateTransform repeatCount="indefinite" type="translate" attributeName="transform" dur="2s" begin="2s" calcMode="spline" values="249.171 135.282; 322.171 74.782" keyTimes="0; 1" keySplines="0 0 1 1" fill="freeze" /><g transform="scale(1,1) translate(224.829,278.718)"><g id="Group 4" transform="matrix(1,0,0,1,0,0)" opacity="0.2"><path fill="#046ddc" fill-opacity="1" d="M-245.484,-301.955C-245.484,-299.618,-247.378,-297.724,-249.715,-297.724C-252.052,-297.724,-253.946,-299.618,-253.946,-301.955C-253.946,-304.292,-252.052,-306.186,-249.715,-306.186C-247.378,-306.186,-245.484,-304.292,-245.484,-301.955Z" /></g><g id="Group 3" transform="matrix(1,0,0,1,0,0)" opacity="0.2"><path fill="#046ddc" fill-opacity="1" d="M-195.713,-306.186C-195.713,-303.849,-197.607,-301.955,-199.944,-301.955C-202.281,-301.955,-204.175,-303.849,-204.175,-306.186C-204.175,-308.523,-202.281,-310.417,-199.944,-310.417C-197.607,-310.417,-195.713,-308.523,-195.713,-306.186Z" /></g><g id="Group 2" transform="matrix(1,0,0,1,0,0)" opacity="0.2"><path fill="#046ddc" fill-opacity="1" d="M-204.175,-276.017C-204.175,-272.193,-207.275,-269.092,-211.099,-269.092C-214.923,-269.092,-218.024,-272.193,-218.024,-276.017C-218.024,-279.841,-214.923,-282.941,-211.099,-282.941C-207.275,-282.941,-204.175,-279.841,-204.175,-276.017Z" /></g><g id="Group 1" transform="matrix(1,0,0,1,0,0)" opacity="0.2"><path fill="#046ddc" fill-opacity="1" d="M-226.179,-256.274C-226.179,-251.162,-230.323,-247.018,-235.435,-247.018C-240.547,-247.018,-244.69,-251.162,-244.69,-256.274C-244.69,-261.386,-240.547,-265.529,-235.435,-265.529C-230.323,-265.529,-226.179,-261.386,-226.179,-256.274Z" /></g></g></g></g><g transform="matrix(1,0,0,1,474,414)" opacity="0.7" visibility="hidden" id="Layer 23"><animate repeatCount="indefinite" begin="2s" calcMode="discrete" fill="freeze" dur="2s" values="visible; hidden" keyTimes="0; 1" attributeName="visibility" /><g id="Group 1"><path fill="#b2d8ff" fill-opacity="1" d="M-178.643,-279.271C-178.643,-253.708,-199.367,-232.984,-224.93,-232.984C-250.493,-232.984,-271.217,-253.708,-271.217,-279.271C-271.217,-304.834,-250.493,-325.558,-224.93,-325.558C-199.367,-325.558,-178.643,-304.834,-178.643,-279.271Z" /></g></g><g visibility="hidden" id="Layer 24"><animate repeatCount="indefinite" begin="2s" calcMode="discrete" fill="freeze" dur="2s" values="visible; hidden" keyTimes="0; 1" attributeName="visibility" /><g transform="translate(178.171,193.282)"><animateTransform repeatCount="indefinite" type="translate" attributeName="transform" dur="2s" begin="2s" calcMode="spline" values="178.171 193.282; 249.171 135.282" keyTimes="0; 1" keySplines="0 0 1 1" fill="freeze" /><g transform="scale(1,1) translate(224.829,278.718)"><g id="Group 4" transform="matrix(1,0,0,1,0,0)" opacity="0.2"><path fill="#046ddc" fill-opacity="1" d="M-245.484,-301.955C-245.484,-299.618,-247.378,-297.724,-249.715,-297.724C-252.052,-297.724,-253.946,-299.618,-253.946,-301.955C-253.946,-304.292,-252.052,-306.186,-249.715,-306.186C-247.378,-306.186,-245.484,-304.292,-245.484,-301.955Z" /></g><g id="Group 3" transform="matrix(1,0,0,1,0,0)" opacity="0.2"><path fill="#046ddc" fill-opacity="1" d="M-195.713,-306.186C-195.713,-303.849,-197.607,-301.955,-199.944,-301.955C-202.281,-301.955,-204.175,-303.849,-204.175,-306.186C-204.175,-308.523,-202.281,-310.417,-199.944,-310.417C-197.607,-310.417,-195.713,-308.523,-195.713,-306.186Z" /></g><g id="Group 2" transform="matrix(1,0,0,1,0,0)" opacity="0.2"><path fill="#046ddc" fill-opacity="1" d="M-204.175,-276.017C-204.175,-272.193,-207.275,-269.092,-211.099,-269.092C-214.923,-269.092,-218.024,-272.193,-218.024,-276.017C-218.024,-279.841,-214.923,-282.941,-211.099,-282.941C-207.275,-282.941,-204.175,-279.841,-204.175,-276.017Z" /></g><g id="Group 1" transform="matrix(1,0,0,1,0,0)" opacity="0.2"><path fill="#046ddc" fill-opacity="1" d="M-226.179,-256.274C-226.179,-251.162,-230.323,-247.018,-235.435,-247.018C-240.547,-247.018,-244.69,-251.162,-244.69,-256.274C-244.69,-261.386,-240.547,-265.529,-235.435,-265.529C-230.323,-265.529,-226.179,-261.386,-226.179,-256.274Z" /></g></g></g></g><g transform="matrix(1,0,0,1,474,414)" opacity="0.7" visibility="hidden" id="Layer 25"><animate repeatCount="indefinite" begin="2s" calcMode="discrete" fill="freeze" dur="2s" values="visible; hidden" keyTimes="0; 1" attributeName="visibility" /><g id="Group 1"><path fill="#b2d8ff" fill-opacity="1" d="M-178.643,-279.271C-178.643,-253.708,-199.367,-232.984,-224.93,-232.984C-250.493,-232.984,-271.217,-253.708,-271.217,-279.271C-271.217,-304.834,-250.493,-325.558,-224.93,-325.558C-199.367,-325.558,-178.643,-304.834,-178.643,-279.271Z" /></g></g><g visibility="hidden" id="Layer 26"><animate repeatCount="indefinite" begin="4s" calcMode="discrete" fill="freeze" dur="2s" values="visible; visible" keyTimes="0; 1" attributeName="visibility" /><g transform="translate(249.171,135.282)"><animateTransform repeatCount="indefinite" type="translate" attributeName="transform" dur="2s" begin="4s" calcMode="spline" values="249.171 135.282; 322.171 74.782" keyTimes="0; 1" keySplines="0 0 1 1" fill="freeze" /><g transform="scale(1,1) translate(224.829,278.718)"><g id="Group 4" transform="matrix(1,0,0,1,0,0)" opacity="0.2"><path fill="#046ddc" fill-opacity="1" d="M-245.484,-301.955C-245.484,-299.618,-247.378,-297.724,-249.715,-297.724C-252.052,-297.724,-253.946,-299.618,-253.946,-301.955C-253.946,-304.292,-252.052,-306.186,-249.715,-306.186C-247.378,-306.186,-245.484,-304.292,-245.484,-301.955Z" /></g><g id="Group 3" transform="matrix(1,0,0,1,0,0)" opacity="0.2"><path fill="#046ddc" fill-opacity="1" d="M-195.713,-306.186C-195.713,-303.849,-197.607,-301.955,-199.944,-301.955C-202.281,-301.955,-204.175,-303.849,-204.175,-306.186C-204.175,-308.523,-202.281,-310.417,-199.944,-310.417C-197.607,-310.417,-195.713,-308.523,-195.713,-306.186Z" /></g><g id="Group 2" transform="matrix(1,0,0,1,0,0)" opacity="0.2"><path fill="#046ddc" fill-opacity="1" d="M-204.175,-276.017C-204.175,-272.193,-207.275,-269.092,-211.099,-269.092C-214.923,-269.092,-218.024,-272.193,-218.024,-276.017C-218.024,-279.841,-214.923,-282.941,-211.099,-282.941C-207.275,-282.941,-204.175,-279.841,-204.175,-276.017Z" /></g><g id="Group 1" transform="matrix(1,0,0,1,0,0)" opacity="0.2"><path fill="#046ddc" fill-opacity="1" d="M-226.179,-256.274C-226.179,-251.162,-230.323,-247.018,-235.435,-247.018C-240.547,-247.018,-244.69,-251.162,-244.69,-256.274C-244.69,-261.386,-240.547,-265.529,-235.435,-265.529C-230.323,-265.529,-226.179,-261.386,-226.179,-256.274Z" /></g></g></g></g><g transform="matrix(1,0,0,1,474,414)" opacity="0.7" visibility="hidden" id="Layer 27"><animate repeatCount="indefinite" begin="4s" calcMode="discrete" fill="freeze" dur="2s" values="visible; visible" keyTimes="0; 1" attributeName="visibility" /><g id="Group 1"><path fill="#b2d8ff" fill-opacity="1" d="M-178.643,-279.271C-178.643,-253.708,-199.367,-232.984,-224.93,-232.984C-250.493,-232.984,-271.217,-253.708,-271.217,-279.271C-271.217,-304.834,-250.493,-325.558,-224.93,-325.558C-199.367,-325.558,-178.643,-304.834,-178.643,-279.271Z" /></g></g><g visibility="hidden" id="Layer 28"><animate repeatCount="indefinite" begin="4s" calcMode="discrete" fill="freeze" dur="2s" values="visible; visible" keyTimes="0; 1" attributeName="visibility" /><g transform="translate(178.171,193.282)"><animateTransform repeatCount="indefinite" type="translate" attributeName="transform" dur="2s" begin="4s" calcMode="spline" values="178.171 193.282; 249.171 135.282" keyTimes="0; 1" keySplines="0 0 1 1" fill="freeze" /><g transform="scale(1,1) translate(224.829,278.718)"><g id="Group 4" transform="matrix(1,0,0,1,0,0)" opacity="0.2"><path fill="#046ddc" fill-opacity="1" d="M-245.484,-301.955C-245.484,-299.618,-247.378,-297.724,-249.715,-297.724C-252.052,-297.724,-253.946,-299.618,-253.946,-301.955C-253.946,-304.292,-252.052,-306.186,-249.715,-306.186C-247.378,-306.186,-245.484,-304.292,-245.484,-301.955Z" /></g><g id="Group 3" transform="matrix(1,0,0,1,0,0)" opacity="0.2"><path fill="#046ddc" fill-opacity="1" d="M-195.713,-306.186C-195.713,-303.849,-197.607,-301.955,-199.944,-301.955C-202.281,-301.955,-204.175,-303.849,-204.175,-306.186C-204.175,-308.523,-202.281,-310.417,-199.944,-310.417C-197.607,-310.417,-195.713,-308.523,-195.713,-306.186Z" /></g><g id="Group 2" transform="matrix(1,0,0,1,0,0)" opacity="0.2"><path fill="#046ddc" fill-opacity="1" d="M-204.175,-276.017C-204.175,-272.193,-207.275,-269.092,-211.099,-269.092C-214.923,-269.092,-218.024,-272.193,-218.024,-276.017C-218.024,-279.841,-214.923,-282.941,-211.099,-282.941C-207.275,-282.941,-204.175,-279.841,-204.175,-276.017Z" /></g><g id="Group 1" transform="matrix(1,0,0,1,0,0)" opacity="0.2"><path fill="#046ddc" fill-opacity="1" d="M-226.179,-256.274C-226.179,-251.162,-230.323,-247.018,-235.435,-247.018C-240.547,-247.018,-244.69,-251.162,-244.69,-256.274C-244.69,-261.386,-240.547,-265.529,-235.435,-265.529C-230.323,-265.529,-226.179,-261.386,-226.179,-256.274Z" /></g></g></g></g><g transform="matrix(1,0,0,1,474,414)" opacity="0.7" visibility="hidden" id="Layer 29"><animate repeatCount="indefinite" begin="4s" calcMode="discrete" fill="freeze" dur="2s" values="visible; visible" keyTimes="0; 1" attributeName="visibility" /><g id="Group 1"><path fill="#b2d8ff" fill-opacity="1" d="M-178.643,-279.271C-178.643,-253.708,-199.367,-232.984,-224.93,-232.984C-250.493,-232.984,-271.217,-253.708,-271.217,-279.271C-271.217,-304.834,-250.493,-325.558,-224.93,-325.558C-199.367,-325.558,-178.643,-304.834,-178.643,-279.271Z" /></g></g><g transform="matrix(0.9,0,0,0.9,960.967,933.001)" id="Layer 32"><g id="Group 1"><path fill="#4ca3ff" fill-opacity="1" d="M-178.643,-279.271C-178.643,-253.708,-199.367,-232.984,-224.93,-232.984C-250.493,-232.984,-271.217,-253.708,-271.217,-279.271C-271.217,-304.834,-250.493,-325.558,-224.93,-325.558C-199.367,-325.558,-178.643,-304.834,-178.643,-279.271Z" /></g></g><g id="Layer 33"><animate repeatCount="indefinite" begin="0s" calcMode="discrete" fill="freeze" dur="2s" values="visible; hidden" keyTimes="0; 1" attributeName="visibility" /><g transform="translate(758.621,682.155)"><animateTransform repeatCount="indefinite" type="translate" attributeName="transform" dur="2s" begin="0s" calcMode="spline" values="758.621 682.155; 838.821 647.705" keyTimes="0; 1" keySplines="0 0 1 1" fill="freeze" /><g transform="scale(0.9,0.9) translate(224.829,278.718)"><g id="Group 4" transform="matrix(1,0,0,1,0,0)" opacity="0.2"><path fill="#046ddc" fill-opacity="1" d="M-245.484,-301.955C-245.484,-299.618,-247.378,-297.724,-249.715,-297.724C-252.052,-297.724,-253.946,-299.618,-253.946,-301.955C-253.946,-304.292,-252.052,-306.186,-249.715,-306.186C-247.378,-306.186,-245.484,-304.292,-245.484,-301.955Z" /></g><g id="Group 3" transform="matrix(1,0,0,1,0,0)" opacity="0.2"><path fill="#046ddc" fill-opacity="1" d="M-195.713,-306.186C-195.713,-303.849,-197.607,-301.955,-199.944,-301.955C-202.281,-301.955,-204.175,-303.849,-204.175,-306.186C-204.175,-308.523,-202.281,-310.417,-199.944,-310.417C-197.607,-310.417,-195.713,-308.523,-195.713,-306.186Z" /></g><g id="Group 2" transform="matrix(1,0,0,1,0,0)" opacity="0.2"><path fill="#046ddc" fill-opacity="1" d="M-204.175,-276.017C-204.175,-272.193,-207.275,-269.092,-211.099,-269.092C-214.923,-269.092,-218.024,-272.193,-218.024,-276.017C-218.024,-279.841,-214.923,-282.941,-211.099,-282.941C-207.275,-282.941,-204.175,-279.841,-204.175,-276.017Z" /></g><g id="Group 1" transform="matrix(1,0,0,1,0,0)" opacity="0.2"><path fill="#046ddc" fill-opacity="1" d="M-226.179,-256.274C-226.179,-251.162,-230.323,-247.018,-235.435,-247.018C-240.547,-247.018,-244.69,-251.162,-244.69,-256.274C-244.69,-261.386,-240.547,-265.529,-235.435,-265.529C-230.323,-265.529,-226.179,-261.386,-226.179,-256.274Z" /></g></g></g></g><g transform="matrix(0.9,0,0,0.9,960.967,933.001)" opacity="0.7" id="Layer 34"><animate repeatCount="indefinite" begin="0s" calcMode="discrete" fill="freeze" dur="2s" values="visible; hidden" keyTimes="0; 1" attributeName="visibility" /><g id="Group 1"><path fill="#b2d8ff" fill-opacity="1" d="M-178.643,-279.271C-178.643,-253.708,-199.367,-232.984,-224.93,-232.984C-250.493,-232.984,-271.217,-253.708,-271.217,-279.271C-271.217,-304.834,-250.493,-325.558,-224.93,-325.558C-199.367,-325.558,-178.643,-304.834,-178.643,-279.271Z" /></g></g><g id="Layer 35"><animate repeatCount="indefinite" begin="0s" calcMode="discrete" fill="freeze" dur="2s" values="visible; hidden" keyTimes="0; 1" attributeName="visibility" /><g transform="translate(674.721,715.855)"><animateTransform repeatCount="indefinite" type="translate" attributeName="transform" dur="2s" begin="0s" calcMode="spline" values="674.721 715.855; 758.621 682.155" keyTimes="0; 1" keySplines="0 0 1 1" fill="freeze" /><g transform="scale(0.9,0.9) translate(224.829,278.718)"><g id="Group 4" transform="matrix(1,0,0,1,0,0)" opacity="0.2"><path fill="#046ddc" fill-opacity="1" d="M-245.484,-301.955C-245.484,-299.618,-247.378,-297.724,-249.715,-297.724C-252.052,-297.724,-253.946,-299.618,-253.946,-301.955C-253.946,-304.292,-252.052,-306.186,-249.715,-306.186C-247.378,-306.186,-245.484,-304.292,-245.484,-301.955Z" /></g><g id="Group 3" transform="matrix(1,0,0,1,0,0)" opacity="0.2"><path fill="#046ddc" fill-opacity="1" d="M-195.713,-306.186C-195.713,-303.849,-197.607,-301.955,-199.944,-301.955C-202.281,-301.955,-204.175,-303.849,-204.175,-306.186C-204.175,-308.523,-202.281,-310.417,-199.944,-310.417C-197.607,-310.417,-195.713,-308.523,-195.713,-306.186Z" /></g><g id="Group 2" transform="matrix(1,0,0,1,0,0)" opacity="0.2"><path fill="#046ddc" fill-opacity="1" d="M-204.175,-276.017C-204.175,-272.193,-207.275,-269.092,-211.099,-269.092C-214.923,-269.092,-218.024,-272.193,-218.024,-276.017C-218.024,-279.841,-214.923,-282.941,-211.099,-282.941C-207.275,-282.941,-204.175,-279.841,-204.175,-276.017Z" /></g><g id="Group 1" transform="matrix(1,0,0,1,0,0)" opacity="0.2"><path fill="#046ddc" fill-opacity="1" d="M-226.179,-256.274C-226.179,-251.162,-230.323,-247.018,-235.435,-247.018C-240.547,-247.018,-244.69,-251.162,-244.69,-256.274C-244.69,-261.386,-240.547,-265.529,-235.435,-265.529C-230.323,-265.529,-226.179,-261.386,-226.179,-256.274Z" /></g></g></g></g><g transform="matrix(0.9,0,0,0.9,960.967,933.001)" opacity="0.7" id="Layer 36"><animate repeatCount="indefinite" begin="0s" calcMode="discrete" fill="freeze" dur="2s" values="visible; hidden" keyTimes="0; 1" attributeName="visibility" /><g id="Group 1"><path fill="#b2d8ff" fill-opacity="1" d="M-178.643,-279.271C-178.643,-253.708,-199.367,-232.984,-224.93,-232.984C-250.493,-232.984,-271.217,-253.708,-271.217,-279.271C-271.217,-304.834,-250.493,-325.558,-224.93,-325.558C-199.367,-325.558,-178.643,-304.834,-178.643,-279.271Z" /></g></g><g visibility="hidden" id="Layer 37"><animate repeatCount="indefinite" begin="2s" calcMode="discrete" fill="freeze" dur="2s" values="visible; hidden" keyTimes="0; 1" attributeName="visibility" /><g transform="translate(758.621,682.155)"><animateTransform repeatCount="indefinite" type="translate" attributeName="transform" dur="2s" begin="2s" calcMode="spline" values="758.621 682.155; 838.821 647.705" keyTimes="0; 1" keySplines="0 0 1 1" fill="freeze" /><g transform="scale(0.9,0.9) translate(224.829,278.718)"><g id="Group 4" transform="matrix(1,0,0,1,0,0)" opacity="0.2"><path fill="#046ddc" fill-opacity="1" d="M-245.484,-301.955C-245.484,-299.618,-247.378,-297.724,-249.715,-297.724C-252.052,-297.724,-253.946,-299.618,-253.946,-301.955C-253.946,-304.292,-252.052,-306.186,-249.715,-306.186C-247.378,-306.186,-245.484,-304.292,-245.484,-301.955Z" /></g><g id="Group 3" transform="matrix(1,0,0,1,0,0)" opacity="0.2"><path fill="#046ddc" fill-opacity="1" d="M-195.713,-306.186C-195.713,-303.849,-197.607,-301.955,-199.944,-301.955C-202.281,-301.955,-204.175,-303.849,-204.175,-306.186C-204.175,-308.523,-202.281,-310.417,-199.944,-310.417C-197.607,-310.417,-195.713,-308.523,-195.713,-306.186Z" /></g><g id="Group 2" transform="matrix(1,0,0,1,0,0)" opacity="0.2"><path fill="#046ddc" fill-opacity="1" d="M-204.175,-276.017C-204.175,-272.193,-207.275,-269.092,-211.099,-269.092C-214.923,-269.092,-218.024,-272.193,-218.024,-276.017C-218.024,-279.841,-214.923,-282.941,-211.099,-282.941C-207.275,-282.941,-204.175,-279.841,-204.175,-276.017Z" /></g><g id="Group 1" transform="matrix(1,0,0,1,0,0)" opacity="0.2"><path fill="#046ddc" fill-opacity="1" d="M-226.179,-256.274C-226.179,-251.162,-230.323,-247.018,-235.435,-247.018C-240.547,-247.018,-244.69,-251.162,-244.69,-256.274C-244.69,-261.386,-240.547,-265.529,-235.435,-265.529C-230.323,-265.529,-226.179,-261.386,-226.179,-256.274Z" /></g></g></g></g><g transform="matrix(0.9,0,0,0.9,960.967,933.001)" opacity="0.7" visibility="hidden" id="Layer 38"><animate repeatCount="indefinite" begin="2s" calcMode="discrete" fill="freeze" dur="2s" values="visible; hidden" keyTimes="0; 1" attributeName="visibility" /><g id="Group 1"><path fill="#b2d8ff" fill-opacity="1" d="M-178.643,-279.271C-178.643,-253.708,-199.367,-232.984,-224.93,-232.984C-250.493,-232.984,-271.217,-253.708,-271.217,-279.271C-271.217,-304.834,-250.493,-325.558,-224.93,-325.558C-199.367,-325.558,-178.643,-304.834,-178.643,-279.271Z" /></g></g><g visibility="hidden" id="Layer 39"><animate repeatCount="indefinite" begin="2s" calcMode="discrete" fill="freeze" dur="2s" values="visible; hidden" keyTimes="0; 1" attributeName="visibility" /><g transform="translate(674.721,715.855)"><animateTransform repeatCount="indefinite" type="translate" attributeName="transform" dur="2s" begin="2s" calcMode="spline" values="674.721 715.855; 758.621 682.155" keyTimes="0; 1" keySplines="0 0 1 1" fill="freeze" /><g transform="scale(0.9,0.9) translate(224.829,278.718)"><g id="Group 4" transform="matrix(1,0,0,1,0,0)" opacity="0.2"><path fill="#046ddc" fill-opacity="1" d="M-245.484,-301.955C-245.484,-299.618,-247.378,-297.724,-249.715,-297.724C-252.052,-297.724,-253.946,-299.618,-253.946,-301.955C-253.946,-304.292,-252.052,-306.186,-249.715,-306.186C-247.378,-306.186,-245.484,-304.292,-245.484,-301.955Z" /></g><g id="Group 3" transform="matrix(1,0,0,1,0,0)" opacity="0.2"><path fill="#046ddc" fill-opacity="1" d="M-195.713,-306.186C-195.713,-303.849,-197.607,-301.955,-199.944,-301.955C-202.281,-301.955,-204.175,-303.849,-204.175,-306.186C-204.175,-308.523,-202.281,-310.417,-199.944,-310.417C-197.607,-310.417,-195.713,-308.523,-195.713,-306.186Z" /></g><g id="Group 2" transform="matrix(1,0,0,1,0,0)" opacity="0.2"><path fill="#046ddc" fill-opacity="1" d="M-204.175,-276.017C-204.175,-272.193,-207.275,-269.092,-211.099,-269.092C-214.923,-269.092,-218.024,-272.193,-218.024,-276.017C-218.024,-279.841,-214.923,-282.941,-211.099,-282.941C-207.275,-282.941,-204.175,-279.841,-204.175,-276.017Z" /></g><g id="Group 1" transform="matrix(1,0,0,1,0,0)" opacity="0.2"><path fill="#046ddc" fill-opacity="1" d="M-226.179,-256.274C-226.179,-251.162,-230.323,-247.018,-235.435,-247.018C-240.547,-247.018,-244.69,-251.162,-244.69,-256.274C-244.69,-261.386,-240.547,-265.529,-235.435,-265.529C-230.323,-265.529,-226.179,-261.386,-226.179,-256.274Z" /></g></g></g></g><g transform="matrix(0.9,0,0,0.9,960.967,933.001)" opacity="0.7" visibility="hidden" id="Layer 40"><animate repeatCount="indefinite" begin="2s" calcMode="discrete" fill="freeze" dur="2s" values="visible; hidden" keyTimes="0; 1" attributeName="visibility" /><g id="Group 1"><path fill="#b2d8ff" fill-opacity="1" d="M-178.643,-279.271C-178.643,-253.708,-199.367,-232.984,-224.93,-232.984C-250.493,-232.984,-271.217,-253.708,-271.217,-279.271C-271.217,-304.834,-250.493,-325.558,-224.93,-325.558C-199.367,-325.558,-178.643,-304.834,-178.643,-279.271Z" /></g></g><g visibility="hidden" id="Layer 41"><animate repeatCount="indefinite" begin="4s" calcMode="discrete" fill="freeze" dur="2s" values="visible; visible" keyTimes="0; 1" attributeName="visibility" /><g transform="translate(758.621,682.155)"><animateTransform repeatCount="indefinite" type="translate" attributeName="transform" dur="2s" begin="4s" calcMode="spline" values="758.621 682.155; 838.821 647.705" keyTimes="0; 1" keySplines="0 0 1 1" fill="freeze" /><g transform="scale(0.9,0.9) translate(224.829,278.718)"><g id="Group 4" transform="matrix(1,0,0,1,0,0)" opacity="0.2"><path fill="#046ddc" fill-opacity="1" d="M-245.484,-301.955C-245.484,-299.618,-247.378,-297.724,-249.715,-297.724C-252.052,-297.724,-253.946,-299.618,-253.946,-301.955C-253.946,-304.292,-252.052,-306.186,-249.715,-306.186C-247.378,-306.186,-245.484,-304.292,-245.484,-301.955Z" /></g><g id="Group 3" transform="matrix(1,0,0,1,0,0)" opacity="0.2"><path fill="#046ddc" fill-opacity="1" d="M-195.713,-306.186C-195.713,-303.849,-197.607,-301.955,-199.944,-301.955C-202.281,-301.955,-204.175,-303.849,-204.175,-306.186C-204.175,-308.523,-202.281,-310.417,-199.944,-310.417C-197.607,-310.417,-195.713,-308.523,-195.713,-306.186Z" /></g><g id="Group 2" transform="matrix(1,0,0,1,0,0)" opacity="0.2"><path fill="#046ddc" fill-opacity="1" d="M-204.175,-276.017C-204.175,-272.193,-207.275,-269.092,-211.099,-269.092C-214.923,-269.092,-218.024,-272.193,-218.024,-276.017C-218.024,-279.841,-214.923,-282.941,-211.099,-282.941C-207.275,-282.941,-204.175,-279.841,-204.175,-276.017Z" /></g><g id="Group 1" transform="matrix(1,0,0,1,0,0)" opacity="0.2"><path fill="#046ddc" fill-opacity="1" d="M-226.179,-256.274C-226.179,-251.162,-230.323,-247.018,-235.435,-247.018C-240.547,-247.018,-244.69,-251.162,-244.69,-256.274C-244.69,-261.386,-240.547,-265.529,-235.435,-265.529C-230.323,-265.529,-226.179,-261.386,-226.179,-256.274Z" /></g></g></g></g><g transform="matrix(0.9,0,0,0.9,960.967,933.001)" opacity="0.7" visibility="hidden" id="Layer 42"><animate repeatCount="indefinite" begin="4s" calcMode="discrete" fill="freeze" dur="2s" values="visible; visible" keyTimes="0; 1" attributeName="visibility" /><g id="Group 1"><path fill="#b2d8ff" fill-opacity="1" d="M-178.643,-279.271C-178.643,-253.708,-199.367,-232.984,-224.93,-232.984C-250.493,-232.984,-271.217,-253.708,-271.217,-279.271C-271.217,-304.834,-250.493,-325.558,-224.93,-325.558C-199.367,-325.558,-178.643,-304.834,-178.643,-279.271Z" /></g></g><g visibility="hidden" id="Layer 43"><animate repeatCount="indefinite" begin="4s" calcMode="discrete" fill="freeze" dur="2s" values="visible; visible" keyTimes="0; 1" attributeName="visibility" /><g transform="translate(674.721,715.855)"><animateTransform repeatCount="indefinite" type="translate" attributeName="transform" dur="2s" begin="4s" calcMode="spline" values="674.721 715.855; 758.621 682.155" keyTimes="0; 1" keySplines="0 0 1 1" fill="freeze" /><g transform="scale(0.9,0.9) translate(224.829,278.718)"><g id="Group 4" transform="matrix(1,0,0,1,0,0)" opacity="0.2"><path fill="#046ddc" fill-opacity="1" d="M-245.484,-301.955C-245.484,-299.618,-247.378,-297.724,-249.715,-297.724C-252.052,-297.724,-253.946,-299.618,-253.946,-301.955C-253.946,-304.292,-252.052,-306.186,-249.715,-306.186C-247.378,-306.186,-245.484,-304.292,-245.484,-301.955Z" /></g><g id="Group 3" transform="matrix(1,0,0,1,0,0)" opacity="0.2"><path fill="#046ddc" fill-opacity="1" d="M-195.713,-306.186C-195.713,-303.849,-197.607,-301.955,-199.944,-301.955C-202.281,-301.955,-204.175,-303.849,-204.175,-306.186C-204.175,-308.523,-202.281,-310.417,-199.944,-310.417C-197.607,-310.417,-195.713,-308.523,-195.713,-306.186Z" /></g><g id="Group 2" transform="matrix(1,0,0,1,0,0)" opacity="0.2"><path fill="#046ddc" fill-opacity="1" d="M-204.175,-276.017C-204.175,-272.193,-207.275,-269.092,-211.099,-269.092C-214.923,-269.092,-218.024,-272.193,-218.024,-276.017C-218.024,-279.841,-214.923,-282.941,-211.099,-282.941C-207.275,-282.941,-204.175,-279.841,-204.175,-276.017Z" /></g><g id="Group 1" transform="matrix(1,0,0,1,0,0)" opacity="0.2"><path fill="#046ddc" fill-opacity="1" d="M-226.179,-256.274C-226.179,-251.162,-230.323,-247.018,-235.435,-247.018C-240.547,-247.018,-244.69,-251.162,-244.69,-256.274C-244.69,-261.386,-240.547,-265.529,-235.435,-265.529C-230.323,-265.529,-226.179,-261.386,-226.179,-256.274Z" /></g></g></g></g><g transform="matrix(0.9,0,0,0.9,960.967,933.001)" opacity="0.7" visibility="hidden" id="Layer 44"><animate repeatCount="indefinite" begin="4s" calcMode="discrete" fill="freeze" dur="2s" values="visible; visible" keyTimes="0; 1" attributeName="visibility" /><g id="Group 1"><path fill="#b2d8ff" fill-opacity="1" d="M-178.643,-279.271C-178.643,-253.708,-199.367,-232.984,-224.93,-232.984C-250.493,-232.984,-271.217,-253.708,-271.217,-279.271C-271.217,-304.834,-250.493,-325.558,-224.93,-325.558C-199.367,-325.558,-178.643,-304.834,-178.643,-279.271Z" /></g></g><g transform="matrix(1,0,0,1,474,414)" id="404"><g id="Group 3"><path fill="#007cff" fill-opacity="1" d="M-211.311,27.829L-211.311,-52.106L-279.242,27.829L-211.311,27.829ZM-211.311,82.581L-339.872,82.581L-339.872,24.538L-211.311,-128.28L-149.803,-128.28L-149.803,27.829L-117.923,27.829L-117.923,82.581L-149.803,82.581L-149.803,130.055L-211.311,130.055L-211.311,82.581Z" /></g><g id="Group 2"><path fill="#007cff" fill-opacity="1" d="M-25.92,2.187C-25.92,34.53,-23.062,56.621,-17.345,68.461C-11.626,80.301,-3.34,86.219,7.517,86.219C14.678,86.219,20.887,83.708,26.143,78.682C31.399,73.658,35.267,65.719,37.754,54.86C40.236,44.003,41.478,27.079,41.478,4.092C41.478,-29.634,38.619,-52.302,32.902,-63.911C27.183,-75.522,18.608,-81.326,7.172,-81.326C-4.495,-81.326,-12.926,-75.404,-18.125,-63.566C-23.322,-51.724,-25.92,-29.806,-25.92,2.187ZM-95.919,2.014C-95.919,-46.266,-87.23,-80.052,-69.843,-99.344C-52.459,-118.634,-25.981,-128.28,9.598,-128.28C26.692,-128.28,40.726,-126.169,51.701,-121.956C62.674,-117.738,71.626,-112.253,78.556,-105.496C85.486,-98.739,90.945,-91.634,94.929,-84.184C98.915,-76.734,102.12,-68.042,104.546,-58.107C109.279,-39.162,111.649,-19.411,111.649,1.149C111.649,47.236,103.851,80.966,88.259,102.334C72.664,123.704,45.809,134.386,7.692,134.386C-13.678,134.386,-30.946,130.977,-44.113,124.163C-57.282,117.349,-68.084,107.358,-76.513,94.189C-82.639,84.834,-87.402,72.04,-90.807,55.812C-94.216,39.584,-95.919,21.651,-95.919,2.014Z" /></g><g id="Group 1"><path fill="#007cff" fill-opacity="1" d="M262.041,27.829L262.041,-52.106L194.11,27.829L262.041,27.829ZM262.041,82.581L133.48,82.581L133.48,24.538L262.041,-128.28L323.549,-128.28L323.549,27.829L355.429,27.829L355.429,82.581L323.549,82.581L323.549,130.055L262.041,130.055L262.041,82.581Z" /></g></g><g transform="matrix(1,0,0,1,487,431)" opacity="0.3" id="rope 2"><g id="Group 2"><path fill="#111111" fill-opacity="1" d="M15.451,252.901C-20.399,252.903,-55.973,236.714,-73.248,210.255C-83.923,193.905,-96.319,159.659,-59.4,113.968L-56.113,116.625C-82.229,148.945,-87.059,181.376,-69.711,207.944C-48.597,240.285,1.264,256.546,43.799,244.974C87.377,233.116,113.835,195.209,116.389,140.975C125.124,-44.523,223.675,-101.665,295.634,-143.388C340.341,-169.31,372.642,-188.038,365.542,-227.548C364.557,-233.03,362.371,-236.817,358.859,-239.128C349.663,-245.187,331.707,-240.999,310.916,-236.153C270.131,-226.653,214.275,-213.639,180.999,-270.237L184.641,-272.379C216.342,-218.459,268.25,-230.55,309.957,-240.269C331.696,-245.332,350.47,-249.705,361.182,-242.658C365.713,-239.675,368.499,-234.977,369.7,-228.295C377.324,-185.87,342.21,-165.51,297.753,-139.732C226.636,-98.497,129.236,-42.023,120.609,141.173C117.963,197.359,90.371,236.679,44.908,249.051C35.326,251.659,25.374,252.899,15.451,252.901Z" /></g><g id="Group 1" transform="matrix(1,0,0,1,0,0)" opacity="0.2"><path fill="#111111" fill-opacity="1" d="M15.451,252.901C-20.399,252.903,-55.973,236.714,-73.248,210.255C-83.923,193.905,-96.319,159.659,-59.4,113.968L-56.113,116.625C-82.229,148.945,-87.059,181.376,-69.711,207.944C-48.597,240.285,1.264,256.546,43.799,244.974C87.377,233.116,113.835,195.209,116.389,140.975C125.124,-44.523,223.675,-101.665,295.634,-143.388C340.341,-169.31,372.642,-188.038,365.542,-227.548C364.557,-233.03,362.371,-236.817,358.859,-239.128C349.663,-245.187,331.707,-240.999,310.916,-236.153C270.131,-226.653,214.275,-213.639,180.999,-270.237L184.641,-272.379C216.342,-218.459,268.25,-230.55,309.957,-240.269C331.696,-245.332,350.47,-249.705,361.182,-242.658C365.713,-239.675,368.499,-234.977,369.7,-228.295C377.324,-185.87,342.21,-165.51,297.753,-139.732C226.636,-98.497,129.236,-42.023,120.609,141.173C117.963,197.359,90.371,236.679,44.908,249.051C35.326,251.659,25.374,252.899,15.451,252.901Z" /></g></g><g transform="matrix(1,0,0,1,474,414)" id="405"><g id="Group 3"><path fill="#007cff" fill-opacity="1" d="M-211.311,27.829L-211.311,-52.106L-279.242,27.829L-211.311,27.829ZM-211.311,82.581L-339.872,82.581L-339.872,24.538L-211.311,-128.28L-149.803,-128.28L-149.803,27.829L-117.923,27.829L-117.923,82.581L-149.803,82.581L-149.803,130.055L-211.311,130.055L-211.311,82.581Z" /></g><g id="Group 2"><path fill="#007cff" fill-opacity="1" d="M-25.92,2.187C-25.92,34.53,-23.062,56.621,-17.345,68.461C-11.626,80.301,-3.34,86.219,7.517,86.219C14.678,86.219,20.887,83.708,26.143,78.682C31.399,73.658,35.267,65.719,37.754,54.86C40.236,44.003,41.478,27.079,41.478,4.092C41.478,-29.634,38.619,-52.302,32.902,-63.911C27.183,-75.522,18.608,-81.326,7.172,-81.326C-4.495,-81.326,-12.926,-75.404,-18.125,-63.566C-23.322,-51.724,-25.92,-29.806,-25.92,2.187ZM-95.919,2.014C-95.919,-46.266,-87.23,-80.052,-69.843,-99.344C-52.459,-118.634,-25.981,-128.28,9.598,-128.28C26.692,-128.28,40.726,-126.169,51.701,-121.956C62.674,-117.738,71.626,-112.253,78.556,-105.496C85.486,-98.739,90.945,-91.634,94.929,-84.184C98.915,-76.734,102.12,-68.042,104.546,-58.107C109.279,-39.162,111.649,-19.411,111.649,1.149C111.649,47.236,103.851,80.966,88.259,102.334C72.664,123.704,45.809,134.386,7.692,134.386C-13.678,134.386,-30.946,130.977,-44.113,124.163C-57.282,117.349,-68.084,107.358,-76.513,94.189C-82.639,84.834,-87.402,72.04,-90.807,55.812C-94.216,39.584,-95.919,21.651,-95.919,2.014Z" /></g><g id="Group 1"><path fill="#007cff" fill-opacity="1" d="M262.041,27.829L262.041,-52.106L194.11,27.829L262.041,27.829ZM262.041,82.581L133.48,82.581L133.48,24.538L262.041,-128.28L323.549,-128.28L323.549,27.829L355.429,27.829L355.429,82.581L323.549,82.581L323.549,130.055L262.041,130.055L262.041,82.581Z" /></g></g><g transform="matrix(1,0,0,1,474,414)" id="Layer 31"><g id="Group 1"><path fill="#007cff" fill-opacity="1" d="M245.323,281.803C201.944,302.215,234.305,317.948,295.416,295.984C352,275.647,373.512,249.994,322.989,257.944C325.596,268.737,254.728,296.35,245.323,281.803Z" /></g></g><g transform="matrix(1,0,0,1,474,414)" id="rope"><g id="Group 2"><path fill="#007cff" fill-opacity="1" d="M15.451,252.901C-20.399,252.903,-55.973,236.714,-73.248,210.255C-83.923,193.905,-96.319,159.659,-59.4,113.968L-56.113,116.625C-82.229,148.945,-87.059,181.376,-69.711,207.944C-48.597,240.285,1.264,256.546,43.799,244.974C87.377,233.116,113.835,195.209,116.389,140.975C125.124,-44.523,223.675,-101.665,295.634,-143.388C340.341,-169.31,372.642,-188.038,365.542,-227.548C364.557,-233.03,362.371,-236.817,358.859,-239.128C349.663,-245.187,331.707,-240.999,310.916,-236.153C270.131,-226.653,214.275,-213.639,180.999,-270.237L184.641,-272.379C216.342,-218.459,268.25,-230.55,309.957,-240.269C331.696,-245.332,350.47,-249.705,361.182,-242.658C365.713,-239.675,368.499,-234.977,369.7,-228.295C377.324,-185.87,342.21,-165.51,297.753,-139.732C226.636,-98.497,129.236,-42.023,120.609,141.173C117.963,197.359,90.371,236.679,44.908,249.051C35.326,251.659,25.374,252.899,15.451,252.901Z" /></g><g id="Group 1" transform="matrix(1,0,0,1,0,0)" opacity="0.2"><path fill="#ffffff" fill-opacity="1" d="M15.451,252.901C-20.399,252.903,-55.973,236.714,-73.248,210.255C-83.923,193.905,-96.319,159.659,-59.4,113.968L-56.113,116.625C-82.229,148.945,-87.059,181.376,-69.711,207.944C-48.597,240.285,1.264,256.546,43.799,244.974C87.377,233.116,113.835,195.209,116.389,140.975C125.124,-44.523,223.675,-101.665,295.634,-143.388C340.341,-169.31,372.642,-188.038,365.542,-227.548C364.557,-233.03,362.371,-236.817,358.859,-239.128C349.663,-245.187,331.707,-240.999,310.916,-236.153C270.131,-226.653,214.275,-213.639,180.999,-270.237L184.641,-272.379C216.342,-218.459,268.25,-230.55,309.957,-240.269C331.696,-245.332,350.47,-249.705,361.182,-242.658C365.713,-239.675,368.499,-234.977,369.7,-228.295C377.324,-185.87,342.21,-165.51,297.753,-139.732C226.636,-98.497,129.236,-42.023,120.609,141.173C117.963,197.359,90.371,236.679,44.908,249.051C35.326,251.659,25.374,252.899,15.451,252.901Z" /></g></g><g id="Layer 45"><g transform="translate(394.192,517.276)"><animateTransform repeatCount="indefinite" type="translate" attributeName="transform" dur="5.967s" begin="0s" calcMode="spline" values="394.192 517.276; 402.192 506.276; 394.192 517.276" keyTimes="0; 0.503; 1" keySplines="0.333 0 0.667 1; 0.333 0 0.667 1" fill="freeze" /><g transform="scale(1,1) translate(79.808,-103.276)"><g transform="matrix(1,0,0,1,0,0)" id="Group 2"><g id="Group 1"><g id="Group 1"><g id="Group 2"><g id="Group 1"><path fill="#3396ff" fill-opacity="1" d="M-227.071,188.15C-274.825,192.034,-290.646,222.597,-296.04,263.228C-298.791,283.951,-300.012,304.916,-317.412,317.046C-322.241,320.412,-319.842,327.919,-313.958,327.735C-249.866,325.734,-217.811,311.42,-212.969,308.387C-194.976,297.115,-172.41,276.37,-170.91,242.732C-184.214,224.034,-227.071,188.15,-227.071,188.15Z" /></g></g></g></g></g></g></g></g><g opacity="0.3" id="Layer 46"><g transform="translate(419.192,549.276)"><animateTransform repeatCount="indefinite" type="translate" attributeName="transform" dur="5.967s" begin="0s" calcMode="spline" values="419.192 549.276; 427.192 538.276; 419.192 549.276" keyTimes="0; 0.503; 1" keySplines="0.333 0 0.667 1; 0.333 0 0.667 1" fill="freeze" /><g transform="scale(1,1) translate(79.808,-103.276)"><g id="Group 1"><g id="Group 1"><g id="Group 8"><path fill="#000000" fill-opacity="1" d="M-241.503,129.719C-229.679,141.543,-204.53,166.693,-204.53,166.693L-100.991,69.161C-136.621,55.617,-206.074,94.29,-241.503,129.719Z" /></g><g id="Group 7"><path fill="#000000" fill-opacity="1" d="M-112.565,258.658C-124.389,246.834,-149.538,221.684,-149.538,221.684L-52.006,118.146C-38.462,153.775,-77.136,223.229,-112.565,258.658Z" /></g><g id="Group 6"><g id="Group 2"><path fill="#000000" fill-opacity="1" d="M28.929,25.655L69.26,-52.106L-8.501,-11.774C-33.484,1.184,-56.55,17.541,-77.042,36.832L-209.6,161.623L-144.469,226.755L-19.678,94.197C-0.387,73.705,15.971,50.638,28.929,25.655Z" /></g><g id="Group 1" transform="matrix(1,0,0,1,0,0)" opacity="0.6"><path fill="#000000" fill-opacity="1" d="M28.929,25.655L69.26,-52.106L-8.501,-11.774C-33.484,1.184,-56.55,17.541,-77.042,36.832L-209.6,161.623L-144.469,226.755L-19.678,94.197C-0.387,73.705,15.971,50.638,28.929,25.655Z" /></g></g><g id="Group 5"><path fill="#000000" fill-opacity="1" d="M-34.618,90.31C-45.26,100.952,-62.514,100.952,-73.156,90.31C-83.798,79.668,-83.798,62.415,-73.156,51.773C-62.514,41.131,-45.26,41.131,-34.618,51.773C-23.976,62.415,-23.976,79.668,-34.618,90.31Z" /></g><g id="Group 4"><path fill="#000000" fill-opacity="1" d="M-41.511,83.418C-48.346,90.253,-59.428,90.253,-66.263,83.418C-73.098,76.583,-73.098,65.5,-66.263,58.665C-59.428,51.83,-48.346,51.83,-41.511,58.665C-34.676,65.5,-34.676,76.583,-41.511,83.418Z" /></g><g id="Group 3" transform="matrix(1,0,0,1,0,0)" opacity="0.3"><path fill="#000000" fill-opacity="1" d="M-122.444,203.359L-186.205,139.599L-134.001,90.454L-73.299,151.155L-122.444,203.359Z" /></g><g id="Group 1"><path fill="#000000" fill-opacity="1" d="M-163.575,257.196L-240.042,180.73L-199.306,171.917L-154.762,216.461L-163.575,257.196Z" /></g></g></g></g></g></g><g transform="matrix(1,0,0,1,474,414)" id="406"><g id="Group 3"><path fill="#007cff" fill-opacity="1" d="M-211.311,27.829L-211.311,-52.106L-279.242,27.829L-211.311,27.829ZM-211.311,82.581L-339.872,82.581L-339.872,24.538L-211.311,-128.28L-149.803,-128.28L-149.803,27.829L-117.923,27.829L-117.923,82.581L-149.803,82.581L-149.803,130.055L-211.311,130.055L-211.311,82.581Z" /></g><g id="Group 2"><path fill="#007cff" fill-opacity="1" d="M-25.92,2.187C-25.92,34.53,-23.062,56.621,-17.345,68.461C-11.626,80.301,-3.34,86.219,7.517,86.219C14.678,86.219,20.887,83.708,26.143,78.682C31.399,73.658,35.267,65.719,37.754,54.86C40.236,44.003,41.478,27.079,41.478,4.092C41.478,-29.634,38.619,-52.302,32.902,-63.911C27.183,-75.522,18.608,-81.326,7.172,-81.326C-4.495,-81.326,-12.926,-75.404,-18.125,-63.566C-23.322,-51.724,-25.92,-29.806,-25.92,2.187ZM-95.919,2.014C-95.919,-46.266,-87.23,-80.052,-69.843,-99.344C-52.459,-118.634,-25.981,-128.28,9.598,-128.28C26.692,-128.28,40.726,-126.169,51.701,-121.956C62.674,-117.738,71.626,-112.253,78.556,-105.496C85.486,-98.739,90.945,-91.634,94.929,-84.184C98.915,-76.734,102.12,-68.042,104.546,-58.107C109.279,-39.162,111.649,-19.411,111.649,1.149C111.649,47.236,103.851,80.966,88.259,102.334C72.664,123.704,45.809,134.386,7.692,134.386C-13.678,134.386,-30.946,130.977,-44.113,124.163C-57.282,117.349,-68.084,107.358,-76.513,94.189C-82.639,84.834,-87.402,72.04,-90.807,55.812C-94.216,39.584,-95.919,21.651,-95.919,2.014Z" /></g><g id="Group 1"><path fill="#007cff" fill-opacity="1" d="M262.041,27.829L262.041,-52.106L194.11,27.829L262.041,27.829ZM262.041,82.581L133.48,82.581L133.48,24.538L262.041,-128.28L323.549,-128.28L323.549,27.829L355.429,27.829L355.429,82.581L323.549,82.581L323.549,130.055L262.041,130.055L262.041,82.581Z" /></g></g><g id="Layer 45"><g transform="translate(394.192,517.276)"><animateTransform repeatCount="indefinite" type="translate" attributeName="transform" dur="5.967s" begin="0s" calcMode="spline" values="394.192 517.276; 402.192 506.276; 394.192 517.276" keyTimes="0; 0.503; 1" keySplines="0.333 0 0.667 1; 0.333 0 0.667 1" fill="freeze" /><g transform="scale(1,1) translate(79.808,-103.276)"><g id="Group 1"><g id="Group 1"><g id="Group 8"><path fill="#1a2e35" fill-opacity="1" d="M-241.503,129.719C-229.679,141.543,-204.53,166.693,-204.53,166.693L-100.991,69.161C-136.621,55.617,-206.074,94.29,-241.503,129.719Z" /></g><g id="Group 7"><path fill="#1a2e35" fill-opacity="1" d="M-112.565,258.658C-124.389,246.834,-149.538,221.684,-149.538,221.684L-52.006,118.146C-38.462,153.775,-77.136,223.229,-112.565,258.658Z" /></g><g id="Group 6"><g id="Group 2"><path fill="#007cff" fill-opacity="1" d="M28.929,25.655L69.26,-52.106L-8.501,-11.774C-33.484,1.184,-56.55,17.541,-77.042,36.832L-209.6,161.623L-144.469,226.755L-19.678,94.197C-0.387,73.705,15.971,50.638,28.929,25.655Z" /></g><g id="Group 1" transform="matrix(1,0,0,1,0,0)" opacity="0.6"><path fill="#ffffff" fill-opacity="1" d="M28.929,25.655L69.26,-52.106L-8.501,-11.774C-33.484,1.184,-56.55,17.541,-77.042,36.832L-209.6,161.623L-144.469,226.755L-19.678,94.197C-0.387,73.705,15.971,50.638,28.929,25.655Z" /></g></g><g id="Group 5"><path fill="#ffffff" fill-opacity="1" d="M-34.618,90.31C-45.26,100.952,-62.514,100.952,-73.156,90.31C-83.798,79.668,-83.798,62.415,-73.156,51.773C-62.514,41.131,-45.26,41.131,-34.618,51.773C-23.976,62.415,-23.976,79.668,-34.618,90.31Z" /></g><g id="Group 4"><path fill="#007cff" fill-opacity="1" d="M-41.511,83.418C-48.346,90.253,-59.428,90.253,-66.263,83.418C-73.098,76.583,-73.098,65.5,-66.263,58.665C-59.428,51.83,-48.346,51.83,-41.511,58.665C-34.676,65.5,-34.676,76.583,-41.511,83.418Z" /></g><g id="Group 3" transform="matrix(1,0,0,1,0,0)" opacity="0.3"><path fill="#007cff" fill-opacity="1" d="M-122.444,203.359L-186.205,139.599L-134.001,90.454L-73.299,151.155L-122.444,203.359Z" /></g><g id="Group 1"><path fill="#007cff" fill-opacity="1" d="M-163.575,257.196L-240.042,180.73L-199.306,171.917L-154.762,216.461L-163.575,257.196Z" /></g></g></g></g></g></g><g id="Null 3"><g transform="translate(631.939,166.915)"><animateTransform repeatCount="indefinite" type="translate" attributeName="transform" dur="5.967s" begin="0s" calcMode="spline" values="631.939 166.915; 631.939 151.915; 631.939 166.915" keyTimes="0; 0.503; 1" keySplines="0.333 0 0.667 1; 0.333 0 0.667 1" fill="freeze" /><g transform="scale(1,1) translate(-50,-50)"><g id="body"><g transform="translate(72.427,40.004)"><animateTransform repeatCount="indefinite" type="translate" attributeName="transform" dur="5.667s" begin="0s" calcMode="spline" values="72.427 40.004; 72.49 40.504; 72.427 40.004; 72.427 40.004; 72.49 40.504; 72.427 40.004; 72.427 40.004; 72.49 40.504; 72.427 40.004; 72.427 40.004; 72.49 40.504; 72.427 40.004" keyTimes="0; 0.052; 0.103; 0.367; 0.419; 0.471; 0.529; 0.581; 0.633; 0.897; 0.948; 1" keySplines="0.333 0 0.667 1; 0.333 0 0.667 1; 0.333 0 0.667 1; 0.333 0 0.667 1; 0.333 0 0.667 1; 0 0 1 1; 0.333 0 0.667 1; 0.333 0 0.667 1; 0 0 1 1; 0.333 0 0.667 1; 0.333 0 0.667 1" fill="freeze" /><g transform="rotate(-2)"><animateTransform repeatCount="indefinite" type="rotate" attributeName="transform" dur="5.667s" begin="0s" calcMode="spline" values="-2; 2; 2; -2; -2; 2; 2; -2" keyTimes="0; 0.103; 0.367; 0.471; 0.529; 0.633; 0.897; 1" keySplines="0.333 0 0.667 1; 0.299 0 0.667 1; 0.333 0 0.667 1; 0.235 0 0.667 1; 0.333 0 0.667 1; 0.299 0 0.667 1; 0.333 0 0.667 1" fill="freeze" /><g transform="scale(1,1) translate(-180.367,257.082)"><g transform="matrix(1,0,0,1,0,0)" id="bag"><g id="Group 4"><g id="Group 2"><path fill="#007cff" fill-opacity="1" d="M137.429,-320.279C151.912,-320.542,166.122,-315.772,166.122,-315.772C166.122,-315.772,189.285,-276.118,192.111,-267.041C191.138,-258.083,176.023,-243.398,176.023,-243.398L137.429,-320.279Z" /></g><g id="Group 1" transform="matrix(1,0,0,1,0,0)" opacity="0.3"><path fill="#ffffff" fill-opacity="1" d="M137.429,-320.279C151.912,-320.542,166.122,-315.772,166.122,-315.772C166.122,-315.772,189.285,-276.118,192.111,-267.041C191.138,-258.083,176.023,-243.398,176.023,-243.398L137.429,-320.279Z" /></g></g></g></g></g></g></g></g></g></g><g id="Null 3"><g transform="translate(631.939,166.915)"><animateTransform repeatCount="indefinite" type="translate" attributeName="transform" dur="5.967s" begin="0s" calcMode="spline" values="631.939 166.915; 631.939 151.915; 631.939 166.915" keyTimes="0; 0.503; 1" keySplines="0.333 0 0.667 1; 0.333 0 0.667 1" fill="freeze" /><g transform="scale(1,1) translate(-50,-50)"><g id="r leg"><g transform="translate(27.283,59.996)"><g transform="rotate(6)"><animateTransform repeatCount="indefinite" type="rotate" attributeName="transform" dur="5.667s" begin="0s" calcMode="spline" values="6; 0; 0; 6; 6; 0; 0; 6" keyTimes="0; 0.103; 0.367; 0.471; 0.529; 0.633; 0.897; 1" keySplines="0.333 0 0.667 1; 0.299 0 0.667 1; 0.333 0 0.667 1; 0.235 0 0.667 1; 0.333 0 0.667 1; 0.299 0 0.667 1; 0.333 0 0.667 1" fill="freeze" /><g transform="scale(1,1) translate(-135.222,237.089)"><g id="Group 3"><g id="Group 2"><path fill="#007cff" fill-opacity="1" d="M206.26,-127.647C197.523,-138.734,188.943,-150.028,181.84,-162.262C180.065,-165.32,178.385,-168.432,176.794,-171.589C175.89,-173.383,175.014,-175.191,174.165,-177.012C173.424,-178.602,171.786,-180.947,171.622,-182.683C169.085,-209.454,178.249,-229.16,169.451,-250.648L134.654,-237.049C134.654,-237.049,137.613,-198.765,144.369,-175.862C148.56,-161.653,158.046,-149.351,167.191,-137.968C170.052,-134.407,172.808,-130.763,175.663,-127.197C178.366,-123.822,181.391,-120.724,184.101,-117.366C188.214,-112.269,189.582,-107.402,186.456,-101.392C186.288,-101.07,186.114,-100.751,185.935,-100.435C185.047,-98.869,189.202,-97.095,191.81,-100.392C196.123,-105.844,195.446,-105.509,199.124,-110.158C201.357,-112.98,203.922,-116.029,206.136,-118.677C208.297,-121.261,208.345,-125.002,206.26,-127.647Z" /></g><g id="Group 1" transform="matrix(1,0,0,1,0,0)" opacity="0.7"><path fill="#ffffff" fill-opacity="1" d="M206.26,-127.647C197.523,-138.734,188.943,-150.028,181.84,-162.262C180.065,-165.32,178.385,-168.432,176.794,-171.589C175.89,-173.383,175.014,-175.191,174.165,-177.012C173.424,-178.602,171.786,-180.947,171.622,-182.683C169.085,-209.454,178.249,-229.16,169.451,-250.648L134.654,-237.049C134.654,-237.049,137.613,-198.765,144.369,-175.862C148.56,-161.653,158.046,-149.351,167.191,-137.968C170.052,-134.407,172.808,-130.763,175.663,-127.197C178.366,-123.822,181.391,-120.724,184.101,-117.366C188.214,-112.269,189.582,-107.402,186.456,-101.392C186.288,-101.07,186.114,-100.751,185.935,-100.435C185.047,-98.869,189.202,-97.095,191.81,-100.392C196.123,-105.844,195.446,-105.509,199.124,-110.158C201.357,-112.98,203.922,-116.029,206.136,-118.677C208.297,-121.261,208.345,-125.002,206.26,-127.647Z" /></g></g><g id="Group 2" transform="matrix(1,0,0,1,0,0)" opacity="0.3"><path fill="#007cff" fill-opacity="1" d="M197.751,-138.662C193.092,-133.032,183.622,-125.73,179.447,-122.77C180.354,-121.758,181.256,-120.725,182.158,-119.692C190.753,-125.304,197.546,-132.588,200.122,-135.545C199.328,-136.57,198.54,-137.616,197.751,-138.662Z" /></g><g id="Group 1" transform="matrix(1,0,0,1,0,0)" opacity="0.3"><path fill="#007cff" fill-opacity="1" d="M206.251,-127.642C206.171,-127.751,206.086,-127.84,206.007,-127.949C204.541,-126.421,203.507,-123.986,203.334,-121.253C203.194,-119.365,203.512,-117.636,204.131,-116.286C204.834,-117.102,205.491,-117.91,206.137,-118.675C208.306,-121.261,208.335,-124.996,206.251,-127.642Z" /></g></g></g></g></g></g></g></g><g id="Null 3"><g transform="translate(631.939,166.915)"><animateTransform repeatCount="indefinite" type="translate" attributeName="transform" dur="5.967s" begin="0s" calcMode="spline" values="631.939 166.915; 631.939 151.915; 631.939 166.915" keyTimes="0; 0.503; 1" keySplines="0.333 0 0.667 1; 0.333 0 0.667 1" fill="freeze" /><g transform="scale(1,1) translate(-50,-50)"><g id="l leg"><g transform="translate(72.717,41.71)"><g transform="rotate(8)"><animateTransform repeatCount="indefinite" type="rotate" attributeName="transform" dur="5.667s" begin="0s" calcMode="spline" values="8; 0; 0; 8; 8; 0; 0; 8" keyTimes="0; 0.103; 0.367; 0.471; 0.529; 0.633; 0.897; 1" keySplines="0.333 0 0.667 1; 0.299 0 0.667 1; 0.333 0 0.667 1; 0.235 0 0.667 1; 0.333 0 0.667 1; 0.299 0 0.667 1; 0.333 0 0.667 1" fill="freeze" /><g transform="scale(1,1) translate(-180.656,255.375)"><g id="Group 3"><g id="Group 2"><path fill="#007cff" fill-opacity="1" d="M254.248,-134.067C255.666,-140.872,255.209,-140.269,256.418,-146.073C257.152,-149.597,258.081,-153.471,258.876,-156.83C259.652,-160.108,258.021,-163.474,254.973,-164.907C252.387,-166.122,249.789,-167.313,247.215,-168.554C243.857,-170.173,240.554,-171.84,237.321,-173.699C234.814,-175.14,232.352,-176.657,229.942,-178.254C227.36,-179.965,224.837,-181.764,222.361,-183.625C219.465,-185.801,216.63,-188.059,213.829,-190.355C210.703,-192.918,207.687,-195.035,204.62,-197.669C196.566,-223.325,196.292,-238.584,181.371,-256.374L149.344,-241.886C149.344,-241.886,164.207,-204.957,178.284,-184.548C186.088,-173.233,198.835,-165.844,210.584,-159.548C219.06,-155.006,227.799,-150.979,236.574,-147.053C239.985,-145.527,243.805,-144.326,246.357,-141.445C248.367,-139.176,248.979,-136.249,249.015,-133.29C249.022,-132.685,249.006,-132.081,248.975,-131.477C248.882,-129.679,253.391,-129.952,254.248,-134.067Z" /></g><g id="Group 1" transform="matrix(1,0,0,1,0,0)" opacity="0.8"><path fill="#ffffff" fill-opacity="1" d="M254.248,-134.067C255.666,-140.872,255.209,-140.269,256.418,-146.073C257.152,-149.597,258.081,-153.471,258.876,-156.83C259.652,-160.108,258.021,-163.474,254.973,-164.907C252.387,-166.122,249.789,-167.313,247.215,-168.554C243.857,-170.173,240.554,-171.84,237.321,-173.699C234.814,-175.14,232.352,-176.657,229.942,-178.254C227.36,-179.965,224.837,-181.764,222.361,-183.625C219.465,-185.801,216.63,-188.059,213.829,-190.355C210.703,-192.918,207.687,-195.035,204.62,-197.669C196.566,-223.325,196.292,-238.584,181.371,-256.374L149.344,-241.886C149.344,-241.886,164.81,-204.588,178.284,-184.548C185.954,-173.142,198.835,-165.844,210.584,-159.548C219.06,-155.006,227.799,-150.979,236.574,-147.053C239.985,-145.527,243.805,-144.326,246.357,-141.445C248.367,-139.176,248.979,-136.249,249.015,-133.29C249.022,-132.685,249.006,-132.081,248.975,-131.477C248.882,-129.679,253.391,-129.952,254.248,-134.067Z" /></g></g><g id="Group 2" transform="matrix(1,0,0,1,0,0)" opacity="0.3"><path fill="#007cff" fill-opacity="1" d="M246.076,-169.104C244.917,-169.672,243.74,-170.25,242.572,-170.845C240.94,-163.735,234.631,-152.305,232.506,-148.893C233.741,-148.333,234.995,-147.761,236.229,-147.2C242.207,-156.062,245.288,-166.234,246.076,-169.104Z" /></g><g id="Group 1" transform="matrix(1,0,0,1,0,0)" opacity="0.3"><path fill="#007cff" fill-opacity="1" d="M258.87,-156.831C259.647,-160.118,258.025,-163.475,254.982,-164.913C254.37,-165.202,253.739,-165.502,253.116,-165.773C252.781,-163.811,253.455,-161.292,255.007,-159.011C256.033,-157.503,257.328,-156.353,258.604,-155.649C258.687,-156.062,258.779,-156.447,258.87,-156.831Z" /></g></g></g></g></g></g></g></g><g id="Null 3"><g transform="translate(631.939,166.915)"><animateTransform repeatCount="indefinite" type="translate" attributeName="transform" dur="5.967s" begin="0s" calcMode="spline" values="631.939 166.915; 631.939 151.915; 631.939 166.915" keyTimes="0; 0.503; 1" keySplines="0.333 0 0.667 1; 0.333 0 0.667 1" fill="freeze" /><g transform="scale(1,1) translate(-50,-50)"><g id="body"><g transform="translate(72.427,40.004)"><animateTransform repeatCount="indefinite" type="translate" attributeName="transform" dur="5.667s" begin="0s" calcMode="spline" values="72.427 40.004; 72.49 40.504; 72.427 40.004; 72.427 40.004; 72.49 40.504; 72.427 40.004; 72.427 40.004; 72.49 40.504; 72.427 40.004; 72.427 40.004; 72.49 40.504; 72.427 40.004" keyTimes="0; 0.052; 0.103; 0.367; 0.419; 0.471; 0.529; 0.581; 0.633; 0.897; 0.948; 1" keySplines="0.333 0 0.667 1; 0.333 0 0.667 1; 0.333 0 0.667 1; 0.333 0 0.667 1; 0.333 0 0.667 1; 0 0 1 1; 0.333 0 0.667 1; 0.333 0 0.667 1; 0 0 1 1; 0.333 0 0.667 1; 0.333 0 0.667 1" fill="freeze" /><g transform="rotate(-2)"><animateTransform repeatCount="indefinite" type="rotate" attributeName="transform" dur="5.667s" begin="0s" calcMode="spline" values="-2; 2; 2; -2; -2; 2; 2; -2" keyTimes="0; 0.103; 0.367; 0.471; 0.529; 0.633; 0.897; 1" keySplines="0.333 0 0.667 1; 0.299 0 0.667 1; 0.333 0 0.667 1; 0.235 0 0.667 1; 0.333 0 0.667 1; 0.299 0 0.667 1; 0.333 0 0.667 1" fill="freeze" /><g transform="scale(1,1) translate(-180.367,257.082)"><g id="r hand"><g transform="translate(116.462,-310.686)"><g transform="rotate(-41)"><animateTransform repeatCount="indefinite" type="rotate" attributeName="transform" dur="5.667s" begin="0s" calcMode="spline" values="-41; 15; 15; -7; 15; -7; 15; 15; -41; -41; 15; 15; -7; 15; -7; 15; 15; -41" keyTimes="0; 0.103; 0.114; 0.175; 0.235; 0.296; 0.357; 0.367; 0.471; 0.529; 0.633; 0.643; 0.704; 0.765; 0.825; 0.886; 0.897; 1" keySplines="0.333 0 0.667 1; 0.333 0 0.667 1; 0.333 0 0.667 1; 0.333 0 0.667 1; 0.167 0 0.667 1; 0.333 0 0.667 1; 0.244 0 0.667 1; 0.333 0 0.667 1; 0.235 0 0.667 1; 0.333 0 0.667 1; 0.333 0 0.667 1; 0.333 0 0.667 1; 0.333 0 0.667 1; 0.167 0 0.667 1; 0.333 0 0.667 1; 0.244 0 0.667 1; 0.333 0 0.667 1" fill="freeze" /><g transform="scale(1,1) translate(-116.462,310.686)"><g id="Group 2"><g id="Group 2"><path fill="#007cff" fill-opacity="1" d="M129.157,-294.925C125.517,-289.631,121.225,-284.413,115.688,-279.727C112.939,-277.372,114.532,-278.748,111.709,-276.212C110.257,-274.907,108.914,-273.449,107.348,-272.211L106.162,-271.298L105.777,-271.007C105.498,-270.799,105.212,-270.6,104.922,-270.409C104.369,-270.058,105.448,-271.153,104.965,-270.853C103.015,-269.642,101.395,-269.166,100.026,-268.837C97.294,-268.243,95.24,-268.256,93.289,-268.34C91.351,-268.423,89.586,-268.624,87.874,-268.888C84.468,-269.474,81.296,-270.21,78.195,-271.109C71.995,-272.906,66.188,-275.096,60.4,-277.887C57.762,-279.159,56.655,-282.329,57.926,-284.966C58.908,-287.003,61.02,-288.126,63.145,-287.949L63.334,-287.932C69.218,-287.426,75.221,-286.789,80.954,-286.406C83.828,-286.253,86.655,-286.069,89.294,-286.153C90.605,-286.169,91.869,-286.238,92.966,-286.358C94.041,-286.476,95.587,-286.595,95.816,-286.733C95.918,-286.777,95.744,-286.873,95.021,-286.585C94.847,-286.511,94.604,-286.398,94.37,-286.25C94.234,-286.169,94.102,-286.081,93.977,-285.984C93.856,-285.889,94.021,-286.042,94.028,-286.058L94.564,-286.631C95.279,-287.391,96.062,-288.117,96.702,-288.992C97.992,-290.754,99.999,-293.476,101.755,-295.178C105.232,-298.632,108.579,-302.932,112.111,-307.402L112.158,-307.463C115.776,-312.043,122.422,-312.823,127.001,-309.205C131.387,-305.74,132.267,-299.469,129.157,-294.925Z" /></g><g id="Group 1" transform="matrix(1,0,0,1,0,0)" opacity="0.7"><path fill="#ffffff" fill-opacity="1" d="M129.157,-294.925C125.517,-289.631,121.225,-284.413,115.688,-279.727C112.939,-277.372,114.231,-278.517,111.709,-276.212C110.268,-274.895,108.914,-273.449,107.348,-272.211L106.162,-271.298L105.777,-271.007C105.498,-270.799,105.212,-270.6,104.922,-270.409C104.369,-270.058,105.448,-271.153,104.965,-270.853C103.015,-269.642,101.395,-269.166,100.026,-268.837C97.294,-268.243,95.24,-268.256,93.289,-268.34C91.351,-268.423,89.586,-268.624,87.874,-268.888C84.468,-269.474,81.296,-270.21,78.195,-271.109C71.995,-272.906,66.188,-275.096,60.4,-277.887C57.762,-279.159,56.655,-282.329,57.926,-284.966C58.908,-287.003,61.02,-288.126,63.145,-287.949L63.334,-287.932C69.218,-287.426,75.221,-286.789,80.954,-286.406C83.828,-286.253,86.655,-286.069,89.294,-286.153C90.605,-286.169,91.869,-286.238,92.966,-286.358C94.041,-286.476,95.587,-286.595,95.816,-286.733C95.918,-286.777,95.744,-286.873,95.021,-286.585C94.847,-286.511,94.604,-286.398,94.37,-286.25C94.234,-286.169,94.102,-286.081,93.977,-285.984C93.856,-285.889,94.021,-286.042,94.028,-286.058L94.564,-286.631C95.279,-287.391,96.062,-288.117,96.702,-288.992C97.992,-290.754,99.999,-293.476,101.755,-295.178C105.232,-298.632,108.579,-302.932,112.111,-307.402L112.158,-307.463C115.776,-312.043,122.422,-312.823,127.001,-309.205C131.387,-305.74,132.267,-299.469,129.157,-294.925Z" /></g></g><g id="Group 1"><g id="Group 2"><path fill="#007cff" fill-opacity="1" d="M47.832,-284.798L51.945,-282.257C51.945,-282.257,56.175,-278.228,60.003,-279.069L67.564,-286.751L66.711,-287.279C66.716,-287.28,66.721,-287.281,66.725,-287.283C64.636,-288.45,62.981,-291.937,61.908,-294.996C60.835,-298.055,59.305,-297.388,58.584,-296.112C58.166,-295.375,58.397,-293.846,58.615,-292.179C57.845,-292.563,57.057,-292.907,56.235,-293.164L52.015,-294.485C50.194,-295.054,48.245,-294.109,47.566,-292.326L46.356,-289.152C45.739,-287.535,46.359,-285.707,47.832,-284.798Z" /></g><g id="Group 1" transform="matrix(1,0,0,1,0,0)" opacity="0.7"><path fill="#ffffff" fill-opacity="1" d="M47.832,-284.798L51.945,-282.257C51.945,-282.257,56.175,-278.228,60.003,-279.069L67.564,-286.751L66.711,-287.279C66.716,-287.28,66.721,-287.281,66.725,-287.283C64.636,-288.45,62.981,-291.937,61.908,-294.996C60.835,-298.055,59.305,-297.388,58.584,-296.112C58.166,-295.375,58.397,-293.846,58.615,-292.179C57.845,-292.563,57.057,-292.907,56.235,-293.164L52.015,-294.485C50.194,-295.054,48.245,-294.109,47.566,-292.326L46.356,-289.152C45.739,-287.535,46.359,-285.707,47.832,-284.798Z" /></g></g></g></g></g></g></g></g></g></g></g></g></g><g id="Null 3"><g transform="translate(631.939,166.915)"><animateTransform repeatCount="indefinite" type="translate" attributeName="transform" dur="5.967s" begin="0s" calcMode="spline" values="631.939 166.915; 631.939 151.915; 631.939 166.915" keyTimes="0; 0.503; 1" keySplines="0.333 0 0.667 1; 0.333 0 0.667 1" fill="freeze" /><g transform="scale(1,1) translate(-50,-50)"><g id="body"><g transform="translate(72.427,40.004)"><animateTransform repeatCount="indefinite" type="translate" attributeName="transform" dur="5.667s" begin="0s" calcMode="spline" values="72.427 40.004; 72.49 40.504; 72.427 40.004; 72.427 40.004; 72.49 40.504; 72.427 40.004; 72.427 40.004; 72.49 40.504; 72.427 40.004; 72.427 40.004; 72.49 40.504; 72.427 40.004" keyTimes="0; 0.052; 0.103; 0.367; 0.419; 0.471; 0.529; 0.581; 0.633; 0.897; 0.948; 1" keySplines="0.333 0 0.667 1; 0.333 0 0.667 1; 0.333 0 0.667 1; 0.333 0 0.667 1; 0.333 0 0.667 1; 0 0 1 1; 0.333 0 0.667 1; 0.333 0 0.667 1; 0 0 1 1; 0.333 0 0.667 1; 0.333 0 0.667 1" fill="freeze" /><g transform="rotate(-2)"><animateTransform repeatCount="indefinite" type="rotate" attributeName="transform" dur="5.667s" begin="0s" calcMode="spline" values="-2; 2; 2; -2; -2; 2; 2; -2" keyTimes="0; 0.103; 0.367; 0.471; 0.529; 0.633; 0.897; 1" keySplines="0.333 0 0.667 1; 0.299 0 0.667 1; 0.333 0 0.667 1; 0.235 0 0.667 1; 0.333 0 0.667 1; 0.299 0 0.667 1; 0.333 0 0.667 1" fill="freeze" /><g transform="scale(1,1) translate(-180.367,257.082)"><g id="Group 3"><g id="Group 2"><path fill="#007cff" fill-opacity="1" d="M147.816,-323.923C137.995,-321.54,124.5,-315.936,115.389,-310.259C112.159,-308.247,110.548,-304.428,111.308,-300.7C115.373,-280.758,124.647,-254.044,134.659,-237.051L181.371,-256.374C181.693,-264.614,170.352,-291.274,158.801,-317.042C156.724,-321.675,152.75,-325.12,147.816,-323.923Z" /></g><g id="Group 1" transform="matrix(1,0,0,1,0,0)" opacity="0.8"><path fill="#ffffff" fill-opacity="1" d="M147.816,-323.923C137.995,-321.54,124.5,-315.936,115.389,-310.259C112.159,-308.247,110.548,-304.428,111.308,-300.7C115.373,-280.758,124.647,-254.044,134.659,-237.051L181.371,-256.374C181.693,-264.614,170.352,-291.274,158.801,-317.042C156.724,-321.675,152.75,-325.12,147.816,-323.923Z" /></g></g><g id="Group 2"><g id="Group 2"><path fill="#007cff" fill-opacity="1" d="M134.055,-238.077C132.566,-237.528,135.287,-235.001,135.287,-235.001C135.287,-235.001,164.8,-245.115,182.809,-255.527C182.961,-257.704,181.377,-258.861,181.377,-258.861C181.377,-258.861,159.465,-247.443,134.055,-238.077Z" /></g><g id="Group 1" transform="matrix(1,0,0,1,0,0)" opacity="0.5"><path fill="#ffffff" fill-opacity="1" d="M134.055,-238.077C132.566,-237.528,135.287,-235.001,135.287,-235.001C135.287,-235.001,164.8,-245.115,182.809,-255.527C182.961,-257.704,181.377,-258.861,181.377,-258.861C181.377,-258.861,159.465,-247.443,134.055,-238.077Z" /></g></g><g id="Group 1"><g id="Group 5"><g id="Group 2" transform="matrix(1,0,0,1,0,0)" opacity="0.3"><path fill="#007cff" fill-opacity="1" d="M146.89,-301.038L144.315,-300.829L128.502,-262.625C129.432,-262.562,130.287,-262.64,131.077,-262.834C131.077,-262.834,151.696,-270.519,157.936,-273.335C153.735,-282.037,146.89,-301.038,146.89,-301.038Z" /></g><g id="Group 1"><path fill="#ffffff" fill-opacity="1" d="M118.014,-291.014C118.895,-284.134,124.054,-269.51,128.502,-262.625C136.225,-265.287,149.121,-270.31,155.361,-273.126C151.16,-281.828,146.734,-293.819,144.315,-300.829C137.663,-300.385,123.166,-294.924,118.014,-291.014Z" /></g></g><g id="Group 4" transform="matrix(1,0,0,1,0,0)" opacity="0.3"><path fill="#007cff" fill-opacity="1" d="M133.715,-282.752C132.852,-279.869,129.816,-278.231,126.933,-279.094C124.05,-279.957,122.413,-282.993,123.276,-285.876C124.139,-288.759,127.175,-290.397,130.058,-289.534C132.941,-288.671,134.578,-285.635,133.715,-282.752Z" /></g><g id="Group 3" transform="matrix(1,0,0,1,0,0)" opacity="0.6"><path fill="#007cff" fill-opacity="1" d="M137.758,-290.03C137.475,-289.085,136.48,-288.548,135.535,-288.831C134.59,-289.114,134.053,-290.109,134.336,-291.054C134.619,-291.999,135.614,-292.536,136.559,-292.253C137.504,-291.97,138.041,-290.975,137.758,-290.03Z" /></g><g id="Group 2" transform="matrix(1,0,0,1,0,0)" opacity="0.6"><path fill="#007cff" fill-opacity="1" d="M142.472,-291.866C142.189,-290.921,141.195,-290.384,140.25,-290.667C139.305,-290.95,138.768,-291.944,139.051,-292.889C139.334,-293.834,140.329,-294.371,141.274,-294.088C142.219,-293.805,142.755,-292.811,142.472,-291.866Z" /></g><g id="Group 1" transform="matrix(1,0,0,1,0,0)" opacity="0.5"><path fill="#007cff" fill-opacity="1" d="M149.118,-275.413L129.584,-267.693L128.402,-271.534L147.937,-279.255L149.118,-275.413Z" /></g></g></g></g></g></g></g></g></g><g id="Null 3"><g transform="translate(631.939,166.915)"><animateTransform repeatCount="indefinite" type="translate" attributeName="transform" dur="5.967s" begin="0s" calcMode="spline" values="631.939 166.915; 631.939 151.915; 631.939 166.915" keyTimes="0; 0.503; 1" keySplines="0.333 0 0.667 1; 0.333 0 0.667 1" fill="freeze" /><g transform="scale(1,1) translate(-50,-50)"><g id="body"><g transform="translate(72.427,40.004)"><animateTransform repeatCount="indefinite" type="translate" attributeName="transform" dur="5.667s" begin="0s" calcMode="spline" values="72.427 40.004; 72.49 40.504; 72.427 40.004; 72.427 40.004; 72.49 40.504; 72.427 40.004; 72.427 40.004; 72.49 40.504; 72.427 40.004; 72.427 40.004; 72.49 40.504; 72.427 40.004" keyTimes="0; 0.052; 0.103; 0.367; 0.419; 0.471; 0.529; 0.581; 0.633; 0.897; 0.948; 1" keySplines="0.333 0 0.667 1; 0.333 0 0.667 1; 0.333 0 0.667 1; 0.333 0 0.667 1; 0.333 0 0.667 1; 0 0 1 1; 0.333 0 0.667 1; 0.333 0 0.667 1; 0 0 1 1; 0.333 0 0.667 1; 0.333 0 0.667 1" fill="freeze" /><g transform="rotate(-2)"><animateTransform repeatCount="indefinite" type="rotate" attributeName="transform" dur="5.667s" begin="0s" calcMode="spline" values="-2; 2; 2; -2; -2; 2; 2; -2" keyTimes="0; 0.103; 0.367; 0.471; 0.529; 0.633; 0.897; 1" keySplines="0.333 0 0.667 1; 0.299 0 0.667 1; 0.333 0 0.667 1; 0.235 0 0.667 1; 0.333 0 0.667 1; 0.299 0 0.667 1; 0.333 0 0.667 1" fill="freeze" /><g transform="scale(1,1) translate(-180.367,257.082)"><g id="head"><g transform="translate(149.308,-323.246)"><animateTransform repeatCount="indefinite" type="translate" attributeName="transform" dur="5.667s" begin="0s" calcMode="spline" values="149.308 -323.246; 149.308 -322.934; 149.308 -323.246; 149.308 -323.246; 149.308 -322.934; 149.308 -323.246; 149.308 -323.246; 149.308 -322.934; 149.308 -323.246; 149.308 -323.246; 149.308 -322.934; 149.308 -323.246" keyTimes="0; 0.052; 0.103; 0.367; 0.419; 0.471; 0.529; 0.581; 0.633; 0.897; 0.948; 1" keySplines="0.333 0 0.667 1; 0.333 0 0.667 1; 0.333 0 0.667 1; 0.333 0 0.667 1; 0.333 0 0.667 1; 0 0 1 1; 0.333 0 0.667 1; 0.333 0 0.667 1; 0 0 1 1; 0.333 0 0.667 1; 0.333 0 0.667 1" fill="freeze" /><g transform="rotate(-3)"><animateTransform repeatCount="indefinite" type="rotate" attributeName="transform" dur="5.667s" begin="0s" calcMode="spline" values="-3; 2; 2; -3; -3; 2; 2; -3" keyTimes="0; 0.103; 0.367; 0.471; 0.529; 0.633; 0.897; 1" keySplines="0.333 0 0.667 1; 0.299 0 0.667 1; 0.333 0 0.667 1; 0.235 0 0.667 1; 0.333 0 0.667 1; 0.299 0 0.667 1; 0.333 0 0.667 1" fill="freeze" /><g transform="scale(1,1) translate(-149.308,323.246)"><g id="Group 3"><g id="Group 2"><path fill="#007cff" fill-opacity="1" d="M144.737,-344.846C140.882,-352.199,132.54,-355.902,122.521,-355.065C114.074,-354.359,106.584,-345.737,107.472,-341.077C108.359,-336.417,115.467,-334.443,116.755,-332.825L110.898,-328.578C107.982,-326.464,107.412,-322.351,109.64,-319.521C112.104,-316.39,115.351,-313.12,117.24,-310.811C133.431,-311.231,145.404,-317.407,149.719,-323.35C148.168,-330.912,148.572,-337.533,144.737,-344.846Z" /></g><g id="Group 1" transform="matrix(1,0,0,1,0,0)" opacity="0.8"><path fill="#ffffff" fill-opacity="1" d="M144.737,-344.846C140.882,-352.199,132.54,-355.902,122.521,-355.065C114.074,-354.359,106.584,-345.737,107.472,-341.077C108.359,-336.417,115.467,-334.443,116.755,-332.825L110.898,-328.578C107.982,-326.464,107.412,-322.351,109.64,-319.521C112.104,-316.39,115.351,-313.12,117.24,-310.811C133.431,-311.231,145.404,-317.407,149.719,-323.35C148.168,-330.912,148.572,-337.533,144.737,-344.846Z" /></g></g><g id="Group 2"><path fill="#1a2e35" fill-opacity="1" d="M136.801,-340.292C140.017,-332.062,135.953,-322.783,127.724,-319.567C119.494,-316.351,110.215,-320.414,106.999,-328.644C103.783,-336.873,107.846,-346.153,116.076,-349.369C124.305,-352.585,133.585,-348.521,136.801,-340.292Z" /></g><g id="Group 1"><path fill="#ffffff" fill-opacity="1" d="M133.812,-340.157C134.667,-336.954,131.082,-333.585,128.213,-336.356C125.886,-338.604,122.377,-342.369,119.516,-344.158C116.575,-345.997,120.496,-349.201,125.115,-347.957C129.427,-346.796,132.957,-343.361,133.812,-340.157Z" /></g></g></g></g></g></g></g></g></g></g></g></g><g id="Null 3"><g transform="translate(631.939,166.915)"><animateTransform repeatCount="indefinite" type="translate" attributeName="transform" dur="5.967s" begin="0s" calcMode="spline" values="631.939 166.915; 631.939 151.915; 631.939 166.915" keyTimes="0; 0.503; 1" keySplines="0.333 0 0.667 1; 0.333 0 0.667 1" fill="freeze" /><g transform="scale(1,1) translate(-50,-50)"><g id="body"><g transform="translate(72.427,40.004)"><animateTransform repeatCount="indefinite" type="translate" attributeName="transform" dur="5.667s" begin="0s" calcMode="spline" values="72.427 40.004; 72.49 40.504; 72.427 40.004; 72.427 40.004; 72.49 40.504; 72.427 40.004; 72.427 40.004; 72.49 40.504; 72.427 40.004; 72.427 40.004; 72.49 40.504; 72.427 40.004" keyTimes="0; 0.052; 0.103; 0.367; 0.419; 0.471; 0.529; 0.581; 0.633; 0.897; 0.948; 1" keySplines="0.333 0 0.667 1; 0.333 0 0.667 1; 0.333 0 0.667 1; 0.333 0 0.667 1; 0.333 0 0.667 1; 0 0 1 1; 0.333 0 0.667 1; 0.333 0 0.667 1; 0 0 1 1; 0.333 0 0.667 1; 0.333 0 0.667 1" fill="freeze" /><g transform="rotate(-2)"><animateTransform repeatCount="indefinite" type="rotate" attributeName="transform" dur="5.667s" begin="0s" calcMode="spline" values="-2; 2; 2; -2; -2; 2; 2; -2" keyTimes="0; 0.103; 0.367; 0.471; 0.529; 0.633; 0.897; 1" keySplines="0.333 0 0.667 1; 0.299 0 0.667 1; 0.333 0 0.667 1; 0.235 0 0.667 1; 0.333 0 0.667 1; 0.299 0 0.667 1; 0.333 0 0.667 1" fill="freeze" /><g transform="scale(1,1) translate(-180.367,257.082)"><g id="l hand"><g transform="translate(145.393,-324.69)"><g transform="rotate(11)"><animateTransform repeatCount="indefinite" type="rotate" attributeName="transform" dur="5.667s" begin="0s" calcMode="spline" values="11; 0; 0; 11; 11; 0; 0; 11" keyTimes="0; 0.103; 0.367; 0.471; 0.529; 0.633; 0.897; 1" keySplines="0.333 0 0.667 1; 0.299 0 0.667 1; 0.333 0 0.667 1; 0.235 0 0.667 1; 0.333 0 0.667 1; 0.299 0 0.667 1; 0.333 0 0.667 1" fill="freeze" /><g transform="scale(1,1) translate(-145.393,324.69)"><g id="Group 2"><g id="Group 2"><path fill="#007cff" fill-opacity="1" d="M155.814,-325.321C161.64,-322.379,167.125,-319.261,172.602,-315.813C175.329,-314.095,178.043,-312.331,180.719,-310.429C183.414,-308.564,186.074,-306.596,188.744,-304.383L189.745,-303.563L190.993,-302.436C191.88,-301.654,192.53,-300.934,193.183,-300.215C193.867,-299.473,194.432,-298.759,194.987,-298.048C195.563,-297.332,196.111,-296.621,196.604,-295.919C198.694,-293.113,200.397,-290.26,202.067,-287.429C205.313,-281.69,208.125,-275.958,210.445,-269.791C211.48,-267.041,210.089,-263.972,207.338,-262.936C205.272,-262.159,203.025,-262.75,201.596,-264.259L201.492,-264.373C197.247,-268.868,193.176,-273.61,189.08,-278.016C185.073,-282.408,180.816,-286.917,177.383,-288.877C172.587,-291.868,167.246,-294.84,161.941,-297.764L145.965,-306.632L145.926,-306.653C140.824,-309.485,138.984,-315.915,141.815,-321.016C144.575,-325.99,150.778,-327.854,155.814,-325.321Z" /></g><g id="Group 1" transform="matrix(1,0,0,1,0,0)" opacity="0.8"><path fill="#ffffff" fill-opacity="1" d="M155.814,-325.321C161.64,-322.379,167.125,-319.261,172.602,-315.813C175.329,-314.095,178.043,-312.331,180.719,-310.429C183.414,-308.564,186.074,-306.596,188.744,-304.383L189.745,-303.563L190.993,-302.436C191.88,-301.654,192.53,-300.934,193.183,-300.215C193.867,-299.473,194.432,-298.759,194.987,-298.048C195.563,-297.332,196.111,-296.621,196.604,-295.919C198.694,-293.113,200.397,-290.26,202.067,-287.429C205.313,-281.69,208.125,-275.958,210.445,-269.791C211.48,-267.041,210.089,-263.972,207.338,-262.936C205.272,-262.159,203.025,-262.75,201.596,-264.259L201.492,-264.373C197.247,-268.868,193.176,-273.61,189.08,-278.016C185.073,-282.408,180.816,-286.917,177.383,-288.877C172.587,-291.868,167.246,-294.84,161.941,-297.764L145.965,-306.632L145.926,-306.653C140.824,-309.485,138.984,-315.915,141.815,-321.016C144.575,-325.99,150.778,-327.854,155.814,-325.321Z" /></g></g><g id="Group 1"><g id="Group 2"><path fill="#007cff" fill-opacity="1" d="M215.543,-259.46L213.749,-263.95C213.749,-263.95,212.748,-269.705,209.171,-271.307L198.523,-269.633L198.894,-268.702C198.889,-268.704,198.885,-268.706,198.881,-268.707C199.865,-266.526,199.119,-262.737,198.161,-259.641C197.203,-256.544,198.829,-256.17,200.168,-256.766C200.942,-257.11,201.667,-258.477,202.484,-259.946C202.874,-259.18,203.303,-258.433,203.811,-257.737L206.416,-254.164C207.541,-252.623,209.669,-252.223,211.276,-253.252L214.137,-255.083C215.595,-256.016,216.186,-257.853,215.543,-259.46Z" /></g><g id="Group 1" transform="matrix(1,0,0,1,0,0)" opacity="0.8"><path fill="#ffffff" fill-opacity="1" d="M215.543,-259.46L213.749,-263.95C213.749,-263.95,212.748,-269.705,209.171,-271.307L198.523,-269.633L198.894,-268.702C198.889,-268.704,198.885,-268.706,198.881,-268.707C199.865,-266.526,199.119,-262.737,198.161,-259.641C197.203,-256.544,198.829,-256.17,200.168,-256.766C200.942,-257.11,201.667,-258.477,202.484,-259.946C202.874,-259.18,203.303,-258.433,203.811,-257.737L206.416,-254.164C207.541,-252.623,209.669,-252.223,211.276,-253.252L214.137,-255.083C215.595,-256.016,216.186,-257.853,215.543,-259.46Z" /></g></g></g></g></g></g></g></g></g></g></g></g></g><g opacity="0" id="Null 3"><g transform="translate(631.939,166.915)"><animateTransform repeatCount="indefinite" type="translate" attributeName="transform" dur="5.967s" begin="0s" calcMode="spline" values="631.939 166.915; 631.939 151.915; 631.939 166.915" keyTimes="0; 0.503; 1" keySplines="0.333 0 0.667 1; 0.333 0 0.667 1" fill="freeze" /><g transform="scale(1,1) translate(-50,-50)" /></g></g></svg>